{
.appVersion = "895";
classes = (
{
code = "A B C D E F G H I J K L M N O P Q R S T U V W X Y Z AE AEacute Aacute Abreve Acircumflex Adieresis Agrave Amacron Aogonek Aring Aringacute Atilde Abreveacute Abrevedotbelow Abrevegrave Abrevehookabove Abrevetilde Acaron Acircumflexacute Acircumflexdotbelow Acircumflexgrave Acircumflexhookabove Acircumflextilde Adotbelow Ahookabove Cacute Ccaron Ccedilla Ccircumflex Cdotaccent Dcaron Dcroat Eacute Ebreve Ecaron Ecircumflex Edieresis Edotaccent Egrave Emacron Ecircumflexacute Ecircumflexdotbelow Ecircumflexgrave Ecircumflexhookabove Ecircumflextilde Edotbelow Ehookabove Etilde Eogonek Eng Eth Gbreve Gcircumflex Gcommaaccent Gdotaccent Germandbls Hbar Hcircumflex IJ Iacute Ibreve Icircumflex Idieresis Idotaccent Igrave Imacron Iogonek Itilde Icaron Idotbelow Ihookabove Jcircumflex Kcommaaccent Lacute Lcaron Lcommaaccent Ldot Lslash Nacute Ncaron Ncommaaccent Ntilde OE Oacute Obreve Ocircumflex Odieresis Ograve Ohungarumlaut Omacron Oslash Oslashacute Otilde Ocaron Ocircumflexacute Ocircumflexdotbelow Ocircumflexgrave Ocircumflexhookabove Ocircumflextilde Odotbelow Ohookabove Ohorn Ohornacute Ohorndotbelow Ohorngrave Ohornhookabove Ohorntilde Oogonek Racute Rcaron Rcommaaccent Sacute Scaron Scedilla Scircumflex Scommaaccent Tbar Tcaron Tcedilla Thorn Tcommaaccent Uacute Ubreve Ucircumflex Udieresis Ugrave Uhungarumlaut Umacron Uogonek Uring Utilde Ucaron Udieresisacute Udieresiscaron Udieresisgrave Udieresismacron Udotbelow Uhookabove Uhorn Uhornacute Uhorndotbelow Uhorngrave Uhornhookabove Uhorntilde Wacute Wcircumflex Wdieresis Wgrave Yacute Ycircumflex Ydieresis Ygrave Ydotbelow Yhookabove Ytilde Zacute Zcaron Zdotaccent Iacute_J.loclNLD";
name = mayusc;
},
{
code = "a b c d e f g h i j k l m n o p q r s t u v w x y z";
name = ordn1;
},
{

glyphs = (
{
color = 1;
glyphname = A;
lastChange = "2016-10-28 13:24:24 +0000";
layers = (
{
anchors = (
{
name = ogonek;
position = "{595, 10}";
},
{
name = top;
position = "{291, 641}";
}
);
layerId = "EDFD1FE9-67C2-43D2-81E5-EF1682ABC3BD";
paths = (
{
closed = 1;
nodes = (
"246 641 LINE",
"13 0 LINE SMOOTH",
"99 0 LINE",
"115 70 LINE",
"290 554 LINE",
"297 554 LINE",
"456 66 LINE",
"471 0 LINE",
"559 0 LINE",
"346 641 LINE"
);
},
{
closed = 1;
nodes = (
"286 241 LINE",
"144 242 LINE",
"141 175 LINE",
"279 177 LINE",
"429 176 LINE",
"425 242 LINE"
);
}
);
width = 580;
},
{
anchors = (
{
name = ogonek;
position = "{595, 10}";
},
{
name = top;
position = "{291, 641}";
}
);
background = {
paths = (
{
closed = 1;
nodes = (
"421 338 OFFCURVE",
"337 649 OFFCURVE",
"337 649 CURVE",
"329 649 LINE",
"266 632 LINE",
"71 121 LINE",
"49 65 OFFCURVE",
"30 48 OFFCURVE",
"-7 44 CURVE",
"-15 -3 LINE",
"-15 -3 OFFCURVE",
"47 0 OFFCURVE",
"95 0 CURVE SMOOTH",
"161 0 OFFCURVE",
"234 -7 OFFCURVE",
"234 -7 CURVE",
"240 36 LINE",
"238 40 LINE",
"181 40 LINE",
"139 40 OFFCURVE",
"121 52 OFFCURVE",
"121 81 CURVE SMOOTH",
"121 90 OFFCURVE",
"124 102 OFFCURVE",
"130 120 CURVE SMOOTH",
"167 224 LINE",
"190 227 OFFCURVE",
"237 232 OFFCURVE",
"276 232 CURVE SMOOTH",
"304 232 OFFCURVE",
"356 232 OFFCURVE",
"380 231 CURVE",
"413 122 LINE",
"419 103 OFFCURVE",
"422 87 OFFCURVE",
"422 74 CURVE SMOOTH",
"422 50 OFFCURVE",
"402 41 OFFCURVE",
"333 36 CURVE",
"329 -3 LINE",
"332 -10 LINE",
"332 -10 OFFCURVE",
"404 0 OFFCURVE",
"481 0 CURVE SMOOTH",
"515 0 OFFCURVE",
"587 -3 OFFCURVE",
"587 -3 CURVE",
"594 38 LINE",
"592 42 LINE",
"534 47 OFFCURVE",
"512 63 OFFCURVE",
"496 113 CURVE SMOOTH"
);
},
{
closed = 1;
nodes = (
"280 540 LINE",
"287 540 LINE",
"366 278 LINE",
"343 276 OFFCURVE",
"300 273 OFFCURVE",
"273 273 CURVE SMOOTH",
"185 273 LINE"
);
}
);
};
layerId = "083C0576-DCB5-487A-B9F4-85809F200F55";
paths = (
{
closed = 1;
nodes = (
"247 641 LINE",
"13 0 LINE SMOOTH",
"99 0 LINE",
"115 70 LINE",
"291 554 LINE",
"298 554 LINE",
"456 66 LINE",
"471 0 LINE",
"559 0 LINE",
"347 641 LINE"
);
},
{
closed = 1;
nodes = (
"287 241 LINE",
"129 244 LINE",
"129 170 LINE",
"280 173 LINE",
"445 170 LINE",
"445 244 LINE"
);
}
);
width = 580;
}
);
leftKerningGroup = A;
rightKerningGroup = A;
unicode = 0041;
},
{
color = 0;
glyphname = Aogonek;
lastChange = "2016-10-28 13:24:24 +0000";
layers = (
{
components = (
{
name = A;
}
);
layerId = "EDFD1FE9-67C2-43D2-81E5-EF1682ABC3BD";
paths = (
{
closed = 1;
nodes = (
"489 0 LINE",
"446 -62 OFFCURVE",
"433 -92 OFFCURVE",
"433 -121 CURVE SMOOTH",
"433 -165 OFFCURVE",
"463 -197 OFFCURVE",
"512 -197 CURVE SMOOTH",
"548 -197 OFFCURVE",
"580 -178 OFFCURVE",
"612 -144 CURVE",
"601 -108 LINE",
"596 -108 LINE",
"573 -134 OFFCURVE",
"546 -149 OFFCURVE",
"522 -149 CURVE SMOOTH",
"495 -149 OFFCURVE",
"480 -132 OFFCURVE",
"480 -109 CURVE SMOOTH",
"480 -88 OFFCURVE",
"492 -60 OFFCURVE",
"533 0 CURVE"
);
}
);
width = 580;
},
{
background = {
components = (
{
name = ogonekcomb;
transform = "{1, 0, 0, 1, 323, 0}";
}
);
};
components = (
{
name = A;
}
);
layerId = "083C0576-DCB5-487A-B9F4-85809F200F55";
paths = (
{
closed = 1;
nodes = (
"486 0 LINE",
"445 -58 OFFCURVE",
"433 -87 OFFCURVE",
"433 -118 CURVE SMOOTH",
"433 -167 OFFCURVE",
"464 -197 OFFCURVE",
"511 -197 CURVE SMOOTH",
"548 -197 OFFCURVE",
"580 -178 OFFCURVE",
"612 -144 CURVE",
"601 -104 LINE",
"596 -104 LINE",
"573 -126 OFFCURVE",
"547 -140 OFFCURVE",
"522 -140 CURVE SMOOTH",
"500 -140 OFFCURVE",
"489 -129 OFFCURVE",
"489 -106 CURVE SMOOTH",
"489 -83 OFFCURVE",
"500 -56 OFFCURVE",
"539 1 CURVE"
);
}
);
width = 580;
}
);
leftKerningGroup = A;
rightKerningGroup = A;
unicode = 0104;
},
{
color = 0;
glyphname = Aringacute;
lastChange = "2016-10-28 13:24:24 +0000";
layers = (
{
components = (
{
name = ringcomb_acutecomb;
transform = "{1, 0, 0, 1, 103, 88}";
}
);
layerId = "EDFD1FE9-67C2-43D2-81E5-EF1682ABC3BD";
paths = (
{
closed = 1;
nodes = (
"252 639 LINE",
"13 0 LINE SMOOTH",
"99 0 LINE",
"115 69 LINE",
"290 548 LINE",
"297 548 LINE",
"456 65 LINE",
"471 0 LINE",
"559 0 LINE",
"341 639 LINE"
);
},
{
closed = 1;
nodes = (
"286 238 LINE",
"144 238 LINE",
"141 173 LINE",
"279 175 LINE",
"429 174 LINE",
"425 238 LINE"
);
},
{
closed = 0;
nodes = (
"296 294 LINE"
);
}
);
width = 580;
},
{
background = {
components = (
{
name = A;
},
{
name = ring.cap;
transform = "{0.901, 0, 0, 0.902, 166, 63}";
},
{
name = acutecomb.case;
transform = "{0.9, 0, 0, 0.9, 182, 65}";
}
);
};
components = (
{
name = ringcomb_acutecomb;
transform = "{1, 0, 0, 1, 103, 88}";
}
);
layerId = "083C0576-DCB5-487A-B9F4-85809F200F55";
paths = (
{
closed = 1;
nodes = (
"252 639 LINE",
"13 0 LINE SMOOTH",
"99 0 LINE",
"115 69 LINE",
"291 548 LINE",
"298 548 LINE",
"456 65 LINE",
"471 0 LINE",
"559 0 LINE",
"341 639 LINE"
);
},
{
closed = 1;
nodes = (
"287 239 LINE",
"129 242 LINE",
"129 168 LINE",
"280 171 LINE",
"445 168 LINE",
"445 242 LINE"
);
},
{
closed = 0;
nodes = (
"296 294 LINE"
);
}
);
width = 580;
}
);
leftKerningGroup = A;
rightKerningGroup = A;
unicode = 01FA;
},
{
color = 1;
glyphname = AE;
lastChange = "2016-10-28 13:24:24 +0000";
layers = (
{
anchors = (
{
name = top;
position = "{498, 641}";
}
);
layerId = "EDFD1FE9-67C2-43D2-81E5-EF1682ABC3BD";
paths = (
{
closed = 1;
nodes = (
"318 641 LINE",
"-17 0 LINE",
"71 0 LINE",
"97 70 LINE",
"351 554 LINE",
"358 554 LINE",
"429 66 LINE",
"434 0 LINE",
"786 0 LINE",
"793 63 LINE",
"787 71 LINE",
"623 68 LINE",
"511 68 LINE",
"439 572 LINE",
"536 572 LINE",
"696 570 LINE",
"704 633 LINE",
"698 641 LINE"
);
},
{
closed = 1;
nodes = (
"458 332 LINE",
"148 263 LINE",
"123 188 LINE",
"464 267 LINE",
"698 315 LINE",
"693 375 LINE",
"686 381 LINE"
);
}
);
width = 809;
},
{
anchors = (
{
name = top;
position = "{498, 641}";
}
);
background = {
paths = (
{
closed = 1;
nodes = (
"341 641 LINE",
"347 193 LINE",
"341 0 LINE",
"428 0 LINE",
"424 200 LINE",
"429 641 LINE"
);
},
{
closed = 1;
nodes = (
"554 70 LINE",
"400 72 LINE",
"397 7 LINE",
"400 0 LINE",
"706 0 LINE",
"712 67 LINE",
"707 75 LINE"
);
},
{
closed = 1;
nodes = (
"545 362 LINE",
"403 364 LINE",
"400 299 LINE",
"403 292 LINE",
"538 294 LINE",
"650 291 LINE",
"657 358 LINE",
"651 365 LINE"
);
},
{
closed = 1;
nodes = (
"400 641 LINE",
"397 575 LINE",
"400 568 LINE",
"554 570 LINE",
"705 566 LINE",
"712 633 LINE",
"707 641 LINE"
);
}
);
};
layerId = "083C0576-DCB5-487A-B9F4-85809F200F55";
paths = (
{
closed = 1;
nodes = (
"319 641 LINE",
"-16 0 LINE",
"72 0 LINE",
"98 70 LINE",
"352 554 LINE",
"358 554 LINE",
"430 66 LINE",
"435 0 LINE",
"787 0 LINE",
"794 67 LINE",
"788 75 LINE",
"624 69 LINE",
"512 69 LINE",
"440 571 LINE",
"536 571 LINE",
"697 566 LINE",
"705 633 LINE",
"699 641 LINE"
);
},
{
closed = 1;
nodes = (
"457 337 LINE",
"148 268 LINE",
"123 191 LINE",
"464 270 LINE",
"698 318 LINE",
"693 380 LINE",
"686 386 LINE"
);
}
);
width = 809;
}
);
leftKerningGroup = A;
rightKerningGroup = E;
unicode = 00C6;
},
{
color = 1;
glyphname = B;
lastChange = "2016-10-28 13:24:24 +0000";
layers = (
{
layerId = "EDFD1FE9-67C2-43D2-81E5-EF1682ABC3BD";
paths = (
{
closed = 1;
nodes = (
"92 641 LINE",
"136 579 LINE",
"178 580 OFFCURVE",
"213 581 OFFCURVE",
"248 581 CURVE SMOOTH",
"334 581 OFFCURVE",
"377 544 OFFCURVE",
"377 477 CURVE SMOOTH",
"377 410 OFFCURVE",
"345 368 OFFCURVE",
"283 354 CURVE",
"123 360 LINE",
"123 295 LINE",
"296 297 LINE",
"375 287 OFFCURVE",
"418 249 OFFCURVE",
"418 183 CURVE SMOOTH",
"418 102 OFFCURVE",
"357 56 OFFCURVE",
"250 56 CURVE SMOOTH",
"219 56 OFFCURVE",
"172 59 OFFCURVE",
"140 64 CURVE",
"92 0 LINE",
"139 -3 OFFCURVE",
"201 -4 OFFCURVE",
"239 -4 CURVE SMOOTH",
"410 -4 OFFCURVE",
"504 58 OFFCURVE",
"504 180 CURVE SMOOTH",
"504 267 OFFCURVE",
"455 317 OFFCURVE",
"367 334 CURVE",
"429 360 OFFCURVE",
"464 412 OFFCURVE",
"464 488 CURVE SMOOTH",
"464 588 OFFCURVE",
"394 642 OFFCURVE",
"275 642 CURVE"
);
},
{
closed = 1;
nodes = (
"92 641 LINE",
"96 193 LINE",
"92 0 LINE",
"175 0 LINE",
"172 200 LINE",
"176 641 LINE"
);
}
);
width = 541;
},
{
background = {
paths = (
{
closed = 1;
nodes = (
"91 641 LINE",
"97 193 LINE",
"91 0 LINE",
"178 0 LINE",
"174 200 LINE",
"179 641 LINE"
);
},
{
closed = 1;
nodes = (
"304 70 LINE",
"150 72 LINE",
"147 7 LINE",
"150 0 LINE",
"456 0 LINE",
"462 67 LINE",
"457 75 LINE"
);
},
{
closed = 1;
nodes = (
"295 362 LINE",
"153 364 LINE",
"150 299 LINE",
"153 292 LINE",
"288 294 LINE",
"400 291 LINE",
"407 358 LINE",
"401 365 LINE"
);
},
{
closed = 1;
nodes = (
"150 641 LINE",
"147 575 LINE",
"150 568 LINE",
"304 570 LINE",
"455 566 LINE",
"462 633 LINE",
"457 641 LINE"
);
}
);
};
layerId = "083C0576-DCB5-487A-B9F4-85809F200F55";
paths = (
{
closed = 1;
nodes = (
"92 641 LINE",
"136 571 LINE",
"179 572 OFFCURVE",
"222 572 OFFCURVE",
"257 572 CURVE SMOOTH",
"342 572 OFFCURVE",
"376 544 OFFCURVE",
"376 476 CURVE SMOOTH",
"376 410 OFFCURVE",
"344 374 OFFCURVE",
"284 360 CURVE",
"124 364 LINE",
"124 291 LINE",
"296 293 LINE",
"374 283 OFFCURVE",
"416 248 OFFCURVE",
"416 184 CURVE SMOOTH",
"416 108 OFFCURVE",
"356 67 OFFCURVE",
"250 67 CURVE SMOOTH",
"221 67 OFFCURVE",
"173 70 OFFCURVE",
"141 74 CURVE",
"92 0 LINE",
"133 -3 OFFCURVE",
"215 -4 OFFCURVE",
"237 -4 CURVE SMOOTH",
"414 -4 OFFCURVE",
"503 58 OFFCURVE",
"503 179 CURVE SMOOTH",
"503 264 OFFCURVE",
"459 316 OFFCURVE",
"368 334 CURVE",
"429 360 OFFCURVE",
"464 413 OFFCURVE",
"464 486 CURVE SMOOTH",
"464 589 OFFCURVE",
"394 642 OFFCURVE",
"275 642 CURVE"
);
},
{
closed = 1;
nodes = (
"91 641 LINE",
"97 193 LINE",
"91 0 LINE",
"178 0 LINE",
"174 200 LINE",
"179 641 LINE"
);
}
);
width = 541;
}
);
leftKerningGroup = H;
rightKerningGroup = B;
unicode = 0042;
},
{
color = 1;
glyphname = C;
lastChange = "2016-10-28 13:24:24 +0000";
layers = (
{
anchors = (
{
name = bottom;
position = "{308, 0}";
},
{
name = top;
position = "{314, 641}";
}
);
layerId = "EDFD1FE9-67C2-43D2-81E5-EF1682ABC3BD";
paths = (
{
closed = 1;
nodes = (
"141 647 OFFCURVE",
"37 528 OFFCURVE",
"37 317 CURVE SMOOTH",
"37 108 OFFCURVE",
"133 -7 OFFCURVE",
"316 -7 CURVE SMOOTH",
"372 -7 OFFCURVE",
"433 10 OFFCURVE",
"486 42 CURVE",
"493 111 LINE",
"483 116 LINE",
"436 84 OFFCURVE",
"375 66 OFFCURVE",
"321 66 CURVE SMOOTH",
"194 66 OFFCURVE",
"126 155 OFFCURVE",
"126 325 CURVE SMOOTH",
"126 490 OFFCURVE",
"194 575 OFFCURVE",
"324 575 CURVE SMOOTH",
"376 575 OFFCURVE",
"431 558 OFFCURVE",
"472 529 CURVE",
"481 531 LINE",
"498 600 LINE",
"449 630 OFFCURVE",
"389 647 OFFCURVE",
"327 647 CURVE SMOOTH"
);
}
);
width = 520;
},
{
anchors = (
{
name = bottom;
position = "{308, 0}";
},
{
name = top;
position = "{314, 641}";
}
);
background = {
paths = (
{
closed = 1;
nodes = (
"152 647 OFFCURVE",
"37 529 OFFCURVE",
"37 307 CURVE SMOOTH",
"37 108 OFFCURVE",
"129 -7 OFFCURVE",
"326 -7 CURVE SMOOTH",
"387 -7 OFFCURVE",
"451 4 OFFCURVE",
"538 31 CURVE",
"534 172 LINE",
"536 259 LINE",
"455 253 LINE",
"457 160 LINE",
"454 89 LINE",
"397 71 OFFCURVE",
"366 66 OFFCURVE",
"330 66 CURVE SMOOTH",
"191 66 OFFCURVE",
"126 140 OFFCURVE",
"126 311 CURVE SMOOTH",
"126 492 OFFCURVE",
"199 575 OFFCURVE",
"338 575 CURVE SMOOTH",
"398 575 OFFCURVE",
"447 559 OFFCURVE",
"512 519 CURVE",
"522 521 LINE",
"540 602 LINE",
"477 634 OFFCURVE",
"417 647 OFFCURVE",
"351 647 CURVE SMOOTH"
);
}
);
};
layerId = "083C0576-DCB5-487A-B9F4-85809F200F55";
paths = (
{
closed = 1;
nodes = (
"142 647 OFFCURVE",
"37 528 OFFCURVE",
"37 315 CURVE SMOOTH",
"37 108 OFFCURVE",
"137 -7 OFFCURVE",
"310 -7 CURVE SMOOTH",
"375 -7 OFFCURVE",
"430 9 OFFCURVE",
"486 39 CURVE",
"493 121 LINE",
"483 126 LINE",
"436 88 OFFCURVE",
"377 66 OFFCURVE",
"317 66 CURVE SMOOTH",
"197 66 OFFCURVE",
"126 154 OFFCURVE",
"126 323 CURVE SMOOTH",
"126 490 OFFCURVE",
"196 575 OFFCURVE",
"319 575 CURVE SMOOTH",
"380 575 OFFCURVE",
"430 554 OFFCURVE",
"472 519 CURVE",
"481 521 LINE",
"498 600 LINE",
"450 630 OFFCURVE",
"391 647 OFFCURVE",
"323 647 CURVE SMOOTH"
);
}
);
width = 520;
}
);
leftKerningGroup = O;
rightKerningGroup = C;
unicode = 0043;
},
{
color = 1;
glyphname = D;
lastChange = "2016-10-28 13:24:24 +0000";
layers = (
{
anchors = (
{
name = center;
position = "{327, 321}";
},
{
name = top;
position = "{315, 641}";
}
);
layerId = "EDFD1FE9-67C2-43D2-81E5-EF1682ABC3BD";
paths = (
{
closed = 1;
nodes = (
"92 641 LINE",
"164 571 LINE",
"194 573 OFFCURVE",
"296 576 OFFCURVE",
"320 576 CURVE SMOOTH",
"453 576 OFFCURVE",
"522 494 OFFCURVE",
"522 325 CURVE SMOOTH",
"522 149 OFFCURVE",
"447 60 OFFCURVE",
"316 60 CURVE SMOOTH",
"290 60 OFFCURVE",
"195 64 OFFCURVE",
"161 68 CURVE",
"92 0 LINE",
"148 -3 OFFCURVE",
"263 -6 OFFCURVE",
"302 -6 CURVE",
"500 -6 OFFCURVE",
"610 118 OFFCURVE",
"610 343 CURVE SMOOTH",
"610 538 OFFCURVE",
"509 645 OFFCURVE",
"326 645 CURVE"
);
},
{
closed = 1;
nodes = (
"92 641 LINE",
"96 193 LINE",
"92 0 LINE",
"177 0 LINE",
"174 200 LINE",
"178 641 LINE"
);
}
);
width = 647;
},
{
anchors = (
{
name = center;
position = "{327, 321}";
},
{
name = top;
position = "{315, 641}";
}
);
background = {
paths = (
{
closed = 1;
nodes = (
"92 641 LINE",
"164 571 LINE",
"194 573 OFFCURVE",
"296 576 OFFCURVE",
"320 576 CURVE SMOOTH",
"453 576 OFFCURVE",
"522 494 OFFCURVE",
"522 325 CURVE SMOOTH",
"522 149 OFFCURVE",
"447 60 OFFCURVE",
"316 60 CURVE SMOOTH",
"291 60 OFFCURVE",
"195 64 OFFCURVE",
"162 68 CURVE",
"92 0 LINE",
"148 -3 OFFCURVE",
"263 -6 OFFCURVE",
"302 -6 CURVE",
"500 -6 OFFCURVE",
"610 118 OFFCURVE",
"610 343 CURVE SMOOTH",
"610 538 OFFCURVE",
"509 645 OFFCURVE",
"326 645 CURVE"
);
},
{
closed = 1;
nodes = (
"92 641 LINE",
"96 193 LINE",
"92 0 LINE",
"177 0 LINE",
"175 200 LINE",
"178 641 LINE"
);
}
);
};
layerId = "083C0576-DCB5-487A-B9F4-85809F200F55";
paths = (
{
closed = 1;
nodes = (
"92 641 LINE",
"164 569 LINE",
"194 571 OFFCURVE",
"296 574 OFFCURVE",
"320 574 CURVE SMOOTH",
"453 574 OFFCURVE",
"522 494 OFFCURVE",
"522 325 CURVE SMOOTH",
"522 149 OFFCURVE",
"447 65 OFFCURVE",
"316 65 CURVE SMOOTH",
"291 65 OFFCURVE",
"195 69 OFFCURVE",
"152 74 CURVE",
"92 0 LINE",
"148 -3 OFFCURVE",
"263 -6 OFFCURVE",
"302 -6 CURVE",
"500 -6 OFFCURVE",
"610 118 OFFCURVE",
"610 343 CURVE SMOOTH",
"610 538 OFFCURVE",
"509 645 OFFCURVE",
"326 645 CURVE"
);
},
{
closed = 1;
nodes = (
"91 641 LINE",
"97 193 LINE",
"91 0 LINE",
"178 0 LINE",
"174 200 LINE",
"179 641 LINE"
);
}
);
width = 647;
}
);
leftKerningGroup = H;
rightKerningGroup = O;
unicode = 0044;
},
{
color = 10;
glyphname = Eth;
lastChange = "2016-10-28 13:24:24 +0000";
layers = (
{
components = (
{
alignment = -1;
name = D;
transform = "{1, 0, 0, 1, 22, 0}";
},
{
alignment = -1;
name = endash;
transform = "{0.6542, 0, 0, 1, 22, 68}";
}
);
layerId = "EDFD1FE9-67C2-43D2-81E5-EF1682ABC3BD";
width = 669;
},
{
background = {
paths = (
{
closed = 1;
nodes = (
"518 -12 OFFCURVE",
"670 143 OFFCURVE",
"670 342 CURVE SMOOTH",
"670 516 OFFCURVE",
"533 641 OFFCURVE",
"341 641 CURVE SMOOTH",
"341 641 OFFCURVE",
"235 637 OFFCURVE",
"189 637 CURVE SMOOTH",
"151 637 OFFCURVE",
"84 640 OFFCURVE",
"84 640 CURVE",
"77 596 LINE",
"79 592 LINE",
"79 592 OFFCURVE",
"101 594 OFFCURVE",
"113 594 CURVE SMOOTH",
"143 594 OFFCURVE",
"150 583 OFFCURVE",
"150 540 CURVE SMOOTH",
"149 343 LINE",
"16 343 LINE",
"9 311 LINE",
"16 304 LINE",
"149 304 LINE",
"149 157 LINE SMOOTH",
"149 61 OFFCURVE",
"141 47 OFFCURVE",
"71 34 CURVE",
"65 -12 LINE",
"65 -12 OFFCURVE",
"130 0 OFFCURVE",
"180 0 CURVE SMOOTH",
"231 0 OFFCURVE",
"324 -12 OFFCURVE",
"324 -12 CURVE"
);
},
{
closed = 1;
nodes = (
"236 570 LINE SMOOTH",
"237 588 OFFCURVE",
"244 592 OFFCURVE",
"272 592 CURVE SMOOTH",
"469 592 OFFCURVE",
"579 494 OFFCURVE",
"579 318 CURVE SMOOTH",
"579 145 OFFCURVE",
"491 39 OFFCURVE",
"347 39 CURVE SMOOTH",
"247 39 OFFCURVE",
"221 58 OFFCURVE",
"221 131 CURVE SMOOTH",
"226 304 LINE",
"396 304 LINE",
"402 336 LINE",
"397 343 LINE",
"227 343 LINE"
);
}
);
};
components = (
{
alignment = -1;
name = D;
transform = "{1, 0, 0, 1, 22, 0}";
},
{
alignment = -1;
name = endash;
transform = "{0.654, 0, 0, 1, 22, 68}";
}
);
layerId = "083C0576-DCB5-487A-B9F4-85809F200F55";
width = 669;
}
);
leftKerningGroup = H;
rightKerningGroup = O;
unicode = 00D0;
},
{
color = 10;
glyphname = Dcroat;
lastChange = "2016-10-28 13:24:24 +0000";
layers = (
{
components = (
{
name = Eth;
}
);
layerId = "EDFD1FE9-67C2-43D2-81E5-EF1682ABC3BD";
width = 669;
},
{
background = {
paths = (
{
closed = 1;
nodes = (
"518 -12 OFFCURVE",
"670 143 OFFCURVE",
"670 342 CURVE SMOOTH",
"670 516 OFFCURVE",
"533 641 OFFCURVE",
"341 641 CURVE SMOOTH",
"341 641 OFFCURVE",
"235 637 OFFCURVE",
"189 637 CURVE SMOOTH",
"151 637 OFFCURVE",
"84 640 OFFCURVE",
"84 640 CURVE",
"77 596 LINE",
"79 592 LINE",
"79 592 OFFCURVE",
"101 594 OFFCURVE",
"113 594 CURVE SMOOTH",
"143 594 OFFCURVE",
"150 583 OFFCURVE",
"150 540 CURVE SMOOTH",
"149 343 LINE",
"16 343 LINE",
"9 311 LINE",
"16 304 LINE",
"149 304 LINE",
"149 157 LINE SMOOTH",
"149 61 OFFCURVE",
"141 47 OFFCURVE",
"71 34 CURVE",
"65 -12 LINE",
"65 -12 OFFCURVE",
"130 0 OFFCURVE",
"180 0 CURVE SMOOTH",
"231 0 OFFCURVE",
"324 -12 OFFCURVE",
"324 -12 CURVE"
);
},
{
closed = 1;
nodes = (
"236 570 LINE SMOOTH",
"237 588 OFFCURVE",
"244 592 OFFCURVE",
"272 592 CURVE SMOOTH",
"469 592 OFFCURVE",
"579 494 OFFCURVE",
"579 318 CURVE SMOOTH",
"579 145 OFFCURVE",
"491 39 OFFCURVE",
"347 39 CURVE SMOOTH",
"247 39 OFFCURVE",
"221 58 OFFCURVE",
"221 131 CURVE SMOOTH",
"226 304 LINE",
"396 304 LINE",
"402 336 LINE",
"397 343 LINE",
"227 343 LINE"
);
}
);
};
components = (
{
name = Eth;
}
);
layerId = "083C0576-DCB5-487A-B9F4-85809F200F55";
width = 669;
}
);
leftKerningGroup = H;
rightKerningGroup = O;
unicode = 0110;
},
{
color = 1;
glyphname = E;
lastChange = "2016-10-28 13:24:24 +0000";
layers = (
{
anchors = (
{
name = bottom;
position = "{282, 0}";
},
{
name = ogonek;
position = "{469, 10}";
},
{
name = top;
position = "{275, 641}";
}
);
layerId = "EDFD1FE9-67C2-43D2-81E5-EF1682ABC3BD";
paths = (
{
closed = 1;
nodes = (
"92 641 LINE",
"96 193 LINE",
"92 0 LINE",
"177 0 LINE",
"174 200 LINE",
"178 641 LINE"
);
},
{
closed = 1;
nodes = (
"294 68 LINE",
"149 68 LINE",
"147 7 LINE",
"149 0 LINE",
"455 0 LINE",
"462 63 LINE",
"456 71 LINE"
);
},
{
closed = 1;
nodes = (
"296 362 LINE",
"153 362 LINE",
"150 301 LINE",
"153 294 LINE",
"288 294 LINE",
"401 293 LINE",
"407 356 LINE",
"402 363 LINE"
);
},
{
closed = 1;
nodes = (
"149 641 LINE",
"147 579 LINE",
"149 572 LINE",
"304 572 LINE",
"455 570 LINE",
"462 633 LINE",
"456 641 LINE"
);
}
);
width = 485;
},
{
anchors = (
{
name = bottom;
position = "{282, 0}";
},
{
name = ogonek;
position = "{469, 10}";
},
{
name = top;
position = "{275, 641}";
}
);
background = {
paths = (
{
closed = 1;
nodes = (
"151 291 LINE",
"322 294 LINE",
"507 291 LINE",
"507 365 LINE",
"329 362 LINE",
"151 365 LINE"
);
}
);
};
layerId = "083C0576-DCB5-487A-B9F4-85809F200F55";
paths = (
{
closed = 1;
nodes = (
"91 641 LINE",
"97 193 LINE",
"91 0 LINE",
"178 0 LINE",
"174 200 LINE",
"179 641 LINE"
);
},
{
closed = 1;
nodes = (
"304 70 LINE",
"150 72 LINE",
"147 7 LINE",
"150 0 LINE",
"456 0 LINE",
"462 67 LINE",
"457 75 LINE"
);
},
{
closed = 1;
nodes = (
"295 362 LINE",
"153 364 LINE",
"150 299 LINE",
"153 292 LINE",
"288 294 LINE",
"400 291 LINE",
"407 358 LINE",
"401 365 LINE"
);
},
{
closed = 1;
nodes = (
"150 641 LINE",
"147 575 LINE",
"150 568 LINE",
"304 570 LINE",
"455 566 LINE",
"462 633 LINE",
"457 641 LINE"
);
}
);
width = 485;
}
);
leftKerningGroup = H;
rightKerningGroup = E;
unicode = 0045;
},
{
color = 1;
glyphname = F;
lastChange = "2016-10-28 13:24:24 +0000";
layers = (
{
layerId = "EDFD1FE9-67C2-43D2-81E5-EF1682ABC3BD";
paths = (
{
closed = 1;
nodes = (
"92 641 LINE",
"96 193 LINE",
"92 0 LINE",
"177 0 LINE",
"174 200 LINE",
"178 641 LINE"
);
},
{
closed = 1;
nodes = (
"282 347 LINE",
"153 347 LINE",
"153 279 LINE",
"274 279 LINE",
"386 277 LINE",
"393 340 LINE",
"387 348 LINE"
);
},
{
closed = 1;
nodes = (
"149 641 LINE",
"147 579 LINE",
"149 572 LINE",
"289 572 LINE",
"436 570 LINE",
"444 633 LINE",
"438 641 LINE"
);
}
);
width = 436;
},
{
background = {
paths = (
{
closed = 1;
nodes = (
"295 362 LINE",
"153 364 LINE",
"150 299 LINE",
"153 292 LINE",
"288 294 LINE",
"400 291 LINE",
"407 358 LINE",
"401 365 LINE"
);
},
{
closed = 1;
nodes = (
"150 641 LINE",
"147 575 LINE",
"150 568 LINE",
"304 570 LINE",
"455 566 LINE",
"462 633 LINE",
"457 641 LINE"
);
}
);
};
layerId = "083C0576-DCB5-487A-B9F4-85809F200F55";
paths = (
{
closed = 1;
nodes = (
"91 641 LINE",
"97 193 LINE",
"91 0 LINE",
"178 0 LINE",
"174 200 LINE",
"179 641 LINE"
);
},
{
closed = 1;
nodes = (
"282 349 LINE",
"153 351 LINE",
"153 280 LINE",
"274 281 LINE",
"386 278 LINE",
"393 344 LINE",
"387 352 LINE"
);
},
{
closed = 1;
nodes = (
"149 641 LINE",
"146 575 LINE",
"149 568 LINE",
"288 570 LINE",
"436 564 LINE",
"443 633 LINE",
"437 641 LINE"
);
}
);
width = 436;
}
);
leftKerningGroup = H;
rightKerningGroup = F;
unicode = 0046;
},
{
color = 1;
glyphname = G;
lastChange = "2016-10-28 13:24:24 +0000";
layers = (
{
anchors = (
{
name = bottom;
position = "{307, 0}";
},
{
name = top;
position = "{326, 641}";
}
);
layerId = "EDFD1FE9-67C2-43D2-81E5-EF1682ABC3BD";
paths = (
{
closed = 1;
nodes = (
"152 647 OFFCURVE",
"37 529 OFFCURVE",
"37 312 CURVE SMOOTH",
"37 108 OFFCURVE",
"134 -8 OFFCURVE",
"317 -8 CURVE SMOOTH",
"390 -6 OFFCURVE",
"449 4 OFFCURVE",
"534 31 CURVE",
"534 176 LINE",
"535 259 LINE",
"456 253 LINE",
"457 164 LINE",
"457 80 LINE",
"399.994 64.994 OFFCURVE",
"369 60 OFFCURVE",
"323 60 CURVE SMOOTH",
"190 60 OFFCURVE",
"125 141 OFFCURVE",
"125 315 CURVE SMOOTH",
"125 494 OFFCURVE",
"199 577 OFFCURVE",
"343 577 CURVE SMOOTH",
"399 577 OFFCURVE",
"452 559 OFFCURVE",
"510 526 CURVE",
"520 526 LINE",
"540 602 LINE",
"484 631 OFFCURVE",
"419 647 OFFCURVE",
"357 647 CURVE SMOOTH"
);
}
);
width = 600;
},
{
anchors = (
{
name = bottom;
position = "{307, 0}";
},
{
name = top;
position = "{326, 641}";
}
);
background = {
paths = (
{
closed = 1;
nodes = (
"147 647 OFFCURVE",
"43 528 OFFCURVE",
"43 317 CURVE SMOOTH",
"43 108 OFFCURVE",
"139 -7 OFFCURVE",
"322 -7 CURVE SMOOTH",
"378 -7 OFFCURVE",
"439 10 OFFCURVE",
"492 42 CURVE",
"499 121 LINE",
"489 126 LINE",
"442 88 OFFCURVE",
"381 66 OFFCURVE",
"327 66 CURVE SMOOTH",
"200 66 OFFCURVE",
"132 155 OFFCURVE",
"132 325 CURVE SMOOTH",
"132 490 OFFCURVE",
"200 575 OFFCURVE",
"330 575 CURVE SMOOTH",
"382 575 OFFCURVE",
"437 554 OFFCURVE",
"478 519 CURVE",
"487 521 LINE",
"504 600 LINE",
"456 630 OFFCURVE",
"395 647 OFFCURVE",
"333 647 CURVE SMOOTH"
);
}
);
};
layerId = "083C0576-DCB5-487A-B9F4-85809F200F55";
paths = (
{
closed = 1;
nodes = (
"152 647 OFFCURVE",
"37 529 OFFCURVE",
"37 307 CURVE SMOOTH",
"37 108 OFFCURVE",
"129 -7 OFFCURVE",
"326 -7 CURVE SMOOTH",
"387 -7 OFFCURVE",
"451 4 OFFCURVE",
"538 31 CURVE",
"534 172 LINE",
"536 259 LINE",
"455 253 LINE",
"457 160 LINE",
"454 89 LINE",
"397 71 OFFCURVE",
"366 66 OFFCURVE",
"330 66 CURVE SMOOTH",
"191 66 OFFCURVE",
"126 140 OFFCURVE",
"126 311 CURVE SMOOTH",
"126 492 OFFCURVE",
"199 575 OFFCURVE",
"338 575 CURVE SMOOTH",
"398 575 OFFCURVE",
"447 559 OFFCURVE",
"512 519 CURVE",
"522 521 LINE",
"540 602 LINE",
"477 634 OFFCURVE",
"417 647 OFFCURVE",
"351 647 CURVE SMOOTH"
);
}
);
width = 600;
}
);
leftKerningGroup = O;
rightKerningGroup = G;
unicode = 0047;
},
{
color = 1;
glyphname = H;
lastChange = "2016-10-28 13:24:24 +0000";
layers = (
{
anchors = (
{
name = center;
position = "{339, 321}";
},
{
name = top;
position = "{339, 641}";
}
);
layerId = "EDFD1FE9-67C2-43D2-81E5-EF1682ABC3BD";
paths = (
{
closed = 1;
nodes = (
"506 641 LINE",
"510 193 LINE",
"506 0 LINE",
"591 0 LINE",
"589 200 LINE",
"593 641 LINE"
);
},
{
closed = 1;
nodes = (
"92 641 LINE",
"96 193 LINE",
"92 0 LINE",
"177 0 LINE",
"174 200 LINE",
"178 641 LINE"
);
},
{
closed = 1;
nodes = (
"163 287 LINE",
"335 288 LINE",
"520 287 LINE",
"520 359 LINE",
"342 358 LINE",
"163 359 LINE"
);
}
);
width = 685;
},
{
anchors = (
{
name = center;
position = "{339, 321}";
},
{
name = top;
position = "{339, 641}";
}
);
background = {
paths = (
{
closed = 1;
nodes = (
"509 641 LINE",
"509 193 LINE",
"509 0 LINE",
"591 0 LINE",
"591 200 LINE",
"591 641 LINE"
);
},
{
closed = 1;
nodes = (
"91 641 LINE",
"97 193 LINE",
"91 0 LINE",
"178 0 LINE",
"174 200 LINE",
"179 641 LINE"
);
},
{
closed = 1;
nodes = (
"163 289 LINE",
"334 289 LINE",
"509 289 LINE",
"509 359 LINE",
"341 359 LINE",
"163 359 LINE"
);
}
);
};
layerId = "083C0576-DCB5-487A-B9F4-85809F200F55";
paths = (
{
closed = 1;
nodes = (
"506 641 LINE",
"510 193 LINE",
"506 0 LINE",
"591 0 LINE",
"589 200 LINE",
"593 641 LINE"
);
},
{
closed = 1;
nodes = (
"92 641 LINE",
"96 193 LINE",
"92 0 LINE",
"177 0 LINE",
"174 200 LINE",
"178 641 LINE"
);
},
{
closed = 1;
nodes = (
"163 287 LINE",
"335 288 LINE",
"520 287 LINE",
"520 359 LINE",
"342 358 LINE",
"163 359 LINE"
);
}
);
width = 685;
}
);
leftKerningGroup = H;
rightKerningGroup = H;
unicode = 0048;
},
{
color = 0;
glyphname = Hbar;
lastChange = "2016-10-28 13:24:24 +0000";
layers = (
{
components = (
{
name = H;
transform = "{1, 0, 0, 1, 14, 0}";
}
);
layerId = "EDFD1FE9-67C2-43D2-81E5-EF1682ABC3BD";
paths = (
{
closed = 1;
nodes = (
"42 529 LINE",
"39 485 LINE",
"44 480 LINE",
"674 480 LINE",
"677 523 LINE",
"672 529 LINE"
);
}
);
width = 716;
},
{
background = {
components = (
{
name = H;
transform = "{1, 0, 0, 1, -2, 0}";
}
);
paths = (
{
closed = 1;
nodes = (
"256 495 OFFCURVE",
"49 496 OFFCURVE",
"49 496 CURVE",
"42 457 LINE",
"51 448 LINE",
"51 448 OFFCURVE",
"233 449 OFFCURVE",
"374 449 CURVE SMOOTH",
"703 450 LINE",
"707 487 LINE",
"694 500 LINE",
"694 500 OFFCURVE",
"516 495 OFFCURVE",
"396 495 CURVE SMOOTH"
);
}
);
};
components = (
{
name = H;
transform = "{1, 0, 0, 1, 14, 0}";
}
);
layerId = "083C0576-DCB5-487A-B9F4-85809F200F55";
paths = (
{
closed = 1;
nodes = (
"43 537 LINE",
"39 482 LINE",
"44 477 LINE",
"674 477 LINE",
"678 531 LINE",
"673 537 LINE"
);
}
);
width = 716;
}
);
leftKerningGroup = H;
rightKerningGroup = H;
unicode = 0126;
},
{
color = 1;
glyphname = I;
lastChange = "2016-10-28 13:24:24 +0000";
layers = (
{
anchors = (
{
name = ogonek;
position = "{234, 10}";
},
{
name = top;
position = "{135, 641}";
}
);
layerId = "EDFD1FE9-67C2-43D2-81E5-EF1682ABC3BD";
paths = (
{
closed = 1;
nodes = (
"92 641 LINE",
"96 193 LINE",
"92 0 LINE",
"177 0 LINE",
"174 200 LINE",
"178 641 LINE"
);
}
);
width = 271;
},
{
anchors = (
{
name = ogonek;
position = "{234, 10}";
},
{
name = top;
position = "{135, 641}";
}
);
background = {
paths = (
{
closed = 1;
nodes = (
"92 641 LINE",
"96 193 LINE",
"92 0 LINE",
"177 0 LINE",
"175 200 LINE",
"178 641 LINE"
);
}
);
};
layerId = "083C0576-DCB5-487A-B9F4-85809F200F55";
paths = (
{
closed = 1;
nodes = (
"91 641 LINE",
"97 193 LINE",
"91 0 LINE",
"178 0 LINE",
"174 200 LINE",
"179 641 LINE"
);
}
);
width = 271;
}
);
leftKerningGroup = H;
rightKerningGroup = H;
unicode = 0049;
},
{
color = 0;
glyphname = Iogonek;
lastChange = "2016-10-28 13:24:24 +0000";
layers = (
{
components = (
{
name = I;
}
);
layerId = "EDFD1FE9-67C2-43D2-81E5-EF1682ABC3BD";
paths = (
{
closed = 1;
nodes = (
"92 0 LINE",
"51 -62 OFFCURVE",
"30 -100 OFFCURVE",
"30 -132 CURVE SMOOTH",
"30 -168 OFFCURVE",
"56 -197 OFFCURVE",
"99 -197 CURVE SMOOTH",
"129 -197 OFFCURVE",
"154 -182 OFFCURVE",
"180 -149 CURVE",
"166 -113 LINE",
"162 -113 LINE",
"148 -136 OFFCURVE",
"129 -149 OFFCURVE",
"109 -149 CURVE SMOOTH",
"88 -149 OFFCURVE",
"78 -136 OFFCURVE",
"78 -120 CURVE SMOOTH",
"78 -99 OFFCURVE",
"96 -62 OFFCURVE",
"140 4 CURVE"
);
}
);
width = 271;
},
{
background = {
paths = (
{
closed = 1;
nodes = (
"108 2 LINE",
"66 -58 OFFCURVE",
"54 -87 OFFCURVE",
"54 -118 CURVE SMOOTH",
"54 -167 OFFCURVE",
"85 -197 OFFCURVE",
"132 -197 CURVE SMOOTH",
"169 -197 OFFCURVE",
"201 -178 OFFCURVE",
"233 -144 CURVE",
"222 -104 LINE",
"217 -104 LINE",
"194 -126 OFFCURVE",
"168 -140 OFFCURVE",
"143 -140 CURVE SMOOTH",
"121 -140 OFFCURVE",
"110 -129 OFFCURVE",
"110 -106 CURVE SMOOTH",
"110 -83 OFFCURVE",
"121 -57 OFFCURVE",
"161 2 CURVE"
);
}
);
};
components = (
{
name = I;
}
);
layerId = "083C0576-DCB5-487A-B9F4-85809F200F55";
paths = (
{
closed = 1;
nodes = (
"91 0 LINE",
"49 -59 OFFCURVE",
"37 -87 OFFCURVE",
"37 -118 CURVE SMOOTH",
"37 -167 OFFCURVE",
"68 -197 OFFCURVE",
"114 -197 CURVE SMOOTH",
"140 -197 OFFCURVE",
"163 -187 OFFCURVE",
"184 -168 CURVE",
"175 -118 LINE",
"168 -118 LINE",
"155 -131 OFFCURVE",
"141 -140 OFFCURVE",
"125 -140 CURVE SMOOTH",
"106 -140 OFFCURVE",
"93 -129 OFFCURVE",
"93 -105 CURVE SMOOTH",
"93 -83 OFFCURVE",
"104 -57 OFFCURVE",
"144 0 CURVE"
);
}
);
width = 271;
}
);
leftKerningGroup = H;
rightKerningGroup = H;
unicode = 012E;
},
{
color = 1;
glyphname = J;
lastChange = "2016-10-28 13:24:24 +0000";
layers = (
{
anchors = (
{
name = top;
position = "{128, 641}";
}
);
layerId = "EDFD1FE9-67C2-43D2-81E5-EF1682ABC3BD";
paths = (
{
closed = 1;
nodes = (
"126 641 LINE",
"129 203 LINE",
"129 119 LINE SMOOTH",
"129 45 OFFCURVE",
"99 -2 OFFCURVE",
"19 -49 CURVE",
"19 -59 LINE",
"45 -103 LINE",
"166 -46 OFFCURVE",
"209 14 OFFCURVE",
"209 118 CURVE SMOOTH",
"208 212 LINE",
"212 641 LINE"
);
},
{
closed = 1;
nodes = (
"12 641 LINE",
"8 583 LINE",
"14 576 LINE",
"140 577 LINE",
"140 641 LINE"
);
}
);
width = 302;
},
{
anchors = (
{
name = top;
position = "{135, 641}";
}
);
background = {
paths = (
{
closed = 1;
nodes = (
"105 641 LINE",
"111 193 LINE",
"105 0 LINE",
"192 0 LINE",
"188 200 LINE",
"193 641 LINE"
);
}
);
};
layerId = "083C0576-DCB5-487A-B9F4-85809F200F55";
paths = (
{
closed = 1;
nodes = (
"136 641 LINE",
"141 204 LINE",
"141 117 LINE SMOOTH",
"141 42 OFFCURVE",
"103 4 OFFCURVE",
"13 -44 CURVE",
"13 -54 LINE",
"46 -102 LINE",
"174 -42 OFFCURVE",
"220 17 OFFCURVE",
"220 118 CURVE",
"218 212 LINE",
"223 641 LINE"
);
},
{
closed = 1;
nodes = (
"11 641 LINE",
"6 578 LINE",
"14 571 LINE",
"152 572 LINE",
"151 641 LINE"
);
}
);
width = 314;
}
);
leftKerningGroup = J;
rightKerningGroup = H;
unicode = 004A;
},
{
color = 0;
glyphname = K;
lastChange = "2016-10-28 13:24:24 +0000";
layers = (
{
anchors = (
{
name = bottom;
position = "{288, 0}";
},
{
name = top;
position = "{276, 641}";
}
);
layerId = "EDFD1FE9-67C2-43D2-81E5-EF1682ABC3BD";
paths = (
{
closed = 1;
nodes = (
"438 641 LINE",
"398 585 LINE",
"187 342 LINE",
"187 336 LINE",
"272 219 OFFCURVE",
"365 105 OFFCURVE",
"459 -4 CURVE",
"470 -9 LINE",
"497 -5 OFFCURVE",
"525 0 OFFCURVE",
"551 8 CURVE",
"552 18 LINE",
"456 119 OFFCURVE",
"361 230 OFFCURVE",
"277 340 CURVE",
"534 641 LINE"
);
},
{
closed = 1;
nodes = (
"92 641 LINE",
"96 193 LINE",
"92 0 LINE",
"177 0 LINE",
"174 200 LINE",
"178 641 LINE"
);
}
);
width = 551;
},
{
anchors = (
{
name = bottom;
position = "{288, 0}";
},
{
name = top;
position = "{276, 641}";
}
);
background = {
paths = (
{
closed = 1;
nodes = (
"142 120 LINE SMOOTH",
"142 63 OFFCURVE",
"129 50 OFFCURVE",
"67 44 CURVE",
"57 -1 LINE",
"57 -1 OFFCURVE",
"122 0 OFFCURVE",
"172 0 CURVE SMOOTH",
"216 0 OFFCURVE",
"295 -3 OFFCURVE",
"295 -3 CURVE",
"304 43 LINE",
"302 47 LINE",
"302 47 OFFCURVE",
"277 44 OFFCURVE",
"257 44 CURVE SMOOTH",
"222 44 OFFCURVE",
"211 58 OFFCURVE",
"213 112 CURVE SMOOTH",
"225 541 LINE SMOOTH",
"226 579 OFFCURVE",
"241 593 OFFCURVE",
"291 601 CURVE",
"295 646 LINE",
"295 646 OFFCURVE",
"231 637 OFFCURVE",
"188 637 CURVE SMOOTH",
"150 637 OFFCURVE",
"77 640 OFFCURVE",
"77 640 CURVE",
"70 596 LINE",
"72 592 LINE",
"72 592 OFFCURVE",
"94 594 OFFCURVE",
"106 594 CURVE SMOOTH",
"136 594 OFFCURVE",
"143 583 OFFCURVE",
"143 540 CURVE SMOOTH"
);
},
{
closed = 1;
nodes = (
"242 315 LINE",
"417 72 LINE SMOOTH",
"456 18 OFFCURVE",
"496 -14 OFFCURVE",
"529 -14 CURVE SMOOTH",
"540 -14 OFFCURVE",
"612 -2 OFFCURVE",
"612 -2 CURVE",
"618 32 LINE",
"614 36 LINE",
"567 36 OFFCURVE",
"534 59 OFFCURVE",
"486 121 CURVE SMOOTH",
"318 340 LINE",
"479 509 LINE SMOOTH",
"539 571 OFFCURVE",
"559 586 OFFCURVE",
"594 593 CURVE",
"601 634 LINE",
"597 641 LINE",
"597 641 OFFCURVE",
"544 637 OFFCURVE",
"505 637 CURVE SMOOTH",
"468 637 OFFCURVE",
"395 644 OFFCURVE",
"395 644 CURVE",
"388 601 LINE",
"390 597 LINE",
"433 594 OFFCURVE",
"453 584 OFFCURVE",
"453 567 CURVE SMOOTH",
"453 553 OFFCURVE",
"443 536 OFFCURVE",
"422 515 CURVE SMOOTH",
"243 329 LINE"
);
}
);
};
layerId = "083C0576-DCB5-487A-B9F4-85809F200F55";
paths = (
{
closed = 1;
nodes = (
"436 641 LINE",
"397 585 LINE",
"186 341 LINE",
"186 335 LINE",
"271 218 OFFCURVE",
"364 105 OFFCURVE",
"458 -4 CURVE",
"468 -9 LINE",
"496 -5 OFFCURVE",
"523 0 OFFCURVE",
"550 8 CURVE",
"551 18 LINE",
"455 119 OFFCURVE",
"361 230 OFFCURVE",
"277 340 CURVE",
"533 641 LINE"
);
},
{
closed = 1;
nodes = (
"90 641 LINE",
"96 193 LINE",
"90 0 LINE",
"177 0 LINE",
"173 200 LINE",
"178 641 LINE"
);
}
);
width = 550;
}
);
leftKerningGroup = H;
rightKerningGroup = X;
unicode = 004B;
},
{
color = 1;
glyphname = L;
lastChange = "2016-10-28 13:24:24 +0000";
layers = (
{
anchors = (
{
name = bottom;
position = "{235, 0}";
},
{
name = top;
position = "{205, 641}";
}
);
layerId = "EDFD1FE9-67C2-43D2-81E5-EF1682ABC3BD";
paths = (
{
closed = 1;
nodes = (
"89 641 LINE",
"93 193 LINE",
"89 0 LINE",
"175 0 LINE",
"172 200 LINE",
"176 641 LINE"
);
},
{
closed = 1;
nodes = (
"141 72 LINE",
"139 7 LINE",
"141 0 LINE",
"407 0 LINE",
"414 64 LINE",
"408 72 LINE"
);
}
);
width = 418;
},
{
anchors = (
{
name = bottom;
position = "{235, 0}";
},
{
name = top;
position = "{205, 641}";
}
);
background = {
paths = (
{
closed = 1;
nodes = (
"89 641 LINE",
"93 193 LINE",
"89 0 LINE",
"174 0 LINE",
"172 200 LINE",
"175 641 LINE"
);
},
{
closed = 1;
nodes = (
"142 72 LINE",
"139 7 LINE",
"142 0 LINE",
"408 0 LINE",
"415 64 LINE",
"409 72 LINE"
);
}
);
};
layerId = "083C0576-DCB5-487A-B9F4-85809F200F55";
paths = (
{
closed = 1;
nodes = (
"88 641 LINE",
"94 193 LINE",
"88 0 LINE",
"175 0 LINE",
"171 200 LINE",
"176 641 LINE"
);
},
{
closed = 1;
nodes = (
"142 72 LINE",
"139 7 LINE",
"142 0 LINE",
"408 0 LINE",
"415 64 LINE",
"409 72 LINE"
);
}
);
width = 418;
}
);
leftKerningGroup = H;
rightKerningGroup = L;
unicode = 004C;
},
{
color = 0;
glyphname = Lcaron;
lastChange = "2016-10-28 13:24:24 +0000";
layers = (
{
components = (
{
name = L;
},
{
name = caron.alt;
transform = "{1, 0, 0, 1, 175, -105}";
}
);
layerId = "EDFD1FE9-67C2-43D2-81E5-EF1682ABC3BD";
paths = (
{
closed = 0;
nodes = (
"216 197 LINE"
);
}
);
width = 449;
},
{
background = {
components = (
{
name = L;
}
);
paths = (
{
closed = 1;
nodes = (
"480 633 LINE",
"410 619 LINE",
"410 619 OFFCURVE",
"420 511 OFFCURVE",
"416 401 CURVE",
"427 399 LINE",
"452 413 LINE",
"473 515 OFFCURVE",
"487 625 OFFCURVE",
"487 625 CURVE"
);
}
);
};
components = (
{
name = L;
},
{
name = caron.alt;
transform = "{1, 0, 0, 1, 150, -109}";
}
);
layerId = "083C0576-DCB5-487A-B9F4-85809F200F55";
paths = (
{
closed = 0;
nodes = (
"216 197 LINE"
);
}
);
width = 426;
}
);
leftKerningGroup = H;
rightKerningGroup = L;
unicode = 013D;
},
{
color = 0;
glyphname = Lslash;
lastChange = "2016-10-28 13:24:24 +0000";
layers = (
{
components = (
{
name = L;
transform = "{1, 0, 0, 1, 14, 0}";
}
);
layerId = "EDFD1FE9-67C2-43D2-81E5-EF1682ABC3BD";
paths = (
{
closed = 1;
nodes = (
"9 303 LINE",
"25 252 LINE",
"35 247 LINE",
"340 408 LINE",
"324 459 LINE",
"314 463 LINE"
);
}
);
width = 431;
},
{
background = {
components = (
{
name = L;
}
);
paths = (
{
closed = 1;
nodes = (
"190 309 LINE",
"411 418 LINE",
"406 449 LINE",
"398 454 LINE",
"190 351 LINE",
"190 357 LINE",
"61 293 LINE",
"66 261 LINE",
"75 258 LINE",
"190 315 LINE"
);
}
);
};
components = (
{
name = L;
transform = "{1, 0, 0, 1, 14, 0}";
}
);
layerId = "083C0576-DCB5-487A-B9F4-85809F200F55";
paths = (
{
closed = 1;
nodes = (
"9 303 LINE",
"25 252 LINE",
"35 247 LINE",
"340 408 LINE",
"324 459 LINE",
"314 463 LINE"
);
}
);
width = 431;
}
);
leftKerningGroup = H;
rightKerningGroup = L;
unicode = 0141;
},
{
color = 1;
glyphname = M;
lastChange = "2016-10-28 13:24:24 +0000";
layers = (
{
layerId = "EDFD1FE9-67C2-43D2-81E5-EF1682ABC3BD";
paths = (
{
closed = 1;
nodes = (
"571 641 LINE",
"539 549 LINE",
"397 186 LINE",
"390 186 LINE",
"256 544 LINE",
"224 641 LINE",
"125 641 LINE",
"58 0 LINE",
"132 0 LINE",
"149 202 LINE",
"181 506 LINE",
"189 506 LINE",
"354 74 LINE",
"424 74 LINE",
"599 506 LINE",
"606 506 LINE",
"638 195 LINE",
"653 0 LINE",
"730 0 LINE",
"668 641 LINE"
);
}
);
width = 790;
},
{
background = {
paths = (
{
closed = 1;
nodes = (
"421 -12 LINE",
"485 165 OFFCURVE",
"550 343 OFFCURVE",
"614 520 CURVE",
"619 520 LINE",
"619 520 OFFCURVE",
"653 122 OFFCURVE",
"653 88 CURVE SMOOTH",
"653 58 OFFCURVE",
"635 43 OFFCURVE",
"594 38 CURVE",
"590 -8 LINE",
"590 -8 OFFCURVE",
"651 0 OFFCURVE",
"694 0 CURVE SMOOTH",
"730 0 OFFCURVE",
"789 -3 OFFCURVE",
"789 -3 CURVE",
"798 42 LINE",
"796 46 LINE",
"796 46 OFFCURVE",
"780 44 OFFCURVE",
"768 44 CURVE SMOOTH",
"736 44 OFFCURVE",
"728 61 OFFCURVE",
"719 139 CURVE",
"708 279 OFFCURVE",
"693 518 OFFCURVE",
"693 547 CURVE SMOOTH",
"693 580 OFFCURVE",
"714 595 OFFCURVE",
"772 602 CURVE",
"777 639 LINE",
"775 643 LINE",
"775 643 OFFCURVE",
"697 637 OFFCURVE",
"667 637 CURVE SMOOTH",
"647 637 OFFCURVE",
"601 640 OFFCURVE",
"601 639 CURVE SMOOTH",
"506 352 OFFCURVE",
"428 145 OFFCURVE",
"428 145 CURVE",
"423 145 LINE",
"423 145 OFFCURVE",
"344 350 OFFCURVE",
"254 641 CURVE",
"254 641 OFFCURVE",
"215 637 OFFCURVE",
"186 637 CURVE SMOOTH",
"154 637 OFFCURVE",
"77 642 OFFCURVE",
"77 642 CURVE",
"69 607 LINE",
"72 602 LINE",
"133 598 OFFCURVE",
"159 582 OFFCURVE",
"159 547 CURVE SMOOTH",
"159 517 OFFCURVE",
"123 188 OFFCURVE",
"115 115 CURVE SMOOTH",
"109 61 OFFCURVE",
"93 43 OFFCURVE",
"51 38 CURVE",
"46 -8 LINE",
"46 -8 OFFCURVE",
"92 0 OFFCURVE",
"132 0 CURVE SMOOTH",
"165 0 OFFCURVE",
"229 -4 OFFCURVE",
"229 -4 CURVE",
"238 41 LINE",
"236 45 LINE",
"236 45 OFFCURVE",
"205 44 OFFCURVE",
"195 44 CURVE SMOOTH",
"174 44 OFFCURVE",
"164 54 OFFCURVE",
"164 75 CURVE SMOOTH",
"164 101 OFFCURVE",
"198 520 OFFCURVE",
"198 520 CURVE",
"203 520 LINE",
"268 340 OFFCURVE",
"332 161 OFFCURVE",
"397 -19 CURVE"
);
}
);
};
layerId = "083C0576-DCB5-487A-B9F4-85809F200F55";
paths = (
{
closed = 1;
nodes = (
"571 641 LINE",
"539 549 LINE",
"397 185 LINE",
"390 185 LINE",
"255 544 LINE",
"223 641 LINE",
"125 641 LINE",
"58 0 LINE",
"131 0 LINE",
"148 202 LINE",
"181 507 LINE",
"189 507 LINE",
"354 73 LINE",
"424 73 LINE",
"599 507 LINE",
"606 507 LINE",
"639 195 LINE",
"653 0 LINE",
"730 0 LINE",
"668 641 LINE"
);
}
);
width = 790;
}
);
leftKerningGroup = M;
rightKerningGroup = M;
unicode = 004D;
},
{
color = 1;
glyphname = N;
lastChange = "2016-10-28 13:24:24 +0000";
layers = (
{
anchors = (
{
name = bottom;
position = "{339, 0}";
},
{
name = top;
position = "{340, 641}";
}
);
layerId = "EDFD1FE9-67C2-43D2-81E5-EF1682ABC3BD";
paths = (
{
closed = 1;
nodes = (
"513 637 LINE",
"514 136 LINE",
"507 136 LINE",
"183 641 LINE",
"93 641 LINE",
"96 190 LINE",
"92 0 LINE",
"170 0 LINE",
"168 212 LINE",
"169 505 LINE",
"175 505 LINE",
"499 0 LINE",
"590 0 LINE",
"588 189 LINE",
"593 643 LINE"
);
}
);
width = 684;
},
{
anchors = (
{
name = bottom;
position = "{339, 0}";
},
{
name = top;
position = "{340, 641}";
}
);
background = {
paths = (
{
closed = 1;
nodes = (
"551 145 LINE",
"551 145 OFFCURVE",
"381 383 OFFCURVE",
"215 641 CURVE",
"215 641 OFFCURVE",
"181 637 OFFCURVE",
"148 637 CURVE SMOOTH",
"120 637 OFFCURVE",
"62 642 OFFCURVE",
"62 642 CURVE",
"54 605 LINE",
"57 600 LINE",
"124 593 OFFCURVE",
"144 579 OFFCURVE",
"144 538 CURVE",
"131 101 LINE SMOOTH",
"130 60 OFFCURVE",
"110 43 OFFCURVE",
"69 38 CURVE",
"64 -8 LINE",
"64 -8 OFFCURVE",
"117 0 OFFCURVE",
"157 0 CURVE SMOOTH",
"200 0 OFFCURVE",
"263 -4 OFFCURVE",
"263 -4 CURVE",
"272 41 LINE",
"270 45 LINE",
"270 45 OFFCURVE",
"229 44 OFFCURVE",
"219 44 CURVE SMOOTH",
"196 44 OFFCURVE",
"188 54 OFFCURVE",
"188 84 CURVE SMOOTH",
"193 511 LINE",
"198 511 LINE",
"198 511 OFFCURVE",
"375 264 OFFCURVE",
"570 -40 CURVE",
"599 -26 LINE",
"613 536 LINE SMOOTH",
"614 575 OFFCURVE",
"635 593 OFFCURVE",
"681 599 CURVE",
"686 645 LINE",
"686 645 OFFCURVE",
"629 637 OFFCURVE",
"587 637 CURVE SMOOTH",
"553 637 OFFCURVE",
"492 641 OFFCURVE",
"492 641 CURVE",
"483 596 LINE",
"485 592 LINE",
"485 592 OFFCURVE",
"505 593 OFFCURVE",
"523 593 CURVE SMOOTH",
"545 593 OFFCURVE",
"556 579 OFFCURVE",
"556 550 CURVE SMOOTH",
"556 145 LINE"
);
}
);
};
layerId = "083C0576-DCB5-487A-B9F4-85809F200F55";
paths = (
{
closed = 1;
nodes = (
"512 637 LINE",
"514 136 LINE",
"507 136 LINE",
"184 641 LINE",
"93 641 LINE",
"97 190 LINE",
"91 0 LINE",
"172 0 LINE",
"168 212 LINE",
"169 505 LINE",
"176 505 LINE",
"499 0 LINE",
"590 0 LINE",
"587 189 LINE",
"594 643 LINE"
);
}
);
width = 684;
}
);
leftKerningGroup = H;
rightKerningGroup = H;
unicode = 004E;
},
{
color = 1;
glyphname = Eng;
lastChange = "2016-10-28 13:24:24 +0000";
layers = (
{
layerId = "EDFD1FE9-67C2-43D2-81E5-EF1682ABC3BD";
paths = (
{
closed = 1;
nodes = (
"513 637 LINE",
"514 143 LINE",
"507 143 LINE",
"183 641 LINE",
"93 641 LINE",
"96 190 LINE",
"92 0 LINE",
"170 0 LINE",
"168 212 LINE",
"169 505 LINE",
"175 505 LINE",
"503 3 LINE",
"493 -39 OFFCURVE",
"462 -69 OFFCURVE",
"400 -104 CURVE",
"400 -113 LINE",
"426 -158 LINE",
"548 -104 OFFCURVE",
"589 -50 OFFCURVE",
"589 44 CURVE SMOOTH",
"588 189 LINE",
"593 643 LINE"
);
}
);
width = 684;
},
{
background = {
paths = (
{
closed = 1;
nodes = (
"512 637 LINE",
"515 145 LINE",
"507 145 LINE",
"184 641 LINE",
"93 641 LINE",
"97 190 LINE",
"91 0 LINE",
"172 0 LINE",
"168 212 LINE",
"168 505 LINE",
"176 505 LINE",
"505 0 LINE",
"497 -45 OFFCURVE",
"474 -78 OFFCURVE",
"429 -113 CURVE",
"429 -122 LINE",
"459 -159 LINE",
"556 -103 OFFCURVE",
"589 -48 OFFCURVE",
"589 48 CURVE SMOOTH",
"587 189 LINE",
"594 643 LINE"
);
}
);
};
layerId = "083C0576-DCB5-487A-B9F4-85809F200F55";
paths = (
{
closed = 1;
nodes = (
"512 637 LINE",
"514 138 LINE",
"507 138 LINE",
"184 641 LINE",
"93 641 LINE",
"97 190 LINE",
"91 0 LINE",
"172 0 LINE",
"168 212 LINE",
"169 505 LINE",
"176 505 LINE",
"500 1 LINE",
"483 -39 OFFCURVE",
"445.232 -70 OFFCURVE",
"382 -104 CURVE",
"382 -114 LINE",
"415 -162 LINE",
"543 -102 OFFCURVE",
"589 -43 OFFCURVE",
"589 58 CURVE",
"587 189 LINE",
"594 643 LINE"
);
}
);
width = 684;
}
);
leftKerningGroup = H;
rightKerningGroup = H;
unicode = 014A;
},
{
color = 1;
glyphname = O;
lastChange = "2016-10-28 13:24:24 +0000";
layers = (
{
anchors = (
{
name = top;
position = "{319, 641}";
}
);
layerId = "EDFD1FE9-67C2-43D2-81E5-EF1682ABC3BD";
paths = (
{
closed = 1;
nodes = (
"141 648 OFFCURVE",
"37 529 OFFCURVE",
"37 315 CURVE SMOOTH",
"37 109 OFFCURVE",
"135 -8 OFFCURVE",
"309 -8 CURVE SMOOTH",
"495 -8 OFFCURVE",
"600 115 OFFCURVE",
"600 333 CURVE SMOOTH",
"600 535 OFFCURVE",
"502 648 OFFCURVE",
"326 648 CURVE"
);
},
{
closed = 1;
nodes = (
"448 578 OFFCURVE",
"511 496 OFFCURVE",
"511 317 CURVE SMOOTH",
"511 142 OFFCURVE",
"446 59 OFFCURVE",
"316 59 CURVE SMOOTH",
"188 59 OFFCURVE",
"125 143 OFFCURVE",
"125 325 CURVE SMOOTH",
"125 496 OFFCURVE",
"190 578 OFFCURVE",
"320 578 CURVE SMOOTH"
);
}
);
width = 636;
},
{
anchors = (
{
name = top;
position = "{319, 641}";
}
);
background = {
paths = (
{
closed = 1;
nodes = (
"217 39 OFFCURVE",
"126 158 OFFCURVE",
"126 329 CURVE SMOOTH",
"126 483 OFFCURVE",
"211 589 OFFCURVE",
"335 589 CURVE SMOOTH",
"470 589 OFFCURVE",
"563 470 OFFCURVE",
"563 299 CURVE SMOOTH",
"563 145 OFFCURVE",
"475 39 OFFCURVE",
"348 39 CURVE SMOOTH"
);
},
{
closed = 1;
nodes = (
"506 -12 OFFCURVE",
"652 142 OFFCURVE",
"652 341 CURVE SMOOTH",
"652 523 OFFCURVE",
"536 649 OFFCURVE",
"369 649 CURVE SMOOTH",
"184 649 OFFCURVE",
"40 495 OFFCURVE",
"40 297 CURVE SMOOTH",
"40 114 OFFCURVE",
"153 -12 OFFCURVE",
"317 -12 CURVE SMOOTH"
);
}
);
};
layerId = "083C0576-DCB5-487A-B9F4-85809F200F55";
paths = (
{
closed = 1;
nodes = (
"141 648 OFFCURVE",
"37 529 OFFCURVE",
"37 315 CURVE SMOOTH",
"37 109 OFFCURVE",
"135 -8 OFFCURVE",
"309 -8 CURVE SMOOTH",
"495 -8 OFFCURVE",
"600 115 OFFCURVE",
"600 333 CURVE SMOOTH",
"600 535 OFFCURVE",
"502 648 OFFCURVE",
"326 648 CURVE"
);
},
{
closed = 1;
nodes = (
"448 578 OFFCURVE",
"511 496 OFFCURVE",
"511 317 CURVE SMOOTH",
"511 142 OFFCURVE",
"446 59 OFFCURVE",
"316 59 CURVE SMOOTH",
"188 59 OFFCURVE",
"125 143 OFFCURVE",
"125 325 CURVE SMOOTH",
"125 496 OFFCURVE",
"190 578 OFFCURVE",
"320 578 CURVE SMOOTH"
);
}
);
width = 636;
}
);
leftKerningGroup = O;
rightKerningGroup = O;
unicode = 004F;
},
{
color = 1;
glyphname = Ohorn;
lastChange = "2016-10-28 13:24:24 +0000";
layers = (
{
anchors = (
{
name = top;
position = "{319, 641}";
}
);
layerId = "EDFD1FE9-67C2-43D2-81E5-EF1682ABC3BD";
paths = (
{
closed = 1;
nodes = (
"564 766 OFFCURVE",
"549 759 OFFCURVE",
"536 749 CURVE",
"534 741 LINE",
"554 721 OFFCURVE",
"566 696 OFFCURVE",
"566 673 CURVE SMOOTH",
"566 635 OFFCURVE",
"534 614 OFFCURVE",
"496 614 CURVE SMOOTH",
"449 614 OFFCURVE",
"414 648 OFFCURVE",
"321 648 CURVE SMOOTH",
"143 648 OFFCURVE",
"37 529 OFFCURVE",
"37 315 CURVE SMOOTH",
"37 109 OFFCURVE",
"134 -8 OFFCURVE",
"311 -8 CURVE SMOOTH",
"495 -8 OFFCURVE",
"600 118 OFFCURVE",
"600 329 CURVE SMOOTH",
"600 437 OFFCURVE",
"572 518 OFFCURVE",
"517 572 CURVE",
"583 576 OFFCURVE",
"633 614 OFFCURVE",
"633 679 CURVE SMOOTH",
"633 729 OFFCURVE",
"604 766 OFFCURVE",
"578 766 CURVE SMOOTH"
);
},
{
closed = 1;
nodes = (
"448 578 OFFCURVE",
"511 497 OFFCURVE",
"511 319 CURVE SMOOTH",
"511 143 OFFCURVE",
"446 59 OFFCURVE",
"318 59 CURVE SMOOTH",
"189 59 OFFCURVE",
"125 143 OFFCURVE",
"125 320 CURVE SMOOTH",
"125 496 OFFCURVE",
"189 578 OFFCURVE",
"318 578 CURVE SMOOTH"
);
}
);
width = 641;
},
{
anchors = (
{
name = top;
position = "{309, 641}";
}
);
background = {
paths = (
{
closed = 1;
nodes = (
"581 734 LINE",
"601 715 OFFCURVE",
"613 688 OFFCURVE",
"613 664 CURVE SMOOTH",
"613 633 OFFCURVE",
"583 615 OFFCURVE",
"543 615 CURVE SMOOTH",
"490 615 OFFCURVE",
"461 649 OFFCURVE",
"369 649 CURVE SMOOTH",
"184 649 OFFCURVE",
"40 495 OFFCURVE",
"40 297 CURVE SMOOTH",
"40 114 OFFCURVE",
"153 -12 OFFCURVE",
"317 -12 CURVE SMOOTH",
"506 -12 OFFCURVE",
"652 142 OFFCURVE",
"652 341 CURVE SMOOTH",
"652 442 OFFCURVE",
"616 526 OFFCURVE",
"555 580 CURVE",
"627 577 OFFCURVE",
"692 627 OFFCURVE",
"692 696 CURVE SMOOTH",
"692 743 OFFCURVE",
"672 774 OFFCURVE",
"641 774 CURVE SMOOTH",
"624 774 OFFCURVE",
"603 765 OFFCURVE",
"583 748 CURVE"
);
},
{
closed = 1;
nodes = (
"217 39 OFFCURVE",
"126 158 OFFCURVE",
"126 329 CURVE SMOOTH",
"126 483 OFFCURVE",
"211 589 OFFCURVE",
"335 589 CURVE SMOOTH",
"470 589 OFFCURVE",
"563 470 OFFCURVE",
"563 299 CURVE SMOOTH",
"563 145 OFFCURVE",
"475 39 OFFCURVE",
"348 39 CURVE SMOOTH"
);
}
);
};
layerId = "083C0576-DCB5-487A-B9F4-85809F200F55";
paths = (
{
closed = 1;
nodes = (
"565 766 OFFCURVE",
"549 759 OFFCURVE",
"536 749 CURVE",
"534 741 LINE",
"555 721 OFFCURVE",
"566 696 OFFCURVE",
"566 673 CURVE SMOOTH",
"566 635 OFFCURVE",
"534 614 OFFCURVE",
"496 614 CURVE SMOOTH",
"450 614 OFFCURVE",
"414 648 OFFCURVE",
"322 648 CURVE SMOOTH",
"143 648 OFFCURVE",
"37 529 OFFCURVE",
"37 315 CURVE SMOOTH",
"37 109 OFFCURVE",
"135 -8 OFFCURVE",
"311 -8 CURVE SMOOTH",
"495 -8 OFFCURVE",
"600 118 OFFCURVE",
"600 329 CURVE SMOOTH",
"600 437 OFFCURVE",
"572 518 OFFCURVE",
"517 572 CURVE",
"583 576 OFFCURVE",
"634 614 OFFCURVE",
"634 679 CURVE SMOOTH",
"634 729 OFFCURVE",
"604 766 OFFCURVE",
"578 766 CURVE SMOOTH"
);
},
{
closed = 1;
nodes = (
"448 577 OFFCURVE",
"511 495 OFFCURVE",
"511 318 CURVE SMOOTH",
"511 146 OFFCURVE",
"445 63 OFFCURVE",
"316 63 CURVE SMOOTH",
"188 63 OFFCURVE",
"125 147 OFFCURVE",
"125 326 CURVE SMOOTH",
"125 495 OFFCURVE",
"189 577 OFFCURVE",
"319 577 CURVE SMOOTH"
);
}
);
width = 641;
}
);
leftKerningGroup = O;
rightKerningGroup = O;
unicode = 01A0;
},
{
color = 11;
glyphname = Oslash;
lastChange = "2016-10-28 13:24:24 +0000";
layers = (
{
anchors = (
{
name = top;
position = "{317, 642}";
}
);
components = (
{
name = O;
}
);
layerId = "EDFD1FE9-67C2-43D2-81E5-EF1682ABC3BD";
paths = (
{
closed = 1;
nodes = (
"473 725 LINE",
"97 -77 LINE",
"102 -85 LINE",
"149 -104 LINE",
"525 696 LINE",
"519 706 LINE"
);
}
);
width = 636;
},
{
anchors = (
{
name = top;
position = "{317, 642}";
}
);
background = {
paths = (
{
closed = 1;
nodes = (
"470 725 LINE",
"95 -77 LINE",
"99 -85 LINE",
"154 -104 LINE",
"529 696 LINE",
"524 706 LINE"
);
}
);
};
components = (
{
name = O;
}
);
layerId = "083C0576-DCB5-487A-B9F4-85809F200F55";
paths = (
{
closed = 1;
nodes = (
"470 725 LINE",
"95 -77 LINE",
"99 -85 LINE",
"151 -104 LINE",
"526 696 LINE",
"521 706 LINE"
);
}
);
width = 636;
}
);
leftKerningGroup = O;
rightKerningGroup = O;
unicode = 00D8;
},
{
color = 10;
glyphname = Oslashacute;
lastChange = "2016-10-28 13:24:24 +0000";
layers = (
{
components = (
{
name = Oslash;
},
{
name = acutecomb.case;
transform = "{1, 0, 0, 1, 149, 183}";
}
);
layerId = "EDFD1FE9-67C2-43D2-81E5-EF1682ABC3BD";
width = 636;
},
{
background = {
components = (
{
name = O;
},
{
name = acutecomb.case;
transform = "{1, 0, 0, 1, 130, 0}";
}
);
paths = (
{
closed = 1;
nodes = (
"552 689 LINE",
"549 701 LINE",
"520 708 LINE",
"456 586 LINE",
"489 572 LINE"
);
},
{
closed = 1;
nodes = (
"489 572 LINE",
"456 586 LINE",
"186 70 LINE",
"218 56 LINE"
);
},
{
closed = 1;
nodes = (
"107 -82 LINE",
"109 -92 LINE",
"136 -98 LINE",
"218 56 LINE",
"186 70 LINE"
);
}
);
};
components = (
{
name = Oslash;
},
{
name = acutecomb.case;
transform = "{1, 0, 0, 1, 149, 183}";
}
);
layerId = "083C0576-DCB5-487A-B9F4-85809F200F55";
width = 636;
}
);
leftKerningGroup = O;
rightKerningGroup = O;
unicode = 01FE;
},
{
color = 1;
glyphname = OE;
lastChange = "2016-10-28 13:24:24 +0000";
layers = (
{
anchors = (
{
name = top;
position = "{564, 641}";
}
);
layerId = "EDFD1FE9-67C2-43D2-81E5-EF1682ABC3BD";
paths = (
{
closed = 1;
nodes = (
"153 653 OFFCURVE",
"37 529 OFFCURVE",
"37 316 CURVE SMOOTH",
"37 109 OFFCURVE",
"147 -12 OFFCURVE",
"339 -12 CURVE SMOOTH",
"401 -12 OFFCURVE",
"466 1 OFFCURVE",
"525 0 CURVE SMOOTH",
"823 0 LINE",
"830 63 LINE",
"824 71 LINE",
"667 68 LINE",
"543 68 LINE",
"542 196 LINE",
"542 294 LINE",
"651 294 LINE",
"768 293 LINE",
"775 356 LINE",
"769 363 LINE",
"656 362 LINE",
"544 362 LINE",
"545 572 LINE",
"679 572 LINE",
"823 570 LINE",
"830 633 LINE",
"824 641 LINE",
"525 641 LINE SMOOTH",
"469 641 OFFCURVE",
"417 653 OFFCURVE",
"354 653 CURVE SMOOTH"
);
},
{
closed = 1;
nodes = (
"390 582 OFFCURVE",
"433 575 OFFCURVE",
"447 569 CURVE SMOOTH",
"457 565 OFFCURVE",
"460 556 OFFCURVE",
"460 531 CURVE SMOOTH",
"463 102 LINE SMOOTH",
"463 81 OFFCURVE",
"459 72 OFFCURVE",
"441 66 CURVE SMOOTH",
"425 61 OFFCURVE",
"385 54 OFFCURVE",
"348 54 CURVE SMOOTH",
"197 54 OFFCURVE",
"125 147 OFFCURVE",
"125 321 CURVE SMOOTH",
"125 494 OFFCURVE",
"200 582 OFFCURVE",
"348 582 CURVE SMOOTH"
);
}
);
width = 853;
},
{
anchors = (
{
name = top;
position = "{564, 641}";
}
);
background = {
paths = (
{
closed = 1;
nodes = (
"141 648 OFFCURVE",
"37 529 OFFCURVE",
"37 315 CURVE SMOOTH",
"37 109 OFFCURVE",
"135 -8 OFFCURVE",
"310 -8 CURVE SMOOTH",
"495 -8 OFFCURVE",
"600 115 OFFCURVE",
"600 333 CURVE SMOOTH",
"600 535 OFFCURVE",
"502 648 OFFCURVE",
"327 648 CURVE"
);
},
{
closed = 1;
nodes = (
"448 577 OFFCURVE",
"511 495 OFFCURVE",
"511 318 CURVE SMOOTH",
"511 146 OFFCURVE",
"445 63 OFFCURVE",
"316 63 CURVE SMOOTH",
"188 63 OFFCURVE",
"125 147 OFFCURVE",
"125 326 CURVE SMOOTH",
"125 495 OFFCURVE",
"189 577 OFFCURVE",
"319 577 CURVE SMOOTH"
);
}
);
};
layerId = "083C0576-DCB5-487A-B9F4-85809F200F55";
paths = (
{
closed = 1;
nodes = (
"153 653 OFFCURVE",
"37 529 OFFCURVE",
"37 316 CURVE SMOOTH",
"37 109 OFFCURVE",
"147 -12 OFFCURVE",
"339 -12 CURVE SMOOTH",
"401 -12 OFFCURVE",
"466 1 OFFCURVE",
"525 0 CURVE SMOOTH",
"823 0 LINE",
"830 67 LINE",
"824 75 LINE",
"667 70 LINE",
"543 72 LINE",
"542 196 LINE",
"542 292 LINE",
"651 294 LINE",
"768 291 LINE",
"775 358 LINE",
"770 365 LINE",
"657 362 LINE",
"544 364 LINE",
"545 570 LINE",
"679 570 LINE",
"823 566 LINE",
"830 633 LINE",
"824 641 LINE",
"525 641 LINE SMOOTH",
"469 641 OFFCURVE",
"418 653 OFFCURVE",
"355 653 CURVE SMOOTH"
);
},
{
closed = 1;
nodes = (
"390 582 OFFCURVE",
"433 575 OFFCURVE",
"447 569 CURVE SMOOTH",
"456 565 OFFCURVE",
"461 556 OFFCURVE",
"461 531 CURVE SMOOTH",
"465 105 LINE SMOOTH",
"465 84 OFFCURVE",
"458 75 OFFCURVE",
"440 69 CURVE SMOOTH",
"425 64 OFFCURVE",
"384 59 OFFCURVE",
"347 59 CURVE SMOOTH",
"197 59 OFFCURVE",
"125 147 OFFCURVE",
"125 321 CURVE SMOOTH",
"125 494 OFFCURVE",
"200 582 OFFCURVE",
"348 582 CURVE SMOOTH"
);
}
);
width = 853;
}
);
leftKerningGroup = O;
rightKerningGroup = E;
unicode = 0152;
},
{
color = 1;
glyphname = P;
lastChange = "2016-10-28 13:24:24 +0000";
layers = (
{
layerId = "EDFD1FE9-67C2-43D2-81E5-EF1682ABC3BD";
paths = (
{
closed = 1;
nodes = (
"92 641 LINE",
"138 575 LINE",
"272 579 LINE",
"357 576 OFFCURVE",
"402 530 OFFCURVE",
"402 446 CURVE SMOOTH",
"402 358 OFFCURVE",
"359 302 OFFCURVE",
"279 289 CURVE",
"124 292 LINE",
"124 225 LINE",
"249 225 LINE",
"400 225 OFFCURVE",
"490 311 OFFCURVE",
"490 453 CURVE SMOOTH",
"490 575 OFFCURVE",
"419 642 OFFCURVE",
"293 642 CURVE"
);
},
{
closed = 1;
nodes = (
"92 641 LINE",
"96 193 LINE",
"92 0 LINE",
"177 0 LINE",
"174 200 LINE",
"178 641 LINE"
);
}
);
width = 523;
},
{
background = {
paths = (
{
closed = 1;
nodes = (
"92 572 LINE",
"136 502 LINE",
"179 503 OFFCURVE",
"222 503 OFFCURVE",
"257 503 CURVE SMOOTH",
"342 503 OFFCURVE",
"376 475 OFFCURVE",
"376 407 CURVE SMOOTH",
"376 341 OFFCURVE",
"344 305 OFFCURVE",
"284 291 CURVE",
"124 295 LINE",
"124 222 LINE",
"296 224 LINE",
"374 214 OFFCURVE",
"416 179 OFFCURVE",
"416 115 CURVE SMOOTH",
"416 39 OFFCURVE",
"356 -2 OFFCURVE",
"250 -2 CURVE SMOOTH",
"221 -2 OFFCURVE",
"173 1 OFFCURVE",
"141 5 CURVE",
"92 -69 LINE",
"133 -72 OFFCURVE",
"215 -73 OFFCURVE",
"237 -73 CURVE SMOOTH",
"414 -73 OFFCURVE",
"503 -11 OFFCURVE",
"503 110 CURVE SMOOTH",
"503 195 OFFCURVE",
"459 247 OFFCURVE",
"368 265 CURVE",
"429 291 OFFCURVE",
"464 344 OFFCURVE",
"464 417 CURVE SMOOTH",
"464 520 OFFCURVE",
"394 573 OFFCURVE",
"275 573 CURVE"
);
},
{
closed = 1;
nodes = (
"91 572 LINE",
"97 124 LINE",
"91 -69 LINE",
"178 -69 LINE",
"174 131 LINE",
"179 572 LINE"
);
}
);
};
layerId = "083C0576-DCB5-487A-B9F4-85809F200F55";
paths = (
{
closed = 1;
nodes = (
"92 641 LINE",
"138 568 LINE",
"272 572 LINE",
"357 569 OFFCURVE",
"402 530 OFFCURVE",
"402 446 CURVE SMOOTH",
"402 358 OFFCURVE",
"359 305 OFFCURVE",
"279 292 CURVE",
"124 295 LINE",
"124 223 LINE",
"249 223 LINE",
"400 223 OFFCURVE",
"490 311 OFFCURVE",
"490 453 CURVE SMOOTH",
"490 575 OFFCURVE",
"419 642 OFFCURVE",
"293 642 CURVE"
);
},
{
closed = 1;
nodes = (
"91 641 LINE",
"97 193 LINE",
"91 0 LINE",
"178 0 LINE",
"174 200 LINE",
"179 641 LINE"
);
}
);
width = 523;
}
);
leftKerningGroup = H;
rightKerningGroup = P;
unicode = 0050;
},
{
color = 1;
glyphname = Thorn;
lastChange = "2016-10-28 13:24:24 +0000";
layers = (
{
layerId = "EDFD1FE9-67C2-43D2-81E5-EF1682ABC3BD";
paths = (
{
closed = 1;
nodes = (
"92 530 LINE",
"139 464 LINE",
"274 468 LINE",
"359 464 OFFCURVE",
"404 420 OFFCURVE",
"404 336 CURVE SMOOTH",
"404 247 OFFCURVE",
"359 195 OFFCURVE",
"280 180 CURVE",
"124 184 LINE",
"124 115 LINE",
"251 117 LINE",
"407 117 OFFCURVE",
"493 198 OFFCURVE",
"493 342 CURVE SMOOTH",
"493 466 OFFCURVE",
"422 531 OFFCURVE",
"295 531 CURVE"
);
},
{
closed = 1;
nodes = (
"92 641 LINE",
"96 193 LINE",
"92 0 LINE",
"178 0 LINE",
"175 200 LINE",
"179 641 LINE"
);
}
);
width = 529;
},
{
background = {
paths = (
{
closed = 1;
nodes = (
"92 532 LINE",
"138 459 LINE",
"272 463 LINE",
"357 460 OFFCURVE",
"402 421 OFFCURVE",
"402 337 CURVE SMOOTH",
"402 249 OFFCURVE",
"359 196 OFFCURVE",
"279 183 CURVE",
"124 186 LINE",
"124 114 LINE",
"249 114 LINE",
"400 114 OFFCURVE",
"490 202 OFFCURVE",
"490 344 CURVE SMOOTH",
"490 466 OFFCURVE",
"419 533 OFFCURVE",
"293 533 CURVE"
);
},
{
closed = 1;
nodes = (
"91 532 LINE",
"97 84 LINE",
"91 -109 LINE",
"178 -109 LINE",
"174 91 LINE",
"179 532 LINE"
);
}
);
};
layerId = "083C0576-DCB5-487A-B9F4-85809F200F55";
paths = (
{
closed = 1;
nodes = (
"93 531 LINE",
"139 459 LINE",
"274 463 LINE",
"359 459 OFFCURVE",
"404 420 OFFCURVE",
"404 336 CURVE SMOOTH",
"404 247 OFFCURVE",
"359 198 OFFCURVE",
"280 183 CURVE",
"124 187 LINE",
"124 113 LINE",
"251 115 LINE",
"407 115 OFFCURVE",
"493 198 OFFCURVE",
"493 342 CURVE SMOOTH",
"493 466 OFFCURVE",
"422 532 OFFCURVE",
"295 532 CURVE"
);
},
{
closed = 1;
nodes = (
"92 641 LINE",
"96 193 LINE",
"92 0 LINE",
"178 0 LINE",
"175 200 LINE",
"179 641 LINE"
);
}
);
width = 529;
}
);
leftKerningGroup = H;
rightKerningGroup = Thorn;
unicode = 00DE;
},
{
color = 0;
glyphname = Q;
lastChange = "2016-10-28 13:24:24 +0000";
layers = (
{
layerId = "EDFD1FE9-67C2-43D2-81E5-EF1682ABC3BD";
paths = (
{
closed = 1;
nodes = (
"141 648 OFFCURVE",
"37 529 OFFCURVE",
"37 315 CURVE SMOOTH",
"37 109 OFFCURVE",
"135 -8 OFFCURVE",
"309 -8 CURVE SMOOTH",
"495 -8 OFFCURVE",
"600 115 OFFCURVE",
"600 333 CURVE SMOOTH",
"600 535 OFFCURVE",
"502 648 OFFCURVE",
"326 648 CURVE"
);
},
{
closed = 1;
nodes = (
"323 3 LINE",
"427 -92 OFFCURVE",
"554 -160 OFFCURVE",
"685 -193 CURVE",
"694 -190 LINE",
"708 -177 OFFCURVE",
"721 -160 OFFCURVE",
"733 -137 CURVE",
"730 -126 LINE",
"604 -103 OFFCURVE",
"483 -47 OFFCURVE",
"384 32 CURVE"
);
},
{
closed = 1;
nodes = (
"448 578 OFFCURVE",
"511 496 OFFCURVE",
"511 317 CURVE SMOOTH",
"511 142 OFFCURVE",
"446 59 OFFCURVE",
"316 59 CURVE SMOOTH",
"188 59 OFFCURVE",
"125 143 OFFCURVE",
"125 325 CURVE SMOOTH",
"125 496 OFFCURVE",
"190 578 OFFCURVE",
"320 578 CURVE SMOOTH"
);
}
);
width = 640;
},
{
background = {
paths = (
{
closed = 1;
nodes = (
"141 648 OFFCURVE",
"37 529 OFFCURVE",
"37 315 CURVE SMOOTH",
"37 109 OFFCURVE",
"134 -8 OFFCURVE",
"312 -8 CURVE SMOOTH",
"495 -8 OFFCURVE",
"600 117 OFFCURVE",
"600 330 CURVE SMOOTH",
"600 536 OFFCURVE",
"502 648 OFFCURVE",
"327 648 CURVE"
);
},
{
closed = 1;
nodes = (
"323 3 LINE",
"427 -92 OFFCURVE",
"554 -160 OFFCURVE",
"686 -193 CURVE",
"694 -190 LINE",
"710 -175 OFFCURVE",
"720 -161 OFFCURVE",
"733 -135 CURVE",
"730 -124 LINE",
"603 -102 OFFCURVE",
"483 -46 OFFCURVE",
"382 30 CURVE"
);
},
{
closed = 1;
nodes = (
"447 577 OFFCURVE",
"511 495 OFFCURVE",
"511 322 CURVE SMOOTH",
"511 147 OFFCURVE",
"443 63 OFFCURVE",
"318 63 CURVE SMOOTH",
"189 63 OFFCURVE",
"125 147 OFFCURVE",
"125 322 CURVE SMOOTH",
"125 495 OFFCURVE",
"188 577 OFFCURVE",
"318 577 CURVE SMOOTH"
);
}
);
};
layerId = "083C0576-DCB5-487A-B9F4-85809F200F55";
paths = (
{
closed = 1;
nodes = (
"141 648 OFFCURVE",
"37 529 OFFCURVE",
"37 315 CURVE SMOOTH",
"37 109 OFFCURVE",
"134 -8 OFFCURVE",
"312 -8 CURVE SMOOTH",
"495 -8 OFFCURVE",
"600 117 OFFCURVE",
"600 330 CURVE SMOOTH",
"600 536 OFFCURVE",
"502 648 OFFCURVE",
"327 648 CURVE"
);
},
{
closed = 1;
nodes = (
"323 3 LINE",
"428 -90 OFFCURVE",
"555 -157 OFFCURVE",
"686 -193 CURVE",
"694 -190 LINE",
"710 -175 OFFCURVE",
"720 -161 OFFCURVE",
"733 -135 CURVE",
"730 -124 LINE",
"599 -100 OFFCURVE",
"483 -47 OFFCURVE",
"382 30 CURVE"
);
},
{
closed = 1;
nodes = (
"447 577 OFFCURVE",
"511 495 OFFCURVE",
"511 322 CURVE SMOOTH",
"511 147 OFFCURVE",
"443 63 OFFCURVE",
"318 63 CURVE SMOOTH",
"189 63 OFFCURVE",
"125 147 OFFCURVE",
"125 322 CURVE SMOOTH",
"125 495 OFFCURVE",
"188 577 OFFCURVE",
"318 577 CURVE SMOOTH"
);
}
);
width = 640;
}
);
leftKerningGroup = O;
rightKerningGroup = O;
unicode = 0051;
},
{
color = 1;
glyphname = R;
lastChange = "2016-10-28 13:24:24 +0000";
layers = (
{
anchors = (
{
name = bottom;
position = "{280, 0}";
},
{
name = top;
position = "{280, 641}";
}
);
layerId = "EDFD1FE9-67C2-43D2-81E5-EF1682ABC3BD";
paths = (
{
closed = 1;
nodes = (
"92 641 LINE",
"138 575 LINE",
"272 579 LINE",
"357 576 OFFCURVE",
"402 532 OFFCURVE",
"402 451 CURVE SMOOTH",
"402 374 OFFCURVE",
"364 323 OFFCURVE",
"293 302 CURVE",
"124 306 LINE",
"124 238 LINE",
"297 238 LINE",
"418 267 OFFCURVE",
"491 349 OFFCURVE",
"491 458 CURVE SMOOTH",
"491 577 OFFCURVE",
"419 642 OFFCURVE",
"293 642 CURVE"
);
},
{
closed = 1;
nodes = (
"92 641 LINE",
"96 193 LINE",
"92 0 LINE",
"177 0 LINE",
"174 200 LINE",
"178 641 LINE"
);
},
{
closed = 1;
nodes = (
"265 281 LINE",
"315 185 OFFCURVE",
"373 90 OFFCURVE",
"433 -2 CURVE",
"444 -9 LINE",
"472 -6 OFFCURVE",
"498 0 OFFCURVE",
"524 10 CURVE",
"525 20 LINE",
"460 106 OFFCURVE",
"400 193 OFFCURVE",
"345 282 CURVE"
);
}
);
width = 559;
},
{
anchors = (
{
name = bottom;
position = "{280, 0}";
},
{
name = top;
position = "{280, 641}";
}
);
background = {
paths = (
{
closed = 1;
nodes = (
"92 585 LINE",
"136 515 LINE",
"179 516 OFFCURVE",
"222 516 OFFCURVE",
"257 516 CURVE SMOOTH",
"342 516 OFFCURVE",
"376 488 OFFCURVE",
"376 420 CURVE SMOOTH",
"376 354 OFFCURVE",
"344 318 OFFCURVE",
"284 304 CURVE",
"124 308 LINE",
"124 235 LINE",
"296 237 LINE",
"374 227 OFFCURVE",
"416 192 OFFCURVE",
"416 128 CURVE SMOOTH",
"416 52 OFFCURVE",
"356 11 OFFCURVE",
"250 11 CURVE SMOOTH",
"221 11 OFFCURVE",
"173 14 OFFCURVE",
"141 18 CURVE",
"92 -56 LINE",
"133 -59 OFFCURVE",
"215 -60 OFFCURVE",
"237 -60 CURVE SMOOTH",
"414 -60 OFFCURVE",
"503 2 OFFCURVE",
"503 123 CURVE SMOOTH",
"503 208 OFFCURVE",
"459 260 OFFCURVE",
"368 278 CURVE",
"429 304 OFFCURVE",
"464 357 OFFCURVE",
"464 430 CURVE SMOOTH",
"464 533 OFFCURVE",
"394 586 OFFCURVE",
"275 586 CURVE"
);
},
{
closed = 1;
nodes = (
"91 585 LINE",
"97 137 LINE",
"91 -56 LINE",
"178 -56 LINE",
"174 144 LINE",
"179 585 LINE"
);
}
);
};
layerId = "083C0576-DCB5-487A-B9F4-85809F200F55";
paths = (
{
closed = 1;
nodes = (
"92 641 LINE",
"138 568 LINE",
"272 572 LINE",
"357 569 OFFCURVE",
"402 532 OFFCURVE",
"402 451 CURVE SMOOTH",
"402 374 OFFCURVE",
"364 326 OFFCURVE",
"293 305 CURVE",
"124 309 LINE",
"124 236 LINE",
"297 236 LINE",
"418 265 OFFCURVE",
"491 349 OFFCURVE",
"491 458 CURVE SMOOTH",
"491 577 OFFCURVE",
"419 642 OFFCURVE",
"293 642 CURVE"
);
},
{
closed = 1;
nodes = (
"91 641 LINE",
"97 193 LINE",
"91 0 LINE",
"178 0 LINE",
"174 200 LINE",
"179 641 LINE"
);
},
{
closed = 1;
nodes = (
"265 281 LINE",
"315 185 OFFCURVE",
"373 90 OFFCURVE",
"433 -2 CURVE",
"444 -9 LINE",
"472 -6 OFFCURVE",
"498 0 OFFCURVE",
"524 10 CURVE",
"525 20 LINE",
"460 106 OFFCURVE",
"400 193 OFFCURVE",
"346 282 CURVE"
);
}
);
width = 559;
}
);
leftKerningGroup = H;
rightKerningGroup = R;
unicode = 0052;
},
{
color = 1;
glyphname = S;
lastChange = "2016-10-28 13:24:24 +0000";
layers = (
{
anchors = (
{
name = bottom;
position = "{229, 0}";
},
{
name = top;
position = "{248, 641}";
}
);
layerId = "EDFD1FE9-67C2-43D2-81E5-EF1682ABC3BD";
paths = (
{
closed = 1;
nodes = (
"142 647 OFFCURVE",
"56 567 OFFCURVE",
"56 466 CURVE SMOOTH",
"56 280 OFFCURVE",
"347 299 OFFCURVE",
"347 165 CURVE SMOOTH",
"347 113 OFFCURVE",
"302 59 OFFCURVE",
"221 59 CURVE SMOOTH",
"176 59 OFFCURVE",
"112 78 OFFCURVE",
"61 117 CURVE",
"51 112 LINE",
"40 37 LINE",
"94 8 OFFCURVE",
"158 -7 OFFCURVE",
"214 -7 CURVE SMOOTH",
"344 -7 OFFCURVE",
"432 77 OFFCURVE",
"432 178 CURVE SMOOTH",
"432 365 OFFCURVE",
"139 350 OFFCURVE",
"139 477 CURVE SMOOTH",
"139 525 OFFCURVE",
"182 578 OFFCURVE",
"258 578 CURVE SMOOTH",
"290 578 OFFCURVE",
"339 566 OFFCURVE",
"384 540 CURVE",
"399 545 LINE",
"413 616 LINE",
"358 639 OFFCURVE",
"306 647 OFFCURVE",
"267 647 CURVE SMOOTH"
);
}
);
width = 475;
},
{
anchors = (
{
name = bottom;
position = "{230, 0}";
},
{
name = top;
position = "{249, 641}";
}
);
background = {
paths = (
{
closed = 1;
nodes = (
"143 647 OFFCURVE",
"57 567 OFFCURVE",
"57 465 CURVE SMOOTH",
"57 279 OFFCURVE",
"345 298 OFFCURVE",
"345 165 CURVE SMOOTH",
"345 114 OFFCURVE",
"301 60 OFFCURVE",
"222 60 CURVE SMOOTH",
"177 60 OFFCURVE",
"113 80 OFFCURVE",
"64 119 CURVE",
"52 114 LINE",
"41 37 LINE",
"95 8 OFFCURVE",
"159 -7 OFFCURVE",
"214 -7 CURVE SMOOTH",
"345 -7 OFFCURVE",
"432 77 OFFCURVE",
"432 179 CURVE SMOOTH",
"432 366 OFFCURVE",
"143 351 OFFCURVE",
"143 477 CURVE SMOOTH",
"143 524 OFFCURVE",
"184 577 OFFCURVE",
"259 577 CURVE SMOOTH",
"290 577 OFFCURVE",
"339 564 OFFCURVE",
"385 538 CURVE",
"399 543 LINE",
"413 616 LINE",
"358 639 OFFCURVE",
"308 647 OFFCURVE",
"269 647 CURVE SMOOTH"
);
}
);
};
guideLines = (
{
angle = -41;
position = "{263, 195}";
}
);
layerId = "083C0576-DCB5-487A-B9F4-85809F200F55";
paths = (
{
closed = 1;
nodes = (
"143 647 OFFCURVE",
"57 567 OFFCURVE",
"57 466 CURVE SMOOTH",
"57 280 OFFCURVE",
"348 298 OFFCURVE",
"348 166 CURVE SMOOTH",
"348 113 OFFCURVE",
"302 62 OFFCURVE",
"224 62 CURVE SMOOTH",
"176 62 OFFCURVE",
"113 82 OFFCURVE",
"63 131 CURVE",
"52 126 LINE",
"41 37 LINE",
"95 8 OFFCURVE",
"159 -7 OFFCURVE",
"215 -7 CURVE SMOOTH",
"346 -7 OFFCURVE",
"433 77 OFFCURVE",
"433 178 CURVE SMOOTH",
"433 364 OFFCURVE",
"141 351 OFFCURVE",
"141 477 CURVE SMOOTH",
"141 525 OFFCURVE",
"183 577 OFFCURVE",
"258 577 CURVE SMOOTH",
"301 577 OFFCURVE",
"347 560 OFFCURVE",
"386 529 CURVE",
"400 534 LINE",
"414 616 LINE",
"359 639 OFFCURVE",
"308 647 OFFCURVE",
"269 647 CURVE SMOOTH"
);
}
);
width = 475;
}
);
leftKerningGroup = S;
rightKerningGroup = S;
unicode = 0053;
},
{
color = 0;
glyphname = Saltillo;
lastChange = "2016-10-28 13:24:24 +0000";
layers = (
{
components = (
{
name = quotesingle;
transform = "{1, 0, 0, 1.4486, -21, -314}";
}
);
layerId = "EDFD1FE9-67C2-43D2-81E5-EF1682ABC3BD";
paths = (
{
closed = 0;
nodes = (
"66 153 LINE"
);
}
);
width = 131;
},
{
background = {
paths = (
{
closed = 1;
nodes = (
"34 609 LINE",
"56 596 OFFCURVE",
"74 574 OFFCURVE",
"74 547 CURVE SMOOTH",
"74 513 OFFCURVE",
"42 473 OFFCURVE",
"2 448 CURVE",
"2 438 LINE",
"20 423 LINE",
"75 452 OFFCURVE",
"148 506 OFFCURVE",
"148 578 CURVE SMOOTH",
"148 622 OFFCURVE",
"124 649 OFFCURVE",
"94 649 CURVE SMOOTH",
"72 649 OFFCURVE",
"49 633 OFFCURVE",
"36 623 CURVE"
);
}
);
};
components = (
{
name = quotesingle;
transform = "{1, 0, 0, 1.404, -26, -280}";
}
);
layerId = "083C0576-DCB5-487A-B9F4-85809F200F55";
paths = (
{
closed = 0;
nodes = (
"64 153 LINE"
);
}
);
width = 121;
}
);
leftKerningGroup = asterisk;
rightKerningGroup = asterisk;
unicode = A78B;
},
{
color = 1;
glyphname = Germandbls;
lastChange = "2016-10-28 13:24:24 +0000";
layers = (
{
layerId = "EDFD1FE9-67C2-43D2-81E5-EF1682ABC3BD";
paths = (
{
closed = 1;
nodes = (
"167 647 OFFCURVE",
"73 557 OFFCURVE",
"73 423 CURVE SMOOTH",
"75 190 LINE",
"72 0 LINE",
"157 0 LINE",
"154 201 LINE",
"156 423 LINE SMOOTH",
"155 519 OFFCURVE",
"215 577 OFFCURVE",
"317 577 CURVE SMOOTH",
"363 577 OFFCURVE",
"406 567 OFFCURVE",
"455 544 CURVE",
"292 337 LINE",
"296 319 LINE",
"448 280 OFFCURVE",
"520 236 OFFCURVE",
"520 164 CURVE SMOOTH",
"520 105 OFFCURVE",
"476 60 OFFCURVE",
"407 60 CURVE SMOOTH",
"364 60 OFFCURVE",
"305 79 OFFCURVE",
"258 117 CURVE",
"248 112 LINE",
"236 37 LINE",
"284 8 OFFCURVE",
"350 -7 OFFCURVE",
"404 -7 CURVE SMOOTH",
"516 -7 OFFCURVE",
"605 59 OFFCURVE",
"605 172 CURVE SMOOTH",
"605 272 OFFCURVE",
"532 321 OFFCURVE",
"395 361 CURVE",
"561 571 LINE",
"556 586 LINE",
"469 627 OFFCURVE",
"401 647 OFFCURVE",
"324 647 CURVE SMOOTH"
);
}
);
width = 635;
},
{
background = {
paths = (
{
closed = 1;
nodes = (
"71 641 LINE",
"77 193 LINE",
"71 0 LINE",
"158 0 LINE",
"154 200 LINE",
"159 641 LINE"
);
}
);
};
layerId = "083C0576-DCB5-487A-B9F4-85809F200F55";
paths = (
{
closed = 1;
nodes = (
"167 647 OFFCURVE",
"72 557 OFFCURVE",
"74 423 CURVE SMOOTH",
"77 190 LINE",
"71 0 LINE",
"158 0 LINE",
"154 201 LINE",
"156 423 LINE SMOOTH",
"157 519 OFFCURVE",
"215 576 OFFCURVE",
"320 576 CURVE SMOOTH",
"363 576 OFFCURVE",
"406 566 OFFCURVE",
"456 543 CURVE",
"292 337 LINE",
"297 319 LINE",
"455 275 OFFCURVE",
"521 234 OFFCURVE",
"521 163 CURVE SMOOTH",
"521 105 OFFCURVE",
"477 62 OFFCURVE",
"413 62 CURVE SMOOTH",
"363 62 OFFCURVE",
"305 88 OFFCURVE",
"259 131 CURVE",
"248 126 LINE",
"237 37 LINE",
"289 8 OFFCURVE",
"351 -7 OFFCURVE",
"405 -7 CURVE SMOOTH",
"516 -7 OFFCURVE",
"606 58 OFFCURVE",
"606 172 CURVE SMOOTH",
"606 275 OFFCURVE",
"532 323 OFFCURVE",
"400 366 CURVE",
"564 567 LINE",
"560 584 LINE",
"482 621 OFFCURVE",
"405 647 OFFCURVE",
"322 647 CURVE SMOOTH"
);
}
);
width = 635;
}
);
leftKerningGroup = Germandbls;
rightKerningGroup = Germandbls;
unicode = 1E9E;
},
{
color = 1;
glyphname = T;
lastChange = "2016-10-28 13:24:24 +0000";
layers = (
{
anchors = (
{
name = bottom;
position = "{241, 0}";
},
{
name = center;
position = "{249, 321}";
},
{
name = top;
position = "{249, 641}";
}
);
layerId = "EDFD1FE9-67C2-43D2-81E5-EF1682ABC3BD";
paths = (
{
closed = 1;
nodes = (
"205 627 LINE",
"207 193 LINE",
"204 0 LINE",
"289 0 LINE",
"286 200 LINE",
"289 627 LINE"
);
},
{
closed = 1;
nodes = (
"27 641 LINE",
"21 578 LINE",
"27 570 LINE",
"142 572 LINE",
"352 572 LINE",
"464 570 LINE",
"471 633 LINE",
"465 641 LINE"
);
}
);
width = 492;
},
{
anchors = (
{
name = bottom;
position = "{241, 0}";
},
{
name = center;
position = "{249, 321}";
},
{
name = top;
position = "{249, 641}";
}
);
background = {
paths = (
{
closed = 1;
nodes = (
"75 570 LINE",
"246 573 LINE",
"431 570 LINE",
"431 644 LINE",
"253 641 LINE",
"75 644 LINE"
);
}
);
};
layerId = "083C0576-DCB5-487A-B9F4-85809F200F55";
paths = (
{
closed = 1;
nodes = (
"203 631 LINE",
"209 193 LINE",
"203 0 LINE",
"290 0 LINE",
"286 200 LINE",
"291 631 LINE"
);
},
{
closed = 1;
nodes = (
"28 641 LINE",
"21 575 LINE",
"27 567 LINE",
"142 573 LINE",
"352 573 LINE",
"465 567 LINE",
"471 633 LINE",
"465 641 LINE"
);
}
);
width = 491;
}
);
leftKerningGroup = T;
rightKerningGroup = T;
unicode = 0054;
},
{
color = 0;
glyphname = Tbar;
lastChange = "2016-10-28 13:24:24 +0000";
layers = (
{
components = (
{
name = T;
}
);
layerId = "EDFD1FE9-67C2-43D2-81E5-EF1682ABC3BD";
paths = (
{
closed = 1;
nodes = (
"113 345 LINE",
"110 302 LINE",
"116 295 LINE",
"388 295 LINE",
"392 338 LINE",
"386 345 LINE"
);
}
);
width = 491;
},
{
background = {
components = (
{
name = T;
}
);
paths = (
{
closed = 1;
nodes = (
"220 345 OFFCURVE",
"138 346 OFFCURVE",
"138 346 CURVE",
"131 307 LINE",
"140 298 LINE",
"140 298 OFFCURVE",
"203 299 OFFCURVE",
"253 299 CURVE SMOOTH",
"392 300 LINE",
"396 337 LINE",
"383 350 LINE",
"383 350 OFFCURVE",
"318 345 OFFCURVE",
"275 345 CURVE SMOOTH"
);
}
);
};
components = (
{
name = T;
}
);
layerId = "083C0576-DCB5-487A-B9F4-85809F200F55";
paths = (
{
closed = 1;
nodes = (
"110 345 LINE",
"106 298 LINE",
"112 292 LINE",
"395 292 LINE",
"399 339 LINE",
"392 345 LINE"
);
}
);
width = 491;
}
);
leftKerningGroup = T;
rightKerningGroup = T;
unicode = 0166;
},
{
color = 1;
glyphname = U;
lastChange = "2016-10-28 13:24:24 +0000";
layers = (
{
anchors = (
{
name = ogonek;
position = "{518, 10}";
},
{
name = top;
position = "{316, 641}";
}
);
layerId = "EDFD1FE9-67C2-43D2-81E5-EF1682ABC3BD";
paths = (
{
closed = 1;
nodes = (
"469 641 LINE",
"472 234 LINE SMOOTH",
"472 122 OFFCURVE",
"418 63 OFFCURVE",
"313 63 CURVE SMOOTH",
"207 63 OFFCURVE",
"153 122 OFFCURVE",
"154 234 CURVE SMOOTH",
"157 641 LINE",
"72 641 LINE",
"74 321 LINE",
"73 224 LINE SMOOTH",
"71 75 OFFCURVE",
"155 -7 OFFCURVE",
"310 -7 CURVE SMOOTH",
"466 -7 OFFCURVE",
"555 77 OFFCURVE",
"552 224 CURVE",
"553 315 LINE",
"555 641 LINE"
);
}
);
width = 627;
},
{
anchors = (
{
name = ogonek;
position = "{518, 10}";
},
{
name = top;
position = "{316, 641}";
}
);
background = {
paths = (
{
closed = 1;
nodes = (
"70 641 LINE",
"76 193 LINE",
"70 0 LINE",
"157 0 LINE",
"153 200 LINE",
"158 641 LINE"
);
},
{
closed = 1;
nodes = (
"468 641 LINE",
"474 193 LINE",
"468 0 LINE",
"555 0 LINE",
"551 200 LINE",
"556 641 LINE"
);
}
);
};
layerId = "083C0576-DCB5-487A-B9F4-85809F200F55";
paths = (
{
closed = 1;
nodes = (
"469 641 LINE",
"473 235 LINE SMOOTH",
"474 123 OFFCURVE",
"418 68 OFFCURVE",
"313 68 CURVE SMOOTH",
"207 68 OFFCURVE",
"153 127 OFFCURVE",
"154 246 CURVE SMOOTH",
"158 641 LINE",
"73 641 LINE",
"74 321 LINE",
"73 235 LINE SMOOTH",
"70 80 OFFCURVE",
"154 -7 OFFCURVE",
"306 -7 CURVE SMOOTH",
"465 -7 OFFCURVE",
"555 85 OFFCURVE",
"552 244 CURVE",
"553 315 LINE",
"555 641 LINE"
);
}
);
width = 627;
}
);
leftKerningGroup = U;
rightKerningGroup = U;
unicode = 0055;
},
{
color = 0;
glyphname = Uhorn;
lastChange = "2016-10-28 13:24:24 +0000";
layers = (
{
anchors = (
{
name = top;
position = "{316, 641}";
}
);
components = (
{
name = U;
}
);
layerId = "EDFD1FE9-67C2-43D2-81E5-EF1682ABC3BD";
paths = (
{
closed = 1;
nodes = (
"573 777 OFFCURVE",
"558 770 OFFCURVE",
"544 760 CURVE",
"542 752 LINE",
"565 731 OFFCURVE",
"574 712 OFFCURVE",
"574 692 CURVE SMOOTH",
"574 659 OFFCURVE",
"551 641 OFFCURVE",
"509 641 CURVE",
"520 595 LINE",
"592 600 OFFCURVE",
"641 642 OFFCURVE",
"641 698 CURVE SMOOTH",
"641 743 OFFCURVE",
"610 777 OFFCURVE",
"586 777 CURVE SMOOTH"
);
}
);
width = 637;
},
{
anchors = (
{
name = top;
position = "{316, 641}";
}
);
background = {
paths = (
{
closed = 1;
nodes = (
"192 544 LINE",
"194 582 OFFCURVE",
"206 594 OFFCURVE",
"256 601 CURVE",
"260 646 LINE",
"260 646 OFFCURVE",
"198 637 OFFCURVE",
"155 637 CURVE SMOOTH",
"117 637 OFFCURVE",
"42 640 OFFCURVE",
"42 640 CURVE",
"35 596 LINE",
"37 592 LINE",
"37 592 OFFCURVE",
"59 594 OFFCURVE",
"71 594 CURVE SMOOTH",
"101 594 OFFCURVE",
"108 583 OFFCURVE",
"108 540 CURVE SMOOTH",
"108 209 LINE SMOOTH",
"108 68 OFFCURVE",
"187 -12 OFFCURVE",
"327 -12 CURVE SMOOTH",
"484 -12 OFFCURVE",
"575 68 OFFCURVE",
"575 208 CURVE SMOOTH",
"575 544 LINE SMOOTH",
"575 589 OFFCURVE",
"600 595 OFFCURVE",
"628 609 CURVE SMOOTH",
"653 622 OFFCURVE",
"680 649 OFFCURVE",
"680 705 CURVE SMOOTH",
"680 741 OFFCURVE",
"660 763 OFFCURVE",
"629 763 CURVE SMOOTH",
"613 763 OFFCURVE",
"594 753 OFFCURVE",
"573 737 CURVE",
"571 723 LINE",
"591 710 OFFCURVE",
"603 690 OFFCURVE",
"603 673 CURVE SMOOTH",
"603 649 OFFCURVE",
"590 637 OFFCURVE",
"562 637 CURVE SMOOTH",
"511 637 OFFCURVE",
"438 640 OFFCURVE",
"438 640 CURVE",
"431 596 LINE",
"433 592 LINE",
"433 592 OFFCURVE",
"464 594 OFFCURVE",
"476 594 CURVE SMOOTH",
"505 594 OFFCURVE",
"510 587 OFFCURVE",
"513 540 CURVE",
"513 540 OFFCURVE",
"519 284 OFFCURVE",
"519 214 CURVE SMOOTH",
"519 104 OFFCURVE",
"460 45 OFFCURVE",
"351 45 CURVE SMOOTH",
"243 45 OFFCURVE",
"184 118 OFFCURVE",
"184 250 CURVE"
);
}
);
};
components = (
{
name = U;
}
);
layerId = "083C0576-DCB5-487A-B9F4-85809F200F55";
paths = (
{
closed = 1;
nodes = (
"572 777 OFFCURVE",
"558 770 OFFCURVE",
"544 760 CURVE",
"541 752 LINE",
"565 731 OFFCURVE",
"574 712 OFFCURVE",
"574 692 CURVE SMOOTH",
"574 659 OFFCURVE",
"551 641 OFFCURVE",
"509 641 CURVE",
"519 595 LINE",
"592 600 OFFCURVE",
"641 642 OFFCURVE",
"641 698 CURVE SMOOTH",
"641 743 OFFCURVE",
"610 777 OFFCURVE",
"585 777 CURVE SMOOTH"
);
}
);
width = 637;
}
);
leftKerningGroup = U;
rightKerningGroup = Uhorn;
unicode = 01AF;
},
{
color = 0;
glyphname = Uogonek;
lastChange = "2016-10-28 13:24:24 +0000";
layers = (
{
components = (
{
name = U;
}
);
layerId = "EDFD1FE9-67C2-43D2-81E5-EF1682ABC3BD";
paths = (
{
closed = 1;
nodes = (
"435 57 LINE",
"362 -49 LINE SMOOTH",
"346 -73 OFFCURVE",
"337 -97 OFFCURVE",
"337 -120 CURVE SMOOTH",
"337 -165 OFFCURVE",
"368 -197 OFFCURVE",
"416 -197 CURVE SMOOTH",
"452 -197 OFFCURVE",
"484 -178 OFFCURVE",
"516 -144 CURVE",
"505 -108 LINE",
"500 -108 LINE",
"477 -134 OFFCURVE",
"451 -149 OFFCURVE",
"426 -149 CURVE SMOOTH",
"399 -149 OFFCURVE",
"385 -132 OFFCURVE",
"385 -108 CURVE SMOOTH",
"385 -93 OFFCURVE",
"390 -77 OFFCURVE",
"403 -58 CURVE SMOOTH",
"479 57 LINE"
);
}
);
width = 627;
},
{
background = {
paths = (
{
closed = 1;
nodes = (
"389 0 LINE",
"348 -58 OFFCURVE",
"336 -87 OFFCURVE",
"336 -118 CURVE SMOOTH",
"336 -167 OFFCURVE",
"367 -197 OFFCURVE",
"414 -197 CURVE SMOOTH",
"451 -197 OFFCURVE",
"483 -178 OFFCURVE",
"515 -144 CURVE",
"504 -104 LINE",
"499 -104 LINE",
"476 -126 OFFCURVE",
"450 -140 OFFCURVE",
"425 -140 CURVE SMOOTH",
"403 -140 OFFCURVE",
"392 -129 OFFCURVE",
"392 -106 CURVE SMOOTH",
"392 -83 OFFCURVE",
"403 -56 OFFCURVE",
"442 1 CURVE"
);
}
);
};
components = (
{
name = U;
}
);
layerId = "083C0576-DCB5-487A-B9F4-85809F200F55";
paths = (
{
closed = 1;
nodes = (
"428 57 LINE",
"359 -49 LINE SMOOTH",
"343 -73 OFFCURVE",
"337 -95 OFFCURVE",
"337 -116 CURVE SMOOTH",
"337 -164 OFFCURVE",
"368 -197 OFFCURVE",
"416 -197 CURVE SMOOTH",
"452 -197 OFFCURVE",
"484 -178 OFFCURVE",
"516 -144 CURVE",
"504 -104 LINE",
"499 -104 LINE",
"476 -129 OFFCURVE",
"450 -141 OFFCURVE",
"427 -141 CURVE SMOOTH",
"402 -141 OFFCURVE",
"391 -128 OFFCURVE",
"391 -108 CURVE SMOOTH",
"391 -94 OFFCURVE",
"397 -75 OFFCURVE",
"408 -58 CURVE SMOOTH",
"478 57 LINE"
);
}
);
width = 627;
}
);
leftKerningGroup = U;
rightKerningGroup = U;
unicode = 0172;
},
{
color = 1;
glyphname = V;
lastChange = "2016-10-28 13:24:24 +0000";
layers = (
{
layerId = "EDFD1FE9-67C2-43D2-81E5-EF1682ABC3BD";
paths = (
{
closed = 1;
nodes = (
"474 641 LINE",
"458 570 LINE",
"283 86 LINE",
"276 86 LINE",
"117 574 LINE",
"102 641 LINE",
"14 641 LINE",
"227 0 LINE",
"327 0 LINE",
"560 641 LINE SMOOTH"
);
}
);
width = 566;
},
{
background = {
paths = (
{
closed = 1;
nodes = (
"169 275 OFFCURVE",
"258 -17 OFFCURVE",
"258 -17 CURVE",
"322 5 LINE",
"537 545 LINE",
"551 583 OFFCURVE",
"562 591 OFFCURVE",
"603 593 CURVE",
"611 640 LINE",
"611 640 OFFCURVE",
"549 637 OFFCURVE",
"501 637 CURVE SMOOTH",
"435 637 OFFCURVE",
"358 644 OFFCURVE",
"358 644 CURVE",
"352 601 LINE",
"354 597 LINE",
"406 597 LINE SMOOTH",
"455 597 OFFCURVE",
"475 585 OFFCURVE",
"475 557 CURVE SMOOTH",
"475 527 OFFCURVE",
"361 231 OFFCURVE",
"309 97 CURVE",
"300 97 LINE",
"300 97 OFFCURVE",
"174 528 OFFCURVE",
"174 560 CURVE SMOOTH",
"174 589 OFFCURVE",
"192 597 OFFCURVE",
"263 602 CURVE",
"267 641 LINE",
"264 648 LINE",
"264 648 OFFCURVE",
"167 637 OFFCURVE",
"114 637 CURVE SMOOTH",
"80 637 OFFCURVE",
"-2 640 OFFCURVE",
"-2 640 CURVE",
"-9 597 LINE",
"-7 593 LINE",
"45 592 OFFCURVE",
"73 574 OFFCURVE",
"85 536 CURVE SMOOTH"
);
}
);
};
layerId = "083C0576-DCB5-487A-B9F4-85809F200F55";
paths = (
{
closed = 1;
nodes = (
"474 641 LINE",
"458 570 LINE",
"282 86 LINE",
"276 86 LINE",
"117 574 LINE",
"102 641 LINE",
"14 641 LINE",
"227 0 LINE",
"327 0 LINE",
"560 641 LINE SMOOTH"
);
}
);
width = 566;
}
);
leftKerningGroup = V;
rightKerningGroup = V;
unicode = 0056;
},
{
color = 1;
glyphname = W;
lastChange = "2016-10-28 13:24:24 +0000";
layers = (
{
anchors = (
{
name = top;
position = "{440, 641}";
}
);
layerId = "EDFD1FE9-67C2-43D2-81E5-EF1682ABC3BD";
paths = (
{
closed = 1;
nodes = (
"805 641 LINE",
"790 573 LINE",
"622 94 LINE",
"615 94 LINE",
"461 570 LINE",
"448 641 LINE",
"361 641 LINE",
"411 480 LINE",
"276 94 LINE",
"269 94 LINE",
"118 577 LINE",
"106 641 LINE",
"21 641 LINE",
"222 0 LINE",
"312 0 LINE",
"441 364 LINE",
"447 364 LINE",
"569 0 LINE",
"658 0 LINE",
"887 641 LINE"
);
}
);
width = 895;
},
{
anchors = (
{
name = top;
position = "{440, 641}";
}
);
background = {
paths = (
{
closed = 1;
nodes = (
"650 5 LINE",
"860 545 LINE",
"874 584 OFFCURVE",
"885 591 OFFCURVE",
"924 593 CURVE",
"931 640 LINE",
"931 640 OFFCURVE",
"871 637 OFFCURVE",
"825 637 CURVE SMOOTH",
"761 637 OFFCURVE",
"686 644 OFFCURVE",
"686 644 CURVE",
"679 601 LINE",
"681 597 LINE",
"731 597 LINE SMOOTH",
"779 597 OFFCURVE",
"799 587 OFFCURVE",
"799 562 CURVE SMOOTH",
"799 532 OFFCURVE",
"687 232 OFFCURVE",
"637 97 CURVE",
"631 97 LINE",
"631 97 OFFCURVE",
"507 527 OFFCURVE",
"507 560 CURVE SMOOTH",
"507 589 OFFCURVE",
"525 597 OFFCURVE",
"594 602 CURVE",
"598 641 LINE",
"595 648 LINE",
"595 648 OFFCURVE",
"510 637 OFFCURVE",
"450 637 CURVE SMOOTH",
"417 637 OFFCURVE",
"337 640 OFFCURVE",
"337 640 CURVE",
"330 597 LINE",
"332 593 LINE",
"381 591 OFFCURVE",
"409 576 OFFCURVE",
"422 536 CURVE SMOOTH",
"428 518 OFFCURVE",
"434 499 OFFCURVE",
"440 481 CURVE",
"393 353 OFFCURVE",
"346 225 OFFCURVE",
"299 97 CURVE",
"293 97 LINE",
"293 97 OFFCURVE",
"170 522 OFFCURVE",
"170 561 CURVE SMOOTH",
"170 589 OFFCURVE",
"188 597 OFFCURVE",
"256 602 CURVE",
"260 641 LINE",
"257 648 LINE",
"257 648 OFFCURVE",
"183 637 OFFCURVE",
"112 637 CURVE SMOOTH",
"79 637 OFFCURVE",
"-1 640 OFFCURVE",
"-1 640 CURVE",
"-7 597 LINE",
"-7 596 OFFCURVE",
"-6 594 OFFCURVE",
"-6 593 CURVE",
"44 592 OFFCURVE",
"72 574 OFFCURVE",
"84 536 CURVE SMOOTH",
"168 276 OFFCURVE",
"251 -17 OFFCURVE",
"251 -17 CURVE",
"315 5 LINE",
"457 407 LINE",
"463 407 LINE",
"531 188 OFFCURVE",
"588 -17 OFFCURVE",
"588 -17 CURVE"
);
}
);
};
layerId = "083C0576-DCB5-487A-B9F4-85809F200F55";
paths = (
{
closed = 1;
nodes = (
"805 641 LINE",
"790 573 LINE",
"621 94 LINE",
"614 94 LINE",
"461 570 LINE",
"445 641 LINE",
"357 641 LINE",
"411 480 LINE",
"276 94 LINE",
"269 94 LINE",
"117 578 LINE",
"106 641 LINE",
"21 641 LINE",
"222 0 LINE",
"312 0 LINE",
"440 365 LINE",
"447 365 LINE",
"569 0 LINE",
"658 0 LINE",
"886 641 LINE"
);
}
);
width = 894;
}
);
leftKerningGroup = V;
rightKerningGroup = V;
unicode = 0057;
},
{
color = 1;
glyphname = X;
lastChange = "2016-10-28 13:24:24 +0000";
layers = (
{
layerId = "EDFD1FE9-67C2-43D2-81E5-EF1682ABC3BD";
paths = (
{
closed = 1;
nodes = (
"456 641 LINE",
"429 590 LINE",
"295 389 LINE",
"161 589 LINE",
"134 641 LINE",
"29 641 LINE",
"238 323 LINE",
"22 0 LINE",
"113 0 LINE",
"139 48 LINE",
"289 267 LINE",
"433 53 LINE",
"460 0 LINE",
"564 0 LINE",
"346 334 LINE",
"548 641 LINE"
);
}
);
width = 591;
},
{
background = {
paths = (
{
closed = 1;
nodes = (
"291 318 LINE",
"160 514 LINE SMOOTH",
"127 563 OFFCURVE",
"84 589 OFFCURVE",
"23 597 CURVE",
"21 601 LINE",
"27 640 LINE",
"27 640 OFFCURVE",
"125 637 OFFCURVE",
"171 637 CURVE SMOOTH",
"250 637 OFFCURVE",
"306 645 OFFCURVE",
"306 645 CURVE",
"309 638 LINE",
"306 603 LINE",
"251 599 OFFCURVE",
"228 589 OFFCURVE",
"228 567 CURVE SMOOTH",
"228 551 OFFCURVE",
"274 479 OFFCURVE",
"341 377 CURVE",
"386 439 OFFCURVE",
"472 543 OFFCURVE",
"472 571 CURVE SMOOTH",
"472 589 OFFCURVE",
"455 597 OFFCURVE",
"414 601 CURVE",
"412 605 LINE",
"418 644 LINE",
"418 644 OFFCURVE",
"491 637 OFFCURVE",
"528 637 CURVE SMOOTH",
"567 637 OFFCURVE",
"625 641 OFFCURVE",
"625 641 CURVE",
"629 634 LINE",
"623 597 LINE",
"563 585 OFFCURVE",
"542 562 OFFCURVE",
"487 493 CURVE SMOOTH",
"366 340 LINE",
"512 127 LINE SMOOTH",
"548 75 OFFCURVE",
"586 50 OFFCURVE",
"649 44 CURVE",
"651 40 LINE",
"644 -3 LINE",
"644 -3 OFFCURVE",
"566 0 OFFCURVE",
"520 0 CURVE SMOOTH",
"464 0 OFFCURVE",
"365 -8 OFFCURVE",
"365 -8 CURVE",
"362 -1 LINE",
"366 38 LINE",
"419 41 OFFCURVE",
"444 50 OFFCURVE",
"444 73 CURVE SMOOTH",
"444 85 OFFCURVE",
"437 98 OFFCURVE",
"424 117 CURVE SMOOTH",
"315 281 LINE",
"223 159 LINE SMOOTH",
"184 107 OFFCURVE",
"172 89 OFFCURVE",
"172 70 CURVE SMOOTH",
"172 52 OFFCURVE",
"190 43 OFFCURVE",
"230 40 CURVE",
"232 36 LINE",
"225 -7 LINE",
"225 -7 OFFCURVE",
"152 0 OFFCURVE",
"115 0 CURVE SMOOTH",
"76 0 OFFCURVE",
"16 -4 OFFCURVE",
"16 -4 CURVE",
"12 3 LINE",
"19 44 LINE",
"78 61 OFFCURVE",
"121 108 OFFCURVE",
"181 182 CURVE SMOOTH"
);
}
);
};
layerId = "083C0576-DCB5-487A-B9F4-85809F200F55";
paths = (
{
closed = 1;
nodes = (
"455 641 LINE",
"429 590 LINE",
"294 389 LINE",
"160 589 LINE",
"133 641 LINE",
"29 641 LINE",
"238 323 LINE",
"22 0 LINE",
"113 0 LINE",
"139 48 LINE",
"288 267 LINE",
"432 53 LINE",
"460 0 LINE",
"564 0 LINE",
"346 334 LINE",
"548 641 LINE"
);
}
);
width = 591;
}
);
leftKerningGroup = X;
rightKerningGroup = X;
unicode = 0058;
},
{
color = 1;
glyphname = Y;
lastChange = "2016-10-28 13:24:24 +0000";
layers = (
{
anchors = (
{
name = top;
position = "{260, 641}";
}
);
layerId = "EDFD1FE9-67C2-43D2-81E5-EF1682ABC3BD";
paths = (
{
closed = 1;
nodes = (
"429 641 LINE",
"414 602 LINE",
"263 321 LINE",
"256 321 LINE",
"119 604 LINE",
"106 641 LINE",
"14 641 LINE",
"241 179 LINE",
"269 179 LINE",
"519 641 LINE SMOOTH"
);
},
{
closed = 1;
nodes = (
"216 273 LINE",
"218 186 LINE",
"214 0 LINE",
"299 0 LINE",
"296 186 LINE",
"299 273 LINE"
);
}
);
width = 531;
},
{
anchors = (
{
name = top;
position = "{260, 641}";
}
);
background = {
paths = (
{
closed = 1;
nodes = (
"213 641 LINE",
"219 193 LINE",
"213 0 LINE",
"300 0 LINE",
"296 200 LINE",
"301 641 LINE"
);
}
);
};
layerId = "083C0576-DCB5-487A-B9F4-85809F200F55";
paths = (
{
closed = 1;
nodes = (
"429 641 LINE",
"414 602 LINE",
"264 321 LINE",
"256 321 LINE",
"119 604 LINE",
"106 641 LINE",
"14 641 LINE",
"243 179 LINE",
"271 179 LINE",
"520 641 LINE SMOOTH"
);
},
{
closed = 1;
nodes = (
"217 273 LINE",
"219 186 LINE",
"213 0 LINE",
"300 0 LINE",
"296 186 LINE",
"298 273 LINE"
);
}
);
width = 531;
}
);
leftKerningGroup = Y;
rightKerningGroup = Y;
unicode = 0059;
},
{
color = 1;
glyphname = Z;
lastChange = "2016-10-28 13:24:24 +0000";
layers = (
{
anchors = (
{
name = top;
position = "{270, 641}";
}
);
layerId = "EDFD1FE9-67C2-43D2-81E5-EF1682ABC3BD";
paths = (
{
closed = 1;
nodes = (
"437 641 LINE",
"144 641 LINE",
"48 642 LINE",
"41 576 LINE",
"46 570 LINE",
"127 574 LINE",
"388 574 LINE",
"31 60 LINE",
"31 -3 LINE",
"90 0 LINE",
"376 0 LINE",
"487 -2 LINE",
"495 64 LINE",
"490 70 LINE",
"402 66 LINE",
"133 66 LINE",
"488 578 LINE",
"488 642 LINE"
);
}
);
width = 530;
},
{
anchors = (
{
name = top;
position = "{270, 641}";
}
);
background = {
paths = (
{
closed = 1;
nodes = (
"495 13 LINE",
"500 109 OFFCURVE",
"520 218 OFFCURVE",
"520 218 CURVE",
"473 213 LINE",
"451 99 OFFCURVE",
"410 48 OFFCURVE",
"341 47 CURVE",
"138 40 LINE",
"181 108 OFFCURVE",
"335 351 OFFCURVE",
"524 602 CURVE",
"513 631 LINE",
"255 638 LINE",
"80 649 LINE",
"70 640 LINE",
"68 548 OFFCURVE",
"52 445 OFFCURVE",
"52 445 CURVE",
"99 449 LINE",
"110 550 OFFCURVE",
"142 583 OFFCURVE",
"234 587 CURVE",
"407 593 LINE",
"34 29 LINE",
"48 -3 LINE",
"118 3 LINE",
"480 -3 LINE"
);
}
);
};
layerId = "083C0576-DCB5-487A-B9F4-85809F200F55";
paths = (
{
closed = 1;
nodes = (
"438 641 LINE",
"164 641 LINE",
"49 642 LINE",
"42 569 LINE",
"47 563 LINE",
"147 571 LINE",
"387 571 LINE",
"31 60 LINE",
"31 -3 LINE",
"90 0 LINE",
"367 0 LINE",
"488 -2 LINE",
"495 71 LINE",
"491 77 LINE",
"393 69 LINE",
"134 69 LINE",
"489 578 LINE",
"489 642 LINE"
);
}
);
width = 530;
}
);
leftKerningGroup = Z;
rightKerningGroup = Z;
unicode = 005A;
},
{
color = 0;
glyphname = Q.corta;
lastChange = "2016-10-28 13:24:24 +0000";
layers = (
{
layerId = "EDFD1FE9-67C2-43D2-81E5-EF1682ABC3BD";
paths = (
{
closed = 1;
nodes = (
"141 648 OFFCURVE",
"37 529 OFFCURVE",
"37 315 CURVE SMOOTH",
"37 109 OFFCURVE",
"135 -8 OFFCURVE",
"309 -8 CURVE SMOOTH",
"495 -8 OFFCURVE",
"600 115 OFFCURVE",
"600 333 CURVE SMOOTH",
"600 535 OFFCURVE",
"502 648 OFFCURVE",
"326 648 CURVE"
);
},
{
closed = 1;
nodes = (
"323 3 LINE",
"392 -75 OFFCURVE",
"481 -136 OFFCURVE",
"597 -188 CURVE",
"605 -185 LINE",
"620 -172 OFFCURVE",
"632 -154 OFFCURVE",
"645 -131 CURVE",
"642 -121 LINE",
"531 -80 OFFCURVE",
"449 -31 OFFCURVE",
"384 32 CURVE"
);
},
{
closed = 1;
nodes = (
"448 578 OFFCURVE",
"511 496 OFFCURVE",
"511 317 CURVE SMOOTH",
"511 142 OFFCURVE",
"446 59 OFFCURVE",
"316 59 CURVE SMOOTH",
"188 59 OFFCURVE",
"125 143 OFFCURVE",
"125 325 CURVE SMOOTH",
"125 496 OFFCURVE",
"190 578 OFFCURVE",
"320 578 CURVE SMOOTH"
);
}
);
width = 640;
},
{
background = {
paths = (
{
closed = 1;
nodes = (
"323 3 LINE",
"427 -92 OFFCURVE",
"554 -160 OFFCURVE",
"686 -193 CURVE",
"694 -190 LINE",
"710 -175 OFFCURVE",
"724 -156 OFFCURVE",
"737 -130 CURVE",
"734 -119 LINE",
"607 -97 OFFCURVE",
"485 -44 OFFCURVE",
"384 32 CURVE"
);
}
);
};
layerId = "083C0576-DCB5-487A-B9F4-85809F200F55";
paths = (
{
closed = 1;
nodes = (
"141 648 OFFCURVE",
"37 529 OFFCURVE",
"37 315 CURVE SMOOTH",
"37 109 OFFCURVE",
"134 -8 OFFCURVE",
"312 -8 CURVE SMOOTH",
"495 -8 OFFCURVE",
"600 117 OFFCURVE",
"600 330 CURVE SMOOTH",
"600 536 OFFCURVE",
"502 648 OFFCURVE",
"327 648 CURVE"
);
},
{
closed = 1;
nodes = (
"323 3 LINE",
"396 -73 OFFCURVE",
"485 -133 OFFCURVE",
"597 -188 CURVE",
"605 -185 LINE",
"620 -170 OFFCURVE",
"633 -150 OFFCURVE",
"645 -125 CURVE",
"642 -115 LINE",
"532 -75 OFFCURVE",
"450 -28 OFFCURVE",
"384 32 CURVE"
);
},
{
closed = 1;
nodes = (
"447 577 OFFCURVE",
"511 495 OFFCURVE",
"511 323 CURVE SMOOTH",
"511 147 OFFCURVE",
"444 63 OFFCURVE",
"317 63 CURVE SMOOTH",
"189 63 OFFCURVE",
"125 148 OFFCURVE",
"125 322 CURVE SMOOTH",
"125 495 OFFCURVE",
"188 577 OFFCURVE",
"318 577 CURVE SMOOTH"
);
}
);
width = 640;
}
);
leftKerningGroup = O;
rightKerningGroup = O;
},
{
color = 1;
glyphname = C.ss01;
lastChange = "2016-10-28 13:24:24 +0000";
layers = (
{
anchors = (
{
name = bottom;
position = "{264, 8}";
},
{
name = top;
position = "{263, 491}";
}
);
layerId = "EDFD1FE9-67C2-43D2-81E5-EF1682ABC3BD";
paths = (
{
closed = 1;
nodes = (
"-100 463 LINE",
"560 463 LINE",
"560 499 LINE",
"-100 499 LINE"
);
},
{
closed = 1;
nodes = (
"-100 0 LINE",
"560 0 LINE",
"560 36 LINE",
"-100 36 LINE"
);
},
{
closed = 1;
nodes = (
"133 496 OFFCURVE",
"49 405 OFFCURVE",
"49 247 CURVE SMOOTH",
"49 89 OFFCURVE",
"126 1 OFFCURVE",
"276 1 CURVE SMOOTH",
"320 1 OFFCURVE",
"368 13 OFFCURVE",
"410 36 CURVE",
"416 97 LINE",
"407 102 LINE",
"371 79 OFFCURVE",
"322 66 OFFCURVE",
"281 66 CURVE SMOOTH",
"181 66 OFFCURVE",
"129 130 OFFCURVE",
"129 254 CURVE SMOOTH",
"129 373 OFFCURVE",
"181 433 OFFCURVE",
"282 433 CURVE SMOOTH",
"323 433 OFFCURVE",
"366 420 OFFCURVE",
"399 398 CURVE",
"407 401 LINE",
"421 463 LINE",
"382 484 OFFCURVE",
"334 496 OFFCURVE",
"284 496 CURVE SMOOTH"
);
}
);
width = 460;
},
{
anchors = (
{
name = bottom;
position = "{264, 8}";
},
{
name = top;
position = "{263, 492}";
}
);
background = {
paths = (
{
closed = 1;
nodes = (
"457 22 LINE",
"463 30 LINE",
"468 89 OFFCURVE",
"484 163 OFFCURVE",
"484 163 CURVE",
"434 159 LINE",
"415 77 OFFCURVE",
"374 45 OFFCURVE",
"304 45 CURVE SMOOTH",
"197 45 OFFCURVE",
"129 125 OFFCURVE",
"129 259 CURVE SMOOTH",
"129 380 OFFCURVE",
"193 452 OFFCURVE",
"297 452 CURVE SMOOTH",
"372 452 OFFCURVE",
"409 429 OFFCURVE",
"409 382 CURVE SMOOTH",
"409 363 OFFCURVE",
"407 343 OFFCURVE",
"407 343 CURVE",
"457 346 LINE",
"462 422 OFFCURVE",
"478 482 OFFCURVE",
"478 482 CURVE",
"474 488 LINE",
"202 483 LINE",
"104 442 OFFCURVE",
"41 350 OFFCURVE",
"41 233 CURVE SMOOTH",
"41 134 OFFCURVE",
"83 60 OFFCURVE",
"155 21 CURVE"
);
},
{
closed = 1;
nodes = (
"-20 462 LINE",
"553 462 LINE",
"553 497 LINE",
"-20 497 LINE"
);
},
{
closed = 1;
nodes = (
"-20 0 LINE",
"553 0 LINE",
"553 35 LINE",
"-20 35 LINE"
);
}
);
};
layerId = "083C0576-DCB5-487A-B9F4-85809F200F55";
paths = (
{
closed = 1;
nodes = (
"-100 463 LINE",
"560 463 LINE",
"560 499 LINE",
"-100 499 LINE"
);
},
{
closed = 1;
nodes = (
"-100 0 LINE",
"560 0 LINE",
"560 36 LINE",
"-100 36 LINE"
);
},
{
closed = 1;
nodes = (
"134 497 OFFCURVE",
"49 408 OFFCURVE",
"49 247 CURVE SMOOTH",
"49 89 OFFCURVE",
"129 2 OFFCURVE",
"272 2 CURVE SMOOTH",
"324 2 OFFCURVE",
"367 14 OFFCURVE",
"410 36 CURVE",
"416 108 LINE",
"408 112 LINE",
"371 85 OFFCURVE",
"322 67 OFFCURVE",
"275 67 CURVE SMOOTH",
"182 67 OFFCURVE",
"130 132 OFFCURVE",
"130 253 CURVE SMOOTH",
"130 375 OFFCURVE",
"182 433 OFFCURVE",
"274 433 CURVE SMOOTH",
"323 433 OFFCURVE",
"367 416 OFFCURVE",
"399 389 CURVE",
"408 392 LINE",
"422 464 LINE",
"383 485 OFFCURVE",
"336 497 OFFCURVE",
"282 497 CURVE SMOOTH"
);
}
);
width = 460;
}
);
},
{
color = 1;
glyphname = D.ss01;
lastChange = "2016-10-28 13:24:24 +0000";
layers = (
{
anchors = (
{
name = center;
position = "{270, 249}";
},
{
name = top;
position = "{268, 491}";
}
);
layerId = "EDFD1FE9-67C2-43D2-81E5-EF1682ABC3BD";
paths = (
{
closed = 1;
nodes = (
"-100 463 LINE",
"666 463 LINE",
"666 499 LINE",
"-100 499 LINE"
);
},
{
closed = 1;
nodes = (
"-100 0 LINE",
"666 0 LINE",
"666 36 LINE",
"-100 36 LINE"
);
},
{
closed = 1;
nodes = (
"94 491 LINE",
"160 428 LINE",
"184 431 OFFCURVE",
"262 432 OFFCURVE",
"281 432 CURVE SMOOTH",
"385 432 OFFCURVE",
"436 374 OFFCURVE",
"436 249 CURVE SMOOTH",
"436 122 OFFCURVE",
"379 60 OFFCURVE",
"279 60 CURVE SMOOTH",
"258 60 OFFCURVE",
"184 64 OFFCURVE",
"159 67 CURVE",
"94 6 LINE",
"141 3 OFFCURVE",
"232 0 OFFCURVE",
"266 0 CURVE",
"427 0 OFFCURVE",
"516 95 OFFCURVE",
"516 266 CURVE SMOOTH",
"516 413 OFFCURVE",
"435 495 OFFCURVE",
"287 495 CURVE"
);
},
{
closed = 1;
nodes = (
"94 491 LINE",
"98 151 LINE",
"94 6 LINE",
"171 6 LINE",
"168 159 LINE",
"172 491 LINE"
);
}
);
width = 566;
},
{
anchors = (
{
name = center;
position = "{270, 249}";
},
{
name = top;
position = "{268, 492}";
}
);
background = {
paths = (
{
closed = 1;
nodes = (
"412 25 LINE",
"501 72 OFFCURVE",
"555 163 OFFCURVE",
"555 268 CURVE SMOOTH",
"555 352 OFFCURVE",
"514 424 OFFCURVE",
"445 465 CURVE",
"94 462 LINE",
"117 462 OFFCURVE",
"123 453 OFFCURVE",
"123 420 CURVE SMOOTH",
"122 101 LINE SMOOTH",
"122 57 OFFCURVE",
"107 35 OFFCURVE",
"60 35 CURVE"
);
},
{
closed = 1;
nodes = (
"386 452 OFFCURVE",
"467 382 OFFCURVE",
"467 248 CURVE SMOOTH",
"467 117 OFFCURVE",
"406 45 OFFCURVE",
"293 45 CURVE SMOOTH",
"215 45 OFFCURVE",
"193 60 OFFCURVE",
"193 112 CURVE SMOOTH",
"193 147 OFFCURVE",
"195 190 OFFCURVE",
"205 434 CURVE SMOOTH",
"206 448 OFFCURVE",
"211 452 OFFCURVE",
"233 452 CURVE SMOOTH"
);
},
{
closed = 1;
nodes = (
"-20 462 LINE",
"616 462 LINE",
"616 497 LINE",
"-20 497 LINE"
);
},
{
closed = 1;
nodes = (
"-20 0 LINE",
"616 0 LINE",
"616 35 LINE",
"-20 35 LINE"
);
}
);
};
layerId = "083C0576-DCB5-487A-B9F4-85809F200F55";
paths = (
{
closed = 1;
nodes = (
"-100 463 LINE",
"666 463 LINE",
"666 499 LINE",
"-100 499 LINE"
);
},
{
closed = 1;
nodes = (
"-100 0 LINE",
"666 0 LINE",
"666 36 LINE",
"-100 36 LINE"
);
},
{
closed = 1;
nodes = (
"94 492 LINE",
"161 424 LINE",
"185 427 OFFCURVE",
"262 429 OFFCURVE",
"280 429 CURVE SMOOTH",
"384 429 OFFCURVE",
"436 374 OFFCURVE",
"436 249 CURVE SMOOTH",
"436 123 OFFCURVE",
"378 64 OFFCURVE",
"278 64 CURVE SMOOTH",
"258 64 OFFCURVE",
"184 68 OFFCURVE",
"158 71 CURVE",
"94 6 LINE",
"141 3 OFFCURVE",
"232 1 OFFCURVE",
"266 1 CURVE",
"426 1 OFFCURVE",
"516 96 OFFCURVE",
"516 266 CURVE SMOOTH",
"516 413 OFFCURVE",
"434 495 OFFCURVE",
"286 495 CURVE"
);
},
{
closed = 1;
nodes = (
"94 492 LINE",
"97 152 LINE",
"94 6 LINE",
"171 6 LINE",
"169 159 LINE",
"172 492 LINE"
);
}
);
width = 566;
}
);
},
{
color = 1;
glyphname = I.ss01;
lastChange = "2016-10-28 13:24:24 +0000";
layers = (
{
anchors = (
{
name = ogonek;
position = "{196, 9}";
},
{
name = top;
position = "{132, 497}";
}
);
layerId = "EDFD1FE9-67C2-43D2-81E5-EF1682ABC3BD";
paths = (
{
closed = 1;
nodes = (
"-100 463 LINE",
"361 463 LINE",
"361 499 LINE",
"-100 499 LINE"
);
},
{
closed = 1;
nodes = (
"-100 0 LINE",
"361 0 LINE",
"361 36 LINE",
"-100 36 LINE"
);
},
{
closed = 1;
nodes = (
"88 497 LINE",
"91 150 LINE",
"88 1 LINE",
"168 1 LINE",
"165 157 LINE",
"169 497 LINE"
);
}
);
width = 261;
},
{
anchors = (
{
name = ogonek;
position = "{196, 9}";
},
{
name = top;
position = "{132, 497}";
}
);
background = {
paths = (
{
closed = 1;
nodes = (
"206 460 OFFCURVE",
"215 462 OFFCURVE",
"259 462 CURVE",
"93 462 LINE",
"117 462 OFFCURVE",
"123 460 OFFCURVE",
"123 427 CURVE SMOOTH",
"122 95 LINE SMOOTH",
"122 51 OFFCURVE",
"111 35 OFFCURVE",
"58 35 CURVE",
"228 35 LINE",
"200 35 OFFCURVE",
"193 46 OFFCURVE",
"193 89 CURVE SMOOTH",
"193 159 OFFCURVE",
"198 323 OFFCURVE",
"204 430 CURVE SMOOTH"
);
},
{
closed = 1;
nodes = (
"-20 462 LINE",
"339 462 LINE",
"339 497 LINE",
"-20 497 LINE"
);
},
{
closed = 1;
nodes = (
"-20 0 LINE",
"339 0 LINE",
"339 35 LINE",
"-20 35 LINE"
);
}
);
};
layerId = "083C0576-DCB5-487A-B9F4-85809F200F55";
paths = (
{
closed = 1;
nodes = (
"-100 463 LINE",
"361 463 LINE",
"361 499 LINE",
"-100 499 LINE"
);
},
{
closed = 1;
nodes = (
"-100 0 LINE",
"361 0 LINE",
"361 36 LINE",
"-100 36 LINE"
);
},
{
closed = 1;
nodes = (
"88 497 LINE",
"91 150 LINE",
"88 1 LINE",
"168 1 LINE",
"165 157 LINE",
"169 497 LINE"
);
}
);
width = 261;
}
);
},
{
color = 11;
glyphname = L.ss01;
lastChange = "2016-10-28 13:24:24 +0000";
layers = (
{
layerId = "EDFD1FE9-67C2-43D2-81E5-EF1682ABC3BD";
paths = (
{
closed = 1;
nodes = (
"87 498 LINE",
"90 161 LINE",
"87 2 LINE",
"376 2 LINE",
"378 156 LINE",
"323 153 LINE",
"318 68 LINE",
"163 68 LINE",
"163 168 LINE",
"166 498 LINE"
);
},
{
closed = 1;
nodes = (
"-100 36 LINE",
"-100 0 LINE",
"496 0 LINE",
"496 36 LINE"
);
},
{
closed = 1;
nodes = (
"-100 499 LINE",
"-100 463 LINE",
"496 463 LINE",
"496 499 LINE"
);
}
);
width = 396;
},
{
background = {
paths = (
{
closed = 1;
nodes = (
"410 16 LINE",
"419 98 OFFCURVE",
"430 156 OFFCURVE",
"430 156 CURVE",
"427 162 LINE",
"383 157 LINE",
"366 59 OFFCURVE",
"349 35 OFFCURVE",
"258 35 CURVE SMOOTH",
"202 35 OFFCURVE",
"193 43 OFFCURVE",
"193 91 CURVE SMOOTH",
"193 170 OFFCURVE",
"196 305 OFFCURVE",
"203 399 CURVE SMOOTH",
"207 447 OFFCURVE",
"212 462 OFFCURVE",
"258 462 CURVE",
"93 462 LINE",
"117 462 OFFCURVE",
"123 454 OFFCURVE",
"123 420 CURVE SMOOTH",
"122 90 LINE SMOOTH",
"122 45 OFFCURVE",
"111 35 OFFCURVE",
"69 35 CURVE"
);
},
{
closed = 1;
nodes = (
"-20 462 LINE",
"462 462 LINE",
"462 497 LINE",
"-20 497 LINE"
);
},
{
closed = 1;
nodes = (
"-20 0 LINE",
"462 0 LINE",
"462 35 LINE",
"-20 35 LINE"
);
}
);
};
layerId = "083C0576-DCB5-487A-B9F4-85809F200F55";
paths = (
{
closed = 1;
nodes = (
"87 498 LINE",
"90 161 LINE",
"87 2 LINE",
"376 2 LINE",
"378 156 LINE",
"323 153 LINE",
"318 68 LINE",
"163 68 LINE",
"163 168 LINE",
"167 498 LINE"
);
},
{
closed = 1;
nodes = (
"-100 36 LINE",
"-100 0 LINE",
"496 0 LINE",
"496 36 LINE"
);
},
{
closed = 1;
nodes = (
"-100 499 LINE",
"-100 463 LINE",
"496 463 LINE",
"496 499 LINE"
);
}
);
width = 396;
}
);
},
{
color = 1;
glyphname = M.ss01;
lastChange = "2016-10-28 13:24:24 +0000";
layers = (
{
layerId = "EDFD1FE9-67C2-43D2-81E5-EF1682ABC3BD";
paths = (
{
closed = 1;
nodes = (
"-100 499 LINE",
"-100 463 LINE",
"783 463 LINE",
"783 499 LINE"
);
},
{
closed = 1;
nodes = (
"-100 36 LINE",
"-100 0 LINE",
"783 0 LINE",
"783 36 LINE"
);
},
{
closed = 1;
nodes = (
"473 488 LINE",
"448 424 LINE",
"342 183 LINE",
"336 183 LINE",
"236 422 LINE",
"212 488 LINE",
"124 488 LINE",
"71 11 LINE",
"137 11 LINE",
"149 170 LINE",
"173 378 LINE",
"178 378 LINE",
"304 84 LINE",
"366 84 LINE",
"499 378 LINE",
"505 378 LINE",
"528 165 LINE",
"539 11 LINE",
"607 11 LINE",
"559 488 LINE"
);
}
);
width = 683;
},
{
background = {
paths = (
{
closed = 1;
nodes = (
"368 11 LINE",
"420 151 OFFCURVE",
"464 270 OFFCURVE",
"510 387 CURVE",
"515 387 LINE",
"515 387 OFFCURVE",
"540 97 OFFCURVE",
"540 69 CURVE SMOOTH",
"540 45 OFFCURVE",
"533 35 OFFCURVE",
"498 35 CURVE",
"644 35 LINE",
"618 35 OFFCURVE",
"610 49 OFFCURVE",
"604 108 CURVE SMOOTH",
"593 211 OFFCURVE",
"583 406 OFFCURVE",
"583 432 CURVE SMOOTH",
"583 459 OFFCURVE",
"591 462 OFFCURVE",
"634 462 CURVE",
"490 484 LINE",
"418 277 OFFCURVE",
"363 136 OFFCURVE",
"363 136 CURVE",
"358 136 LINE",
"358 136 OFFCURVE",
"303 272 OFFCURVE",
"236 482 CURVE",
"78 462 LINE",
"127 462 OFFCURVE",
"136 460 OFFCURVE",
"136 433 CURVE SMOOTH",
"136 410 OFFCURVE",
"105 132 OFFCURVE",
"99 84 CURVE SMOOTH",
"94 43 OFFCURVE",
"87 35 OFFCURVE",
"50 35 CURVE",
"174 35 LINE",
"156 35 OFFCURVE",
"148 42 OFFCURVE",
"148 59 CURVE SMOOTH",
"148 79 OFFCURVE",
"175 387 OFFCURVE",
"175 387 CURVE",
"180 387 LINE",
"227 268 OFFCURVE",
"271 151 OFFCURVE",
"324 7 CURVE"
);
},
{
closed = 1;
nodes = (
"-20 462 LINE",
"520 462 LINE",
"735 462 LINE",
"735 497 LINE",
"-20 497 LINE"
);
},
{
closed = 1;
nodes = (
"-20 0 LINE",
"735 0 LINE",
"735 35 LINE",
"-20 35 LINE"
);
}
);
};
layerId = "083C0576-DCB5-487A-B9F4-85809F200F55";
paths = (
{
closed = 1;
nodes = (
"-100 499 LINE",
"-100 463 LINE",
"783 463 LINE",
"783 499 LINE"
);
},
{
closed = 1;
nodes = (
"-100 36 LINE",
"-100 0 LINE",
"783 0 LINE",
"783 36 LINE"
);
},
{
closed = 1;
nodes = (
"473 488 LINE",
"447 424 LINE",
"342 183 LINE",
"336 183 LINE",
"236 422 LINE",
"212 488 LINE",
"123 488 LINE",
"71 11 LINE",
"137 11 LINE",
"149 170 LINE",
"173 378 LINE",
"178 378 LINE",
"304 84 LINE",
"366 84 LINE",
"499 378 LINE",
"505 378 LINE",
"528 165 LINE",
"539 11 LINE",
"607 11 LINE",
"559 488 LINE"
);
}
);
width = 683;
}
);
},
{
color = 1;
glyphname = V.ss01;
lastChange = "2016-10-28 13:24:24 +0000";
layers = (
{
layerId = "EDFD1FE9-67C2-43D2-81E5-EF1682ABC3BD";
paths = (
{
closed = 1;
nodes = (
"-100 463 LINE",
"602 463 LINE",
"602 499 LINE",
"-100 499 LINE"
);
},
{
closed = 1;
nodes = (
"-100 0 LINE",
"602 0 LINE",
"602 36 LINE",
"-100 36 LINE"
);
},
{
closed = 1;
nodes = (
"401 492 LINE",
"387 433 LINE",
"252 81 LINE",
"246 81 LINE",
"123 437 LINE",
"110 492 LINE",
"32 492 LINE",
"202 6 LINE",
"292 6 LINE",
"477 492 LINE SMOOTH"
);
}
);
width = 502;
},
{
background = {
paths = (
{
closed = 1;
nodes = (
"294 20 LINE",
"454 423 LINE SMOOTH",
"466 453 OFFCURVE",
"473 462 OFFCURVE",
"506 462 CURVE",
"351 462 LINE",
"389 462 OFFCURVE",
"395 458 OFFCURVE",
"395 437 CURVE SMOOTH",
"395 413 OFFCURVE",
"305 173 OFFCURVE",
"268 84 CURVE",
"259 84 LINE",
"259 84 OFFCURVE",
"163 417 OFFCURVE",
"163 443 CURVE SMOOTH",
"163 460 OFFCURVE",
"172 462 OFFCURVE",
"230 462 CURVE",
"13 462 LINE",
"53 462 OFFCURVE",
"68 453 OFFCURVE",
"78 423 CURVE SMOOTH",
"128 277 OFFCURVE",
"184 87 OFFCURVE",
"205 17 CURVE"
);
},
{
closed = 1;
nodes = (
"-20 462 LINE",
"545 462 LINE",
"545 497 LINE",
"-20 497 LINE"
);
},
{
closed = 1;
nodes = (
"-20 0 LINE",
"545 0 LINE",
"545 35 LINE",
"-20 35 LINE"
);
}
);
};
layerId = "083C0576-DCB5-487A-B9F4-85809F200F55";
paths = (
{
closed = 1;
nodes = (
"-100 463 LINE",
"602 463 LINE",
"602 499 LINE",
"-100 499 LINE"
);
},
{
closed = 1;
nodes = (
"-100 0 LINE",
"602 0 LINE",
"602 36 LINE",
"-100 36 LINE"
);
},
{
closed = 1;
nodes = (
"400 493 LINE",
"388 433 LINE",
"252 82 LINE",
"247 82 LINE",
"125 437 LINE",
"112 493 LINE",
"32 493 LINE",
"201 6 LINE",
"294 6 LINE",
"478 493 LINE SMOOTH"
);
}
);
width = 502;
}
);
},
{
color = 1;
glyphname = X.ss01;
lastChange = "2016-10-28 13:24:24 +0000";
layers = (
{
layerId = "EDFD1FE9-67C2-43D2-81E5-EF1682ABC3BD";
paths = (
{
closed = 1;
nodes = (
"-100 463 LINE",
"622 463 LINE",
"622 499 LINE",
"-100 499 LINE"
);
},
{
closed = 1;
nodes = (
"-100 0 LINE",
"622 0 LINE",
"622 36 LINE",
"-100 36 LINE"
);
},
{
closed = 1;
nodes = (
"385 485 LINE",
"365 446 LINE",
"262 305 LINE",
"160 445 LINE",
"138 485 LINE",
"50 485 LINE",
"214 251 LINE",
"46 15 LINE",
"121 15 LINE",
"142 52 LINE",
"257 205 LINE",
"366 55 LINE",
"388 15 LINE",
"475 15 LINE",
"305 260 LINE",
"463 485 LINE"
);
}
);
width = 522;
},
{
background = {
paths = (
{
closed = 1;
nodes = (
"155 146 LINE SMOOTH",
"108 91 OFFCURVE",
"60 35 OFFCURVE",
"13 35 CURVE",
"204 35 LINE",
"173 35 OFFCURVE",
"159 44 OFFCURVE",
"159 58 CURVE SMOOTH",
"159 72 OFFCURVE",
"169 88 OFFCURVE",
"198 124 CURVE SMOOTH",
"268 212 LINE",
"346 103 LINE SMOOTH",
"356 89 OFFCURVE",
"362 70 OFFCURVE",
"362 61 CURVE SMOOTH",
"362 44 OFFCURVE",
"348 37 OFFCURVE",
"307 35 CURVE",
"546 35 LINE",
"494 35 OFFCURVE",
"467 64 OFFCURVE",
"437 105 CURVE SMOOTH",
"323 261 LINE",
"426 389 LINE SMOOTH",
"469 441 OFFCURVE",
"487 463 OFFCURVE",
"530 463 CURVE",
"361 462 LINE",
"392 462 OFFCURVE",
"400 457 OFFCURVE",
"400 444 CURVE SMOOTH",
"400 423 OFFCURVE",
"331 346 OFFCURVE",
"296 300 CURVE",
"244 373 OFFCURVE",
"207 423 OFFCURVE",
"207 437 CURVE SMOOTH",
"207 456 OFFCURVE",
"216 462 OFFCURVE",
"250 462 CURVE",
"29 462 LINE",
"77 462 OFFCURVE",
"105 445 OFFCURVE",
"133 405 CURVE SMOOTH",
"243 251 LINE"
);
},
{
closed = 1;
nodes = (
"-20 462 LINE",
"586 462 LINE",
"586 497 LINE",
"-20 497 LINE"
);
},
{
closed = 1;
nodes = (
"-20 0 LINE",
"586 0 LINE",
"586 35 LINE",
"-20 35 LINE"
);
}
);
};
layerId = "083C0576-DCB5-487A-B9F4-85809F200F55";
paths = (
{
closed = 1;
nodes = (
"-100 463 LINE",
"622 463 LINE",
"622 499 LINE",
"-100 499 LINE"
);
},
{
closed = 1;
nodes = (
"-100 0 LINE",
"622 0 LINE",
"622 36 LINE",
"-100 36 LINE"
);
},
{
closed = 1;
nodes = (
"385 486 LINE",
"365 446 LINE",
"264 309 LINE",
"164 445 LINE",
"143 486 LINE",
"49 486 LINE",
"214 251 LINE",
"45 15 LINE",
"125 15 LINE",
"146 53 LINE",
"258 202 LINE",
"365 57 LINE",
"386 15 LINE",
"479 15 LINE",
"309 261 LINE",
"467 486 LINE"
);
}
);
width = 522;
}
);
},
{
color = 1;
glyphname = a;
lastChange = "2016-10-28 13:24:24 +0000";
layers = (
{
anchors = (
{
name = ogonek;
position = "{428, 10}";
},
{
name = top;
position = "{224, 459}";
}
);
layerId = "EDFD1FE9-67C2-43D2-81E5-EF1682ABC3BD";
paths = (
{
closed = 1;
nodes = (
"176 467 OFFCURVE",
"113 445 OFFCURVE",
"59 405 CURVE",
"70 351 LINE",
"78 347 LINE",
"132 386 OFFCURVE",
"179 406 OFFCURVE",
"218 406 CURVE SMOOTH",
"271 406 OFFCURVE",
"298 379 OFFCURVE",
"298 327 CURVE",
"296 260 LINE",
"135 227 LINE SMOOTH",
"75 216 OFFCURVE",
"41 178 OFFCURVE",
"41 121 CURVE SMOOTH",
"41 41 OFFCURVE",
"91 -7 OFFCURVE",
"174 -7 CURVE",
"216 0 OFFCURVE",
"258 28 OFFCURVE",
"293 69 CURVE",
"298 69 LINE",
"305 17 OFFCURVE",
"327 -4 OFFCURVE",
"364 -6 CURVE SMOOTH",
"390 -4 OFFCURVE",
"410 2 OFFCURVE",
"426 14 CURVE",
"435 62 LINE",
"427 67 LINE",
"417 60 OFFCURVE",
"404 57 OFFCURVE",
"394 57 CURVE SMOOTH",
"374 57 OFFCURVE",
"366 70 OFFCURVE",
"366 100 CURVE SMOOTH",
"366 126 OFFCURVE",
"375 315 OFFCURVE",
"375 342 CURVE SMOOTH",
"375 422 OFFCURVE",
"324 467 OFFCURVE",
"231 467 CURVE SMOOTH"
);
},
{
closed = 1;
nodes = (
"292 118 LINE",
"260 77 OFFCURVE",
"222 54 OFFCURVE",
"189 54 CURVE SMOOTH",
"143 54 OFFCURVE",
"116 80 OFFCURVE",
"116 127 CURVE SMOOTH",
"116 160 OFFCURVE",
"135 180 OFFCURVE",
"169 188 CURVE SMOOTH",
"296 216 LINE"
);
}
);
width = 464;
},
{
anchors = (
{
name = ogonek;
position = "{428, 10}";
},
{
name = top;
position = "{224, 459}";
}
);
background = {
paths = (
{
closed = 1;
nodes = (
"299 454 LINE",
"295 195 LINE",
"282 2 LINE",
"367 -1 LINE",
"368 200 LINE",
"384 459 LINE"
);
}
);
};
layerId = "083C0576-DCB5-487A-B9F4-85809F200F55";
paths = (
{
closed = 1;
nodes = (
"174 467 OFFCURVE",
"115 446 OFFCURVE",
"59 406 CURVE",
"70 344 LINE",
"78 340 LINE",
"130 385 OFFCURVE",
"174 406 OFFCURVE",
"220 406 CURVE SMOOTH",
"268 406 OFFCURVE",
"297 379 OFFCURVE",
"297 327 CURVE",
"296 265 LINE",
"135 227 LINE SMOOTH",
"75 213 OFFCURVE",
"41 181 OFFCURVE",
"41 119 CURVE SMOOTH",
"41 42 OFFCURVE",
"94 -7 OFFCURVE",
"186 -7 CURVE",
"223 8 OFFCURVE",
"257 34 OFFCURVE",
"290 68 CURVE",
"297 68 LINE",
"300 25 OFFCURVE",
"326 -2 OFFCURVE",
"368 -6 CURVE",
"388 -4 OFFCURVE",
"409 4 OFFCURVE",
"426 14 CURVE",
"434 62 LINE",
"426 69 LINE",
"410 65 OFFCURVE",
"401 64 OFFCURVE",
"393 64 CURVE SMOOTH",
"370 64 OFFCURVE",
"362 73 OFFCURVE",
"362 101 CURVE SMOOTH",
"362 137 OFFCURVE",
"375 310 OFFCURVE",
"375 346 CURVE SMOOTH",
"375 422 OFFCURVE",
"319 467 OFFCURVE",
"233 467 CURVE SMOOTH"
);
},
{
closed = 1;
nodes = (
"292 132 LINE",
"256 89 OFFCURVE",
"221 63 OFFCURVE",
"182 63 CURVE SMOOTH",
"143 63 OFFCURVE",
"117 88 OFFCURVE",
"117 131 CURVE SMOOTH",
"117 159 OFFCURVE",
"128 170 OFFCURVE",
"152 176 CURVE SMOOTH",
"295 211 LINE"
);
}
);
width = 464;
}
);
leftKerningGroup = a;
rightKerningGroup = n;
unicode = 0061;
},
{
color = 0;
glyphname = aogonek;
lastChange = "2016-10-28 13:24:24 +0000";
layers = (
{
components = (
{
name = a;
}
);
layerId = "EDFD1FE9-67C2-43D2-81E5-EF1682ABC3BD";
paths = (
{
closed = 1;
nodes = (
"377 18 LINE",
"302 -59 OFFCURVE",
"282 -89 OFFCURVE",
"282 -124 CURVE SMOOTH",
"282 -169 OFFCURVE",
"315 -197 OFFCURVE",
"356 -197 CURVE SMOOTH",
"391 -197 OFFCURVE",
"418 -177 OFFCURVE",
"445 -144 CURVE",
"433 -108 LINE",
"428 -108 LINE",
"410 -134 OFFCURVE",
"389 -149 OFFCURVE",
"367 -149 CURVE SMOOTH",
"346 -149 OFFCURVE",
"329 -136 OFFCURVE",
"329 -112 CURVE SMOOTH",
"329 -89 OFFCURVE",
"347 -64 OFFCURVE",
"426 14 CURVE"
);
}
);
width = 464;
},
{
background = {
paths = (
{
closed = 1;
nodes = (
"334 0 LINE",
"293 -58 OFFCURVE",
"281 -87 OFFCURVE",
"281 -118 CURVE SMOOTH",
"281 -167 OFFCURVE",
"312 -197 OFFCURVE",
"359 -197 CURVE SMOOTH",
"396 -197 OFFCURVE",
"428 -178 OFFCURVE",
"460 -144 CURVE",
"449 -104 LINE",
"444 -104 LINE",
"421 -126 OFFCURVE",
"395 -140 OFFCURVE",
"370 -140 CURVE SMOOTH",
"348 -140 OFFCURVE",
"337 -129 OFFCURVE",
"337 -106 CURVE SMOOTH",
"337 -83 OFFCURVE",
"348 -56 OFFCURVE",
"387 1 CURVE"
);
}
);
};
components = (
{
name = a;
}
);
layerId = "083C0576-DCB5-487A-B9F4-85809F200F55";
paths = (
{
closed = 1;
nodes = (
"376 18 LINE",
"302 -59 OFFCURVE",
"282 -89 OFFCURVE",
"282 -124 CURVE SMOOTH",
"282 -169 OFFCURVE",
"315 -197 OFFCURVE",
"356 -197 CURVE SMOOTH",
"391 -197 OFFCURVE",
"419 -177 OFFCURVE",
"446 -149 CURVE",
"432 -105 LINE",
"428 -105 LINE",
"409 -128 OFFCURVE",
"389 -139 OFFCURVE",
"369 -139 CURVE SMOOTH",
"352 -139 OFFCURVE",
"339 -131 OFFCURVE",
"339 -111 CURVE SMOOTH",
"339 -89 OFFCURVE",
"355 -64 OFFCURVE",
"426 14 CURVE"
);
}
);
width = 464;
}
);
leftKerningGroup = a;
rightKerningGroup = n;
unicode = 0105;
},
{
color = 1;
glyphname = ae;
lastChange = "2016-10-28 13:24:24 +0000";
layers = (
{
anchors = (
{
name = top;
position = "{344, 459}";
}
);
layerId = "EDFD1FE9-67C2-43D2-81E5-EF1682ABC3BD";
paths = (
{
closed = 1;
nodes = (
"325 214 LINE",
"638 267 LINE",
"647 279 LINE",
"627 312 LINE",
"325 257 LINE"
);
},
{
closed = 1;
nodes = (
"325 257 LINE",
"132 226 LINE SMOOTH",
"71 217 OFFCURVE",
"38 179 OFFCURVE",
"38 119 CURVE SMOOTH",
"38 42 OFFCURVE",
"93 -7 OFFCURVE",
"180 -7 CURVE",
"230 1 OFFCURVE",
"270 29 OFFCURVE",
"322 89 CURVE",
"354 26 OFFCURVE",
"411 -8 OFFCURVE",
"486 -8 CURVE SMOOTH",
"530 -8 OFFCURVE",
"580 6 OFFCURVE",
"620 28 CURVE",
"632 89 LINE",
"624 94 LINE",
"585 70 OFFCURVE",
"536 56 OFFCURVE",
"494 56 CURVE SMOOTH",
"402 56 OFFCURVE",
"359 119 OFFCURVE",
"359 237 CURVE SMOOTH",
"359 273 LINE SMOOTH",
"359 347 OFFCURVE",
"412 408 OFFCURVE",
"481 408 CURVE SMOOTH",
"538 408 OFFCURVE",
"571 369 OFFCURVE",
"573 300 CURVE",
"647 279 LINE",
"649 397 OFFCURVE",
"588 466 OFFCURVE",
"485 466 CURVE SMOOTH",
"425 466 OFFCURVE",
"377 440 OFFCURVE",
"340 384 CURVE",
"329 438 OFFCURVE",
"289 467 OFFCURVE",
"226 467 CURVE SMOOTH",
"168 467 OFFCURVE",
"110 446 OFFCURVE",
"55 406 CURVE",
"66 351 LINE",
"74 347 LINE",
"129 387 OFFCURVE",
"174 406 OFFCURVE",
"215 406 CURVE SMOOTH",
"264 406 OFFCURVE",
"291 379 OFFCURVE",
"291 327 CURVE SMOOTH",
"291 232 LINE SMOOTH",
"291 192 OFFCURVE",
"294 166 OFFCURVE",
"302 133 CURVE",
"255 78 OFFCURVE",
"222 54 OFFCURVE",
"185 54 CURVE SMOOTH",
"139 54 OFFCURVE",
"114 85 OFFCURVE",
"114 126 CURVE SMOOTH",
"114 158 OFFCURVE",
"128 176 OFFCURVE",
"166 184 CURVE SMOOTH",
"325 214 LINE"
);
}
);
width = 680;
},
{
anchors = (
{
name = top;
position = "{344, 459}";
}
);
background = {
paths = (
{
closed = 1;
nodes = (
"358 466 OFFCURVE",
"273 375 OFFCURVE",
"273 226 CURVE SMOOTH",
"273 82 OFFCURVE",
"350 -8 OFFCURVE",
"483 -8 CURVE SMOOTH",
"530 -8 OFFCURVE",
"580 6 OFFCURVE",
"623 28 CURVE",
"632 100 LINE",
"623 105 LINE",
"580 76 OFFCURVE",
"530 60 OFFCURVE",
"488 60 CURVE SMOOTH",
"397 60 OFFCURVE",
"353 124 OFFCURVE",
"353 231 CURVE SMOOTH",
"353 342 OFFCURVE",
"402 406 OFFCURVE",
"483 406 CURVE SMOOTH",
"536 406 OFFCURVE",
"573 375 OFFCURVE",
"573 305 CURVE",
"571 293 LINE",
"339 287 LINE",
"339 231 LINE",
"630 231 LINE",
"647 245 LINE",
"649 257 OFFCURVE",
"650 281 OFFCURVE",
"650 293 CURVE SMOOTH",
"650 401 OFFCURVE",
"591 466 OFFCURVE",
"490 466 CURVE SMOOTH"
);
}
);
};
layerId = "083C0576-DCB5-487A-B9F4-85809F200F55";
paths = (
{
closed = 1;
nodes = (
"319 211 LINE",
"641 263 LINE",
"650 275 LINE",
"627 317 LINE",
"319 261 LINE"
);
},
{
closed = 1;
nodes = (
"319 261 LINE",
"132 231 LINE SMOOTH",
"70 221 OFFCURVE",
"38 180 OFFCURVE",
"38 120 CURVE SMOOTH",
"38 40 OFFCURVE",
"96 -7 OFFCURVE",
"188 -7 CURVE",
"243 13 OFFCURVE",
"287 46 OFFCURVE",
"322 89 CURVE",
"354 26 OFFCURVE",
"411 -8 OFFCURVE",
"486 -8 CURVE SMOOTH",
"530 -8 OFFCURVE",
"580 6 OFFCURVE",
"619 28 CURVE",
"629 97 LINE",
"620 102 LINE",
"582 73 OFFCURVE",
"535 56 OFFCURVE",
"492 56 CURVE SMOOTH",
"403 56 OFFCURVE",
"359 119 OFFCURVE",
"359 237 CURVE SMOOTH",
"359 273 LINE SMOOTH",
"359 347 OFFCURVE",
"411 408 OFFCURVE",
"479 408 CURVE SMOOTH",
"534 408 OFFCURVE",
"573 370 OFFCURVE",
"573 300 CURVE",
"650 275 LINE",
"655 403 OFFCURVE",
"586 466 OFFCURVE",
"491 466 CURVE SMOOTH",
"434 466 OFFCURVE",
"381 443 OFFCURVE",
"346 399 CURVE",
"329 438 OFFCURVE",
"290 467 OFFCURVE",
"225 467 CURVE SMOOTH",
"169 467 OFFCURVE",
"111 446 OFFCURVE",
"56 406 CURVE",
"68 344 LINE",
"76 340 LINE",
"130 385 OFFCURVE",
"175 406 OFFCURVE",
"215 406 CURVE SMOOTH",
"264 406 OFFCURVE",
"291 379 OFFCURVE",
"291 327 CURVE SMOOTH",
"291 232 LINE SMOOTH",
"291 197 OFFCURVE",
"293 174 OFFCURVE",
"299 136 CURVE",
"247 82 OFFCURVE",
"219 64 OFFCURVE",
"183 64 CURVE SMOOTH",
"144 64 OFFCURVE",
"114 85 OFFCURVE",
"114 129 CURVE SMOOTH",
"114 156 OFFCURVE",
"126 174 OFFCURVE",
"163 181 CURVE SMOOTH",
"319 211 LINE"
);
}
);
width = 680;
}
);
leftKerningGroup = a;
rightKerningGroup = e;
unicode = 00E6;
},
{
color = 1;
glyphname = b;
lastChange = "2016-10-28 13:24:24 +0000";
layers = (
{
anchors = (
{
name = bottom;
position = "{257, 0}";
},
{
name = top;
position = "{257, 459}";
}
);
layerId = "EDFD1FE9-67C2-43D2-81E5-EF1682ABC3BD";
paths = (
{
closed = 1;
nodes = (
"248 458 OFFCURVE",
"202 433 OFFCURVE",
"167 392 CURVE",
"144 392 LINE",
"150 325 LINE",
"184 371 OFFCURVE",
"228 396 OFFCURVE",
"273 396 CURVE SMOOTH",
"351 396 OFFCURVE",
"393 337 OFFCURVE",
"393 230 CURVE SMOOTH",
"393 109 OFFCURVE",
"338 48 OFFCURVE",
"245 48 CURVE SMOOTH",
"209 48 OFFCURVE",
"154 64 OFFCURVE",
"100 96 CURVE",
"96 22 LINE",
"144 2 OFFCURVE",
"199 -8 OFFCURVE",
"249 -8 CURVE SMOOTH",
"388 -8 OFFCURVE",
"472 81 OFFCURVE",
"472 241 CURVE SMOOTH",
"472 382 OFFCURVE",
"408 464 OFFCURVE",
"297 464 CURVE SMOOTH"
);
},
{
closed = 1;
nodes = (
"83 695 LINE",
"85 192 LINE",
"83 4 LINE",
"92 -4 LINE",
"163 20 LINE",
"163 202 LINE",
"166 702 LINE"
);
}
);
width = 514;
},
{
anchors = (
{
name = bottom;
position = "{258, 0}";
},
{
name = top;
position = "{258, 459}";
}
);
background = {
paths = (
{
closed = 1;
nodes = (
"84 453 LINE",
"89 194 LINE",
"83 0 LINE",
"168 0 LINE",
"162 201 LINE",
"169 461 LINE"
);
}
);
};
layerId = "083C0576-DCB5-487A-B9F4-85809F200F55";
paths = (
{
closed = 1;
nodes = (
"247 449 OFFCURVE",
"216 432 OFFCURVE",
"171 396 CURVE",
"155 396 LINE",
"155 316 LINE",
"205 371 OFFCURVE",
"245 394 OFFCURVE",
"287 394 CURVE SMOOTH",
"354 394 OFFCURVE",
"391 335 OFFCURVE",
"393 234 CURVE SMOOTH",
"395 111 OFFCURVE",
"341 53 OFFCURVE",
"260 53 CURVE SMOOTH",
"210 53 OFFCURVE",
"158 81 OFFCURVE",
"101 141 CURVE",
"97 48 LINE",
"145 14 OFFCURVE",
"199 -8 OFFCURVE",
"253 -8 CURVE SMOOTH",
"390 -8 OFFCURVE",
"473 82 OFFCURVE",
"473 244 CURVE SMOOTH",
"473 381 OFFCURVE",
"413 464 OFFCURVE",
"295 464 CURVE"
);
},
{
closed = 1;
nodes = (
"83 695 LINE",
"89 192 LINE",
"82 -4 LINE",
"97 -12 LINE",
"167 20 LINE",
"162 202 LINE",
"168 702 LINE"
);
}
);
width = 515;
}
);
leftKerningGroup = h;
leftMetricsKey = l;
rightKerningGroup = o;
rightMetricsKey = o;
unicode = 0062;
},
{
color = 1;
glyphname = c;
lastChange = "2016-10-28 13:24:24 +0000";
layers = (
{
anchors = (
{
name = bottom;
position = "{227, 0}";
},
{
name = top;
position = "{237, 459}";
}
);
layerId = "EDFD1FE9-67C2-43D2-81E5-EF1682ABC3BD";
paths = (
{
closed = 1;
nodes = (
"118 467 OFFCURVE",
"41 374 OFFCURVE",
"41 224 CURVE SMOOTH",
"41 81 OFFCURVE",
"113 -8 OFFCURVE",
"230 -8 CURVE SMOOTH",
"276 -8 OFFCURVE",
"323 5 OFFCURVE",
"359 25 CURVE",
"368 88 LINE",
"359 93 LINE",
"325 73 OFFCURVE",
"284 60 OFFCURVE",
"247 60 CURVE SMOOTH",
"168 60 OFFCURVE",
"121 124 OFFCURVE",
"121 232 CURVE SMOOTH",
"121 335 OFFCURVE",
"167 397 OFFCURVE",
"243 397 CURVE SMOOTH",
"279 397 OFFCURVE",
"315 383 OFFCURVE",
"345 364 CURVE",
"354 367 LINE",
"369 431 LINE",
"336 453 OFFCURVE",
"288 467 OFFCURVE",
"243 467 CURVE SMOOTH"
);
}
);
width = 385;
},
{
anchors = (
{
name = bottom;
position = "{227, 0}";
},
{
name = top;
position = "{237, 459}";
}
);
background = {
paths = (
{
closed = 1;
nodes = (
"118 467 OFFCURVE",
"41 374 OFFCURVE",
"41 224 CURVE SMOOTH",
"41 81 OFFCURVE",
"113 -8 OFFCURVE",
"230 -8 CURVE SMOOTH",
"276 -8 OFFCURVE",
"323 2 OFFCURVE",
"359 16 CURVE",
"368 88 LINE",
"359 93 LINE",
"325 73 OFFCURVE",
"284 60 OFFCURVE",
"248 60 CURVE SMOOTH",
"168 60 OFFCURVE",
"121 124 OFFCURVE",
"121 232 CURVE SMOOTH",
"121 335 OFFCURVE",
"167 397 OFFCURVE",
"243 397 CURVE SMOOTH",
"279 397 OFFCURVE",
"315 383 OFFCURVE",
"345 364 CURVE",
"354 367 LINE",
"369 441 LINE",
"336 457 OFFCURVE",
"289 467 OFFCURVE",
"243 467 CURVE SMOOTH"
);
}
);
};
layerId = "083C0576-DCB5-487A-B9F4-85809F200F55";
paths = (
{
closed = 1;
nodes = (
"118 467 OFFCURVE",
"41 374 OFFCURVE",
"41 226 CURVE SMOOTH",
"41 81 OFFCURVE",
"115 -8 OFFCURVE",
"238 -8 CURVE SMOOTH",
"279 -8 OFFCURVE",
"323 2 OFFCURVE",
"359 16 CURVE",
"368 88 LINE",
"359 93 LINE",
"325 73 OFFCURVE",
"284 60 OFFCURVE",
"248 60 CURVE SMOOTH",
"168 60 OFFCURVE",
"121 125 OFFCURVE",
"121 231 CURVE SMOOTH",
"121 336 OFFCURVE",
"167 397 OFFCURVE",
"243 397 CURVE SMOOTH",
"279 397 OFFCURVE",
"315 383 OFFCURVE",
"345 364 CURVE",
"354 367 LINE",
"369 441 LINE",
"336 457 OFFCURVE",
"288 467 OFFCURVE",
"246 467 CURVE SMOOTH"
);
}
);
width = 385;
}
);
leftKerningGroup = o;
leftMetricsKey = o;
rightKerningGroup = c;
unicode = 0063;
},
{
color = 1;
glyphname = d;
lastChange = "2016-10-28 13:24:24 +0000";
layers = (
{
anchors = (
{
name = center;
position = "{259, 230}";
}
);
layerId = "EDFD1FE9-67C2-43D2-81E5-EF1682ABC3BD";
paths = (
{
closed = 1;
nodes = (
"347 695 LINE",
"348 454 LINE",
"319 461 OFFCURVE",
"290 466 OFFCURVE",
"265 466 CURVE SMOOTH",
"125 466 OFFCURVE",
"41 380 OFFCURVE",
"41 221 CURVE SMOOTH",
"41 80 OFFCURVE",
"113 -6 OFFCURVE",
"225 -6 CURVE SMOOTH",
"274 0 OFFCURVE",
"314 24 OFFCURVE",
"351 66 CURVE",
"355 66 LINE",
"363 17 OFFCURVE",
"387 -4 OFFCURVE",
"424 -6 CURVE SMOOTH",
"449 -4 OFFCURVE",
"469 2 OFFCURVE",
"486 14 CURVE",
"494 62 LINE",
"486 67 LINE",
"476 60 OFFCURVE",
"464 57 OFFCURVE",
"454 57 CURVE SMOOTH",
"434 57 OFFCURVE",
"427 71 OFFCURVE",
"427 102 CURVE SMOOTH",
"426 200 LINE",
"430 702 LINE"
);
},
{
closed = 1;
nodes = (
"291 406 OFFCURVE",
"320 401 OFFCURVE",
"349 391 CURVE",
"349 193 LINE",
"349 121 LINE",
"318 79 OFFCURVE",
"281 58 OFFCURVE",
"239 58 CURVE SMOOTH",
"166 58 OFFCURVE",
"119 119 OFFCURVE",
"119 234 CURVE SMOOTH",
"119 349 OFFCURVE",
"170 406 OFFCURVE",
"263 406 CURVE SMOOTH"
);
}
);
width = 517;
},
{
anchors = (
{
name = center;
position = "{259, 230}";
}
);
background = {
paths = (
{
closed = 1;
nodes = (
"346 695 LINE",
"351 195 LINE",
"345 0 LINE",
"430 0 LINE",
"424 202 LINE",
"431 702 LINE"
);
}
);
};
layerId = "083C0576-DCB5-487A-B9F4-85809F200F55";
paths = (
{
closed = 1;
nodes = (
"346 695 LINE",
"348 458 LINE",
"319 464 OFFCURVE",
"290 467 OFFCURVE",
"262 467 CURVE SMOOTH",
"123 467 OFFCURVE",
"39 381 OFFCURVE",
"39 229 CURVE SMOOTH",
"39 80 OFFCURVE",
"111 -5 OFFCURVE",
"247 -5 CURVE",
"287 13 OFFCURVE",
"313 31 OFFCURVE",
"352 64 CURVE",
"360 64 LINE",
"365 25 OFFCURVE",
"389 -2 OFFCURVE",
"431 -6 CURVE",
"451 -4 OFFCURVE",
"472 4 OFFCURVE",
"489 14 CURVE",
"497 62 LINE",
"489 69 LINE",
"473 65 OFFCURVE",
"464 64 OFFCURVE",
"455 64 CURVE SMOOTH",
"434 64 OFFCURVE",
"428 73 OFFCURVE",
"427 100 CURVE SMOOTH",
"424 202 LINE",
"431 702 LINE"
);
},
{
closed = 1;
nodes = (
"283 407 OFFCURVE",
"314 398 OFFCURVE",
"348 382 CURVE",
"351 195 LINE",
"348.989 124.889 LINE",
"309 80 OFFCURVE",
"276 67 OFFCURVE",
"242 67 CURVE SMOOTH",
"167 67 OFFCURVE",
"121 127 OFFCURVE",
"119 237 CURVE SMOOTH",
"117 350 OFFCURVE",
"171 407 OFFCURVE",
"252 407 CURVE SMOOTH"
);
}
);
width = 517;
}
);
leftKerningGroup = o;
leftMetricsKey = o;
rightKerningGroup = l;
unicode = 0064;
},
{
color = 1;
glyphname = eth;
lastChange = "2016-10-28 13:24:24 +0000";
layers = (
{
layerId = "EDFD1FE9-67C2-43D2-81E5-EF1682ABC3BD";
paths = (
{
closed = 1;
nodes = (
"120 706 LINE",
"68 666 LINE",
"68 655 LINE",
"282 564 OFFCURVE",
"371 438 OFFCURVE",
"371 237 CURVE SMOOTH",
"371 112 OFFCURVE",
"331 50 OFFCURVE",
"248 50 CURVE SMOOTH",
"168 50 OFFCURVE",
"121 107 OFFCURVE",
"121 224 CURVE SMOOTH",
"121 339 OFFCURVE",
"167 397 OFFCURVE",
"252 397 CURVE SMOOTH",
"299 397 OFFCURVE",
"336 380 OFFCURVE",
"369 346 CURVE",
"402 396 LINE",
"357 438 OFFCURVE",
"310 458 OFFCURVE",
"248 458 CURVE SMOOTH",
"118 458 OFFCURVE",
"43 371 OFFCURVE",
"43 224 CURVE SMOOTH",
"43 75 OFFCURVE",
"119 -8 OFFCURVE",
"244 -8 CURVE SMOOTH",
"376 -8 OFFCURVE",
"449 85 OFFCURVE",
"449 246 CURVE SMOOTH",
"449 446 OFFCURVE",
"336 612 OFFCURVE",
"126 706 CURVE"
);
},
{
closed = 1;
nodes = (
"90 532 LINE",
"108 496 LINE",
"116 493 LINE",
"403 641 LINE",
"387 677 LINE",
"378 680 LINE"
);
}
);
width = 496;
},
{
background = {
paths = (
{
closed = 1;
nodes = (
"117 467 OFFCURVE",
"41 378 OFFCURVE",
"41 223 CURVE SMOOTH",
"41 76 OFFCURVE",
"113 -8 OFFCURVE",
"239 -8 CURVE SMOOTH",
"373 -8 OFFCURVE",
"449 81 OFFCURVE",
"449 236 CURVE SMOOTH",
"449 383 OFFCURVE",
"377 467 OFFCURVE",
"251 467 CURVE SMOOTH"
);
},
{
closed = 1;
nodes = (
"327 407 OFFCURVE",
"369 347 OFFCURVE",
"369 227 CURVE SMOOTH",
"369 110 OFFCURVE",
"326 52 OFFCURVE",
"244 52 CURVE SMOOTH",
"163 52 OFFCURVE",
"121 110 OFFCURVE",
"121 232 CURVE SMOOTH",
"121 347 OFFCURVE",
"164 407 OFFCURVE",
"246 407 CURVE SMOOTH"
);
}
);
};
layerId = "083C0576-DCB5-487A-B9F4-85809F200F55";
paths = (
{
closed = 1;
nodes = (
"116 706 LINE",
"67 668 LINE",
"67 657 LINE",
"275 571 OFFCURVE",
"372 441 OFFCURVE",
"372 241 CURVE SMOOTH",
"372 111 OFFCURVE",
"331 49 OFFCURVE",
"246 49 CURVE SMOOTH",
"164 49 OFFCURVE",
"115 107 OFFCURVE",
"115 224 CURVE SMOOTH",
"115 340 OFFCURVE",
"163 402 OFFCURVE",
"250 402 CURVE SMOOTH",
"297 402 OFFCURVE",
"335 384 OFFCURVE",
"368 349 CURVE",
"399 397 LINE",
"355 440 OFFCURVE",
"308 459 OFFCURVE",
"246 459 CURVE SMOOTH",
"116 459 OFFCURVE",
"42 371 OFFCURVE",
"42 224 CURVE SMOOTH",
"42 76 OFFCURVE",
"118 -8 OFFCURVE",
"241 -8 CURVE SMOOTH",
"372 -8 OFFCURVE",
"445 85 OFFCURVE",
"445 246 CURVE SMOOTH",
"445 447 OFFCURVE",
"332 613 OFFCURVE",
"122 706 CURVE"
);
},
{
closed = 1;
nodes = (
"88 540 LINE",
"106 500 LINE",
"114 497 LINE",
"399 643 LINE",
"381 683 LINE",
"373 686 LINE"
);
}
);
width = 489;
}
);
leftKerningGroup = eth;
rightKerningGroup = eth;
unicode = 00F0;
},
{
color = 0;
glyphname = dcaron;
lastChange = "2016-10-28 13:24:24 +0000";
layers = (
{
components = (
{
name = d;
},
{
name = caron.alt;
transform = "{1, 0, 0, 1, 332, -43}";
}
);
layerId = "EDFD1FE9-67C2-43D2-81E5-EF1682ABC3BD";
paths = (
{
closed = 0;
nodes = (
"227 243 LINE"
);
}
);
width = 541;
},
{
background = {
components = (
{
name = d;
}
);
paths = (
{
closed = 1;
nodes = (
"572 709 LINE",
"502 695 LINE",
"502 695 OFFCURVE",
"512 587 OFFCURVE",
"508 477 CURVE",
"519 475 LINE",
"544 489 LINE",
"565 591 OFFCURVE",
"579 701 OFFCURVE",
"579 701 CURVE"
);
}
);
};
components = (
{
name = d;
},
{
name = caron.alt;
transform = "{1, 0, 0, 1, 332, -43}";
}
);
layerId = "083C0576-DCB5-487A-B9F4-85809F200F55";
paths = (
{
closed = 0;
nodes = (
"227 243 LINE"
);
}
);
width = 541;
}
);
leftKerningGroup = o;
rightKerningGroup = l;
unicode = 010F;
},
{
color = 0;
glyphname = dcroat;
lastChange = "2016-10-28 13:24:24 +0000";
layers = (
{
components = (
{
name = d;
}
);
layerId = "EDFD1FE9-67C2-43D2-81E5-EF1682ABC3BD";
paths = (
{
closed = 1;
nodes = (
"226 597 LINE",
"222 554 LINE",
"228 548 LINE",
"506 548 LINE",
"510 590 LINE",
"503 597 LINE"
);
}
);
width = 521;
},
{
background = {
components = (
{
name = d;
}
);
paths = (
{
closed = 1;
nodes = (
"405 582 LINE",
"238 583 LINE",
"231 544 LINE",
"240 535 LINE",
"383 536 LINE",
"522 537 LINE",
"526 574 LINE",
"513 587 LINE"
);
}
);
};
components = (
{
name = d;
}
);
layerId = "083C0576-DCB5-487A-B9F4-85809F200F55";
paths = (
{
closed = 1;
nodes = (
"223 607 LINE",
"218 562 LINE",
"224 556 LINE",
"502 556 LINE",
"507 600 LINE",
"500 607 LINE"
);
}
);
width = 521;
}
);
leftKerningGroup = o;
leftMetricsKey = d;
rightKerningGroup = l;
unicode = 0111;
},
{
color = 1;
glyphname = e;
lastChange = "2016-10-28 13:24:24 +0000";
layers = (
{
anchors = (
{
name = bottom;
position = "{248, 0}";
},
{
name = ogonek;
position = "{403, 10}";
},
{
name = top;
position = "{238, 459}";
}
);
layerId = "EDFD1FE9-67C2-43D2-81E5-EF1682ABC3BD";
paths = (
{
closed = 1;
nodes = (
"122 466 OFFCURVE",
"41 375 OFFCURVE",
"41 226 CURVE SMOOTH",
"41 82 OFFCURVE",
"119 -8 OFFCURVE",
"251 -8 CURVE SMOOTH",
"301 -8 OFFCURVE",
"346 6 OFFCURVE",
"384 28 CURVE",
"397 89 LINE",
"388 94 LINE",
"349 68 OFFCURVE",
"303 55 OFFCURVE",
"261 55 CURVE SMOOTH",
"165 55 OFFCURVE",
"117 120 OFFCURVE",
"117 229 CURVE SMOOTH",
"117 341 OFFCURVE",
"167 409 OFFCURVE",
"248 409 CURVE SMOOTH",
"309 409 OFFCURVE",
"346 368 OFFCURVE",
"346 300 CURVE",
"344 286 LINE",
"102 277 LINE",
"102 231 LINE",
"403 239 LINE",
"414 252 LINE",
"416 263 OFFCURVE",
"418 280 OFFCURVE",
"418 293 CURVE SMOOTH",
"418 400 OFFCURVE",
"356 466 OFFCURVE",
"249 466 CURVE SMOOTH"
);
}
);
width = 455;
},
{
anchors = (
{
name = bottom;
position = "{254, 0}";
},
{
name = ogonek;
position = "{413, 10}";
},
{
name = top;
position = "{247, 459}";
}
);
background = {
paths = (
{
closed = 1;
nodes = (
"449 416 OFFCURVE",
"375 473 OFFCURVE",
"267 473 CURVE SMOOTH",
"110 473 OFFCURVE",
"36 353 OFFCURVE",
"36 224 CURVE SMOOTH",
"36 68 OFFCURVE",
"131 -14 OFFCURVE",
"260 -14 CURVE SMOOTH",
"312 -14 OFFCURVE",
"360 -5 OFFCURVE",
"401 14 CURVE",
"425 132 LINE",
"389 111 OFFCURVE",
"340 93 OFFCURVE",
"281 93 CURVE SMOOTH",
"197 93 OFFCURVE",
"155 154 OFFCURVE",
"155 211 CURVE SMOOTH",
"155 222 LINE",
"440 230 LINE",
"449 261 OFFCURVE",
"449 288 OFFCURVE",
"449 306 CURVE SMOOTH"
);
},
{
closed = 1;
nodes = (
"328 323 OFFCURVE",
"328 307 OFFCURVE",
"326 299 CURVE",
"163 293 LINE",
"170 346 OFFCURVE",
"211 396 OFFCURVE",
"265 396 CURVE SMOOTH",
"304 396 OFFCURVE",
"328 363 OFFCURVE",
"328 329 CURVE SMOOTH"
);
}
);
};
layerId = "083C0576-DCB5-487A-B9F4-85809F200F55";
paths = (
{
closed = 1;
nodes = (
"126 466 OFFCURVE",
"41 375 OFFCURVE",
"41 226 CURVE SMOOTH",
"41 82 OFFCURVE",
"118 -8 OFFCURVE",
"251 -8 CURVE SMOOTH",
"298 -8 OFFCURVE",
"348 6 OFFCURVE",
"391 28 CURVE",
"400 100 LINE",
"391 105 LINE",
"348 76 OFFCURVE",
"298 60 OFFCURVE",
"256 60 CURVE SMOOTH",
"165 60 OFFCURVE",
"121 124 OFFCURVE",
"121 231 CURVE SMOOTH",
"121 342 OFFCURVE",
"170 406 OFFCURVE",
"251 406 CURVE SMOOTH",
"304 406 OFFCURVE",
"341 375 OFFCURVE",
"341 305 CURVE",
"339 293 LINE",
"107 287 LINE",
"107 231 LINE",
"398 231 LINE",
"415 245 LINE",
"417 257 OFFCURVE",
"418 281 OFFCURVE",
"418 293 CURVE SMOOTH",
"418 401 OFFCURVE",
"359 466 OFFCURVE",
"258 466 CURVE SMOOTH"
);
}
);
width = 454;
}
);
leftKerningGroup = o;
leftMetricsKey = o;
rightKerningGroup = e;
unicode = 0065;
},
{
color = 10;
glyphname = eogonek;
lastChange = "2016-10-28 13:24:24 +0000";
layers = (
{
components = (
{
name = e;
},
{
name = ogonekcomb;
transform = "{1, 0, 0, 1, 115, 0}";
}
);
layerId = "EDFD1FE9-67C2-43D2-81E5-EF1682ABC3BD";
width = 455;
},
{
background = {
paths = (
{
closed = 1;
nodes = (
"115 295 LINE",
"127 368 OFFCURVE",
"176 413 OFFCURVE",
"238 413 CURVE SMOOTH",
"291 413 OFFCURVE",
"321 384 OFFCURVE",
"321 331 CURVE SMOOTH",
"321 311 OFFCURVE",
"316 306 OFFCURVE",
"296 304 CURVE SMOOTH"
);
},
{
closed = 1;
nodes = (
"387 258 LINE",
"400 270 LINE",
"400 270 OFFCURVE",
"406 294 OFFCURVE",
"406 319 CURVE SMOOTH",
"406 414 OFFCURVE",
"355 464 OFFCURVE",
"257 464 CURVE SMOOTH",
"138 464 OFFCURVE",
"36 346 OFFCURVE",
"36 209 CURVE SMOOTH",
"36 77 OFFCURVE",
"120 -12 OFFCURVE",
"246 -12 CURVE SMOOTH",
"306 -12 OFFCURVE",
"399 56 OFFCURVE",
"399 56 CURVE",
"388 85 LINE",
"382 87 LINE",
"382 87 OFFCURVE",
"321 56 OFFCURVE",
"259 56 CURVE SMOOTH",
"170 56 OFFCURVE",
"111 130 OFFCURVE",
"111 242 CURVE SMOOTH",
"111 258 LINE"
);
},
{
closed = 1;
nodes = (
"402 -159 LINE",
"402 -159 OFFCURVE",
"364 -182 OFFCURVE",
"325 -182 CURVE SMOOTH",
"290 -182 OFFCURVE",
"267 -159 OFFCURVE",
"267 -128 CURVE SMOOTH",
"267 -75 OFFCURVE",
"307 -35 OFFCURVE",
"399 56 CURVE",
"357 56 LINE",
"278 -22 OFFCURVE",
"204 -85 OFFCURVE",
"204 -147 CURVE SMOOTH",
"204 -207 OFFCURVE",
"250 -241 OFFCURVE",
"315 -241 CURVE",
"366 -224 OFFCURVE",
"415 -178 OFFCURVE",
"415 -178 CURVE"
);
}
);
};
components = (
{
name = e;
},
{
name = ogonekcomb;
transform = "{1, 0, 0, 1, 125, 0}";
}
);
layerId = "083C0576-DCB5-487A-B9F4-85809F200F55";
width = 454;
}
);
leftKerningGroup = o;
rightKerningGroup = e;
unicode = 0119;
},
{
color = 1;
glyphname = f;
lastChange = "2016-10-28 13:24:24 +0000";
layers = (
{
layerId = "EDFD1FE9-67C2-43D2-81E5-EF1682ABC3BD";
paths = (
{
closed = 1;
nodes = (
"168 704 OFFCURVE",
"107 644 OFFCURVE",
"107 535 CURVE SMOOTH",
"108 190 LINE",
"105 0 LINE",
"188 0 LINE",
"185 199 LINE",
"188 548 LINE SMOOTH",
"188 611 OFFCURVE",
"217 642 OFFCURVE",
"268 642 CURVE SMOOTH",
"291 642 OFFCURVE",
"313 638 OFFCURVE",
"342 627 CURVE",
"348 632 LINE",
"354 695 LINE",
"326 701 OFFCURVE",
"300 704 OFFCURVE",
"275 704 CURVE SMOOTH"
);
},
{
closed = 1;
nodes = (
"40 457 LINE",
"35 410 LINE",
"39 404 LINE",
"304 404 LINE",
"309 451 LINE",
"305 457 LINE"
);
}
);
width = 306;
},
{
background = {
paths = (
{
closed = 1;
nodes = (
"105 695 LINE",
"110 195 LINE",
"104 0 LINE",
"189 0 LINE",
"183 202 LINE",
"190 702 LINE"
);
}
);
};
layerId = "083C0576-DCB5-487A-B9F4-85809F200F55";
paths = (
{
closed = 1;
nodes = (
"168 704 OFFCURVE",
"106 644 OFFCURVE",
"107 535 CURVE SMOOTH",
"110 195 LINE",
"104 0 LINE",
"189 0 LINE",
"183 202 LINE",
"188 548 LINE SMOOTH",
"189 611 OFFCURVE",
"217 642 OFFCURVE",
"268 642 CURVE SMOOTH",
"291 642 OFFCURVE",
"313 638 OFFCURVE",
"342 624 CURVE",
"348 629 LINE",
"354 695 LINE",
"326 701 OFFCURVE",
"300 704 OFFCURVE",
"275 704 CURVE SMOOTH"
);
},
{
closed = 1;
nodes = (
"40 457 LINE",
"35 407 LINE",
"39 401 LINE",
"304 401 LINE",
"309 451 LINE",
"306 457 LINE"
);
}
);
width = 306;
}
);
leftKerningGroup = f;
rightKerningGroup = f;
unicode = 0066;
},
{
color = 1;
glyphname = g;
lastChange = "2016-10-28 13:24:24 +0000";
layers = (
{
anchors = (
{
name = top;
position = "{246, 451}";
}
);
layerId = "EDFD1FE9-67C2-43D2-81E5-EF1682ABC3BD";
paths = (
{
closed = 1;
nodes = (
"128 172 LINE",
"98 152 OFFCURVE",
"75 132 OFFCURVE",
"64 111 CURVE",
"63 -26 OFFCURVE",
"373 50 OFFCURVE",
"373 -55 CURVE SMOOTH",
"373 -104 OFFCURVE",
"312 -144 OFFCURVE",
"234 -144 CURVE SMOOTH",
"159 -144 OFFCURVE",
"118 -110 OFFCURVE",
"118 -69 CURVE SMOOTH",
"118 -32 OFFCURVE",
"156 -3 OFFCURVE",
"204 23 CURVE",
"144 37 LINE",
"144 25 LINE",
"94 -4 OFFCURVE",
"64 -32 OFFCURVE",
"51 -71 CURVE",
"51 -143 OFFCURVE",
"116 -194 OFFCURVE",
"228 -194 CURVE SMOOTH",
"350 -194 OFFCURVE",
"443 -127 OFFCURVE",
"443 -42 CURVE SMOOTH",
"443 112 OFFCURVE",
"132 47 OFFCURVE",
"132 121 CURVE SMOOTH",
"132 132 OFFCURVE",
"141 143 OFFCURVE",
"174 165 CURVE",
"128 182 LINE"
);
},
{
closed = 1;
nodes = (
"307 411 OFFCURVE",
"346 375 OFFCURVE",
"346 309 CURVE SMOOTH",
"346 241 OFFCURVE",
"305 204 OFFCURVE",
"237 204 CURVE SMOOTH",
"169 204 OFFCURVE",
"131 241 OFFCURVE",
"131 308 CURVE SMOOTH",
"131 374 OFFCURVE",
"170 411 OFFCURVE",
"241 411 CURVE SMOOTH"
);
},
{
closed = 1;
nodes = (
"128 465 OFFCURVE",
"59 405 OFFCURVE",
"59 305 CURVE SMOOTH",
"59 208 OFFCURVE",
"124 151 OFFCURVE",
"236 151 CURVE SMOOTH",
"348 151 OFFCURVE",
"418 213 OFFCURVE",
"418 311 CURVE SMOOTH",
"418 405 OFFCURVE",
"349 465 OFFCURVE",
"242 465 CURVE SMOOTH"
);
},
{
closed = 1;
nodes = (
"435 463 OFFCURVE",
"377 448 OFFCURVE",
"327 439 CURVE",
"384 383 LINE",
"392 402 LINE",
"421 406 OFFCURVE",
"450 411 OFFCURVE",
"484 418 CURVE",
"484 472 LINE",
"477 478 LINE"
);
}
);
width = 488;
},
{
anchors = (
{
name = top;
position = "{246, 449}";
}
);
background = {
paths = (
{
closed = 1;
nodes = (
"129 171 LINE",
"103 154 OFFCURVE",
"82 133 OFFCURVE",
"67 110 CURVE",
"66 -30 OFFCURVE",
"366 49 OFFCURVE",
"366 -56 CURVE SMOOTH",
"366 -101 OFFCURVE",
"310 -134 OFFCURVE",
"236 -134 CURVE SMOOTH",
"165 -134 OFFCURVE",
"129 -105 OFFCURVE",
"129 -69 CURVE SMOOTH",
"129 -38 OFFCURVE",
"158 -11 OFFCURVE",
"207 19 CURVE",
"141 35 LINE",
"141 24 LINE",
"106 2 OFFCURVE",
"75 -23 OFFCURVE",
"54 -60 CURVE",
"54 -136 OFFCURVE",
"113 -193 OFFCURVE",
"224 -193 CURVE SMOOTH",
"346 -193 OFFCURVE",
"441 -126 OFFCURVE",
"441 -41 CURVE SMOOTH",
"441 111 OFFCURVE",
"145 46 OFFCURVE",
"145 121 CURVE SMOOTH",
"145 134 OFFCURVE",
"152 144 OFFCURVE",
"179 163 CURVE",
"129 182 LINE"
);
},
{
closed = 1;
nodes = (
"307 407 OFFCURVE",
"340 372 OFFCURVE",
"340 309 CURVE SMOOTH",
"340 246 OFFCURVE",
"304 207 OFFCURVE",
"236 207 CURVE SMOOTH",
"175 207 OFFCURVE",
"139 245 OFFCURVE",
"139 309 CURVE SMOOTH",
"139 372 OFFCURVE",
"177 407 OFFCURVE",
"243 407 CURVE SMOOTH"
);
},
{
closed = 1;
nodes = (
"135 464 OFFCURVE",
"63 405 OFFCURVE",
"63 303 CURVE SMOOTH",
"63 209 OFFCURVE",
"125 150 OFFCURVE",
"233 150 CURVE SMOOTH",
"347 150 OFFCURVE",
"416 213 OFFCURVE",
"416 310 CURVE SMOOTH",
"416 403 OFFCURVE",
"354 464 OFFCURVE",
"242 464 CURVE SMOOTH"
);
},
{
closed = 1;
nodes = (
"429 466 OFFCURVE",
"377 455 OFFCURVE",
"325 446 CURVE",
"390 379 LINE",
"398 396 LINE",
"429 402 OFFCURVE",
"460 408 OFFCURVE",
"488 417 CURVE",
"488 475 LINE",
"480 481 LINE"
);
}
);
};
layerId = "083C0576-DCB5-487A-B9F4-85809F200F55";
paths = (
{
closed = 1;
nodes = (
"129 171 LINE",
"103 154 OFFCURVE",
"82 133 OFFCURVE",
"67 110 CURVE",
"66 -30 OFFCURVE",
"366 49 OFFCURVE",
"366 -56 CURVE SMOOTH",
"366 -101 OFFCURVE",
"310 -134 OFFCURVE",
"235 -134 CURVE SMOOTH",
"165 -134 OFFCURVE",
"129 -105 OFFCURVE",
"129 -69 CURVE SMOOTH",
"129 -38 OFFCURVE",
"158 -11 OFFCURVE",
"207 19 CURVE",
"141 35 LINE",
"141 24 LINE",
"106 2 OFFCURVE",
"75 -23 OFFCURVE",
"54 -60 CURVE",
"54 -136 OFFCURVE",
"113 -193 OFFCURVE",
"225 -193 CURVE SMOOTH",
"346 -193 OFFCURVE",
"441 -126 OFFCURVE",
"441 -40 CURVE SMOOTH",
"441 108 OFFCURVE",
"147 47 OFFCURVE",
"147 120 CURVE SMOOTH",
"147 134 OFFCURVE",
"155 144 OFFCURVE",
"180 163 CURVE",
"129 182 LINE"
);
},
{
closed = 1;
nodes = (
"307 407 OFFCURVE",
"340 372 OFFCURVE",
"340 311 CURVE SMOOTH",
"340 246 OFFCURVE",
"303 207 OFFCURVE",
"238 207 CURVE SMOOTH",
"174 207 OFFCURVE",
"139 245 OFFCURVE",
"139 307 CURVE SMOOTH",
"139 372 OFFCURVE",
"177 407 OFFCURVE",
"242 407 CURVE SMOOTH"
);
},
{
closed = 1;
nodes = (
"135 464 OFFCURVE",
"63 405 OFFCURVE",
"63 303 CURVE SMOOTH",
"63 209 OFFCURVE",
"124 150 OFFCURVE",
"234 150 CURVE SMOOTH",
"347 150 OFFCURVE",
"416 213 OFFCURVE",
"416 310 CURVE SMOOTH",
"416 403 OFFCURVE",
"353 464 OFFCURVE",
"243 464 CURVE SMOOTH"
);
},
{
closed = 1;
nodes = (
"429 466 OFFCURVE",
"377 455 OFFCURVE",
"325 446 CURVE",
"390 379 LINE",
"398 396 LINE",
"429 402 OFFCURVE",
"460 408 OFFCURVE",
"488 417 CURVE",
"488 475 LINE",
"480 481 LINE"
);
}
);
width = 488;
}
);
leftKerningGroup = g;
rightKerningGroup = g;
unicode = 0067;
},
{
color = 0;
glyphname = h;
lastChange = "2016-10-28 13:24:24 +0000";
layers = (
{
anchors = (
{
name = center;
position = "{261, 230}";
},
{
name = top;
position = "{123, 647}";
}
);
components = (
{
name = l;
}
);
layerId = "EDFD1FE9-67C2-43D2-81E5-EF1682ABC3BD";
paths = (
{
closed = 1;
nodes = (
"261 459 OFFCURVE",
"212 431 OFFCURVE",
"169 385 CURVE",
"154 385 LINE",
"154 324 LINE",
"196 370 OFFCURVE",
"242 397 OFFCURVE",
"283 397 CURVE SMOOTH",
"339 397 OFFCURVE",
"371 362 OFFCURVE",
"371 300 CURVE SMOOTH",
"366 0 LINE",
"449 0 LINE",
"447 200 LINE",
"449 330 LINE SMOOTH",
"451 416 OFFCURVE",
"400 465 OFFCURVE",
"311 465 CURVE SMOOTH"
);
},
{
closed = 0;
nodes = (
"265 218 LINE"
);
}
);
width = 522;
},
{
anchors = (
{
name = center;
position = "{261, 230}";
},
{
name = top;
position = "{123, 647}";
}
);
background = {
anchors = (
{
name = center;
position = "{261, 230}";
},
{
name = top;
position = "{123, 647}";
}
);
components = (
{
name = l;
}
);
paths = (
{
closed = 1;
nodes = (
"261 459 OFFCURVE",
"212 431 OFFCURVE",
"169 385 CURVE",
"154 385 LINE",
"154 324 LINE",
"196 370 OFFCURVE",
"242 397 OFFCURVE",
"283 397 CURVE SMOOTH",
"339 397 OFFCURVE",
"371 362 OFFCURVE",
"371 300 CURVE SMOOTH",
"366 0 LINE",
"449 0 LINE",
"447 200 LINE",
"449 330 LINE SMOOTH",
"451 416 OFFCURVE",
"400 465 OFFCURVE",
"311 465 CURVE SMOOTH"
);
},
{
closed = 0;
nodes = (
"265 218 LINE"
);
}
);
};
components = (
{
name = l;
}
);
layerId = "083C0576-DCB5-487A-B9F4-85809F200F55";
paths = (
{
closed = 1;
nodes = (
"255 454 OFFCURVE",
"211 430 OFFCURVE",
"170 395 CURVE",
"154 395 LINE",
"154 316 LINE",
"200 365 OFFCURVE",
"248 394 OFFCURVE",
"296 394 CURVE SMOOTH",
"347 394 OFFCURVE",
"372 361 OFFCURVE",
"371 310 CURVE SMOOTH",
"365 0 LINE",
"451 0 LINE",
"447 200 LINE",
"449 330 LINE",
"450 416 OFFCURVE",
"397 465 OFFCURVE",
"294 465 CURVE"
);
},
{
closed = 0;
nodes = (
"255 246 LINE"
);
}
);
width = 521;
}
);
leftKerningGroup = h;
leftMetricsKey = l;
rightKerningGroup = n;
rightMetricsKey = n;
unicode = 0068;
},
{
color = 0;
glyphname = hbar;
lastChange = "2016-10-28 13:24:24 +0000";
layers = (
{
components = (
{
name = h;
transform = "{1, 0, 0, 1, -4, 0}";
}
);
layerId = "EDFD1FE9-67C2-43D2-81E5-EF1682ABC3BD";
paths = (
{
closed = 1;
nodes = (
"8 597 LINE",
"4 554 LINE",
"10 548 LINE",
"288 548 LINE",
"291 590 LINE",
"285 597 LINE"
);
}
);
width = 516;
},
{
background = {
paths = (
{
closed = 1;
nodes = (
"8 597 LINE",
"3 552 LINE",
"9 546 LINE",
"287 546 LINE",
"292 590 LINE",
"285 597 LINE"
);
}
);
};
components = (
{
name = h;
transform = "{1, 0, 0, 1, -4, 0}";
}
);
layerId = "083C0576-DCB5-487A-B9F4-85809F200F55";
paths = (
{
closed = 1;
nodes = (
"8 607 LINE",
"4 562 LINE",
"10 556 LINE",
"288 556 LINE",
"292 600 LINE",
"285 607 LINE"
);
}
);
width = 516;
}
);
leftKerningGroup = h;
rightKerningGroup = n;
unicode = 0127;
},
{
color = 10;
glyphname = i;
lastChange = "2016-10-28 13:24:24 +0000";
layers = (
{
components = (
{
name = idotless;
},
{
name = dotaccentcomb;
transform = "{1, 0, 0, 1, -2, 0}";
}
);
layerId = "EDFD1FE9-67C2-43D2-81E5-EF1682ABC3BD";
width = 240;
},
{
background = {
paths = (
{
closed = 1;
nodes = (
"166 602 OFFCURVE",
"192 628 OFFCURVE",
"192 661 CURVE SMOOTH",
"192 691 OFFCURVE",
"171 712 OFFCURVE",
"143 712 CURVE SMOOTH",
"110 712 OFFCURVE",
"84 686 OFFCURVE",
"84 653 CURVE SMOOTH",
"84 623 OFFCURVE",
"104 602 OFFCURVE",
"133 602 CURVE SMOOTH"
);
},
{
closed = 1;
nodes = (
"44 -12 LINE",
"44 -12 OFFCURVE",
"105 0 OFFCURVE",
"147 0 CURVE SMOOTH",
"184 0 OFFCURVE",
"236 -3 OFFCURVE",
"236 -3 CURVE",
"244 40 LINE",
"242 44 LINE",
"242 44 OFFCURVE",
"219 42 OFFCURVE",
"207 42 CURVE SMOOTH",
"182 42 OFFCURVE",
"172 59 OFFCURVE",
"172 98 CURVE SMOOTH",
"172 255 OFFCURVE",
"183 424 OFFCURVE",
"195 452 CURVE",
"190 464 LINE",
"190 464 OFFCURVE",
"113 445 OFFCURVE",
"46 435 CURVE",
"42 398 LINE",
"42 398 OFFCURVE",
"56 402 OFFCURVE",
"67 402 CURVE SMOOTH",
"92 402 OFFCURVE",
"104 385 OFFCURVE",
"104 348 CURVE SMOOTH",
"104 94 LINE SMOOTH",
"104 59 OFFCURVE",
"88 40 OFFCURVE",
"48 29 CURVE"
);
}
);
};
components = (
{
name = idotless;
},
{
name = dotaccentcomb;
transform = "{1, 0, 0, 1, -2, 0}";
}
);
layerId = "083C0576-DCB5-487A-B9F4-85809F200F55";
width = 240;
}
);
leftKerningGroup = l;
leftMetricsKey = idotless;
rightKerningGroup = l;
rightMetricsKey = idotless;
unicode = 0069;
},
{
color = 1;
glyphname = idotless;
lastChange = "2016-10-28 13:24:24 +0000";
layers = (
{
anchors = (
{
name = bottom;
position = "{120, 0}";
},
{
name = ogonek;
position = "{216, 10}";
},
{
name = top;
position = "{120, 459}";
}
);
layerId = "EDFD1FE9-67C2-43D2-81E5-EF1682ABC3BD";
paths = (
{
closed = 1;
nodes = (
"161 0 LINE",
"159 201 LINE",
"162 461 LINE",
"79 453 LINE",
"81 194 LINE",
"78 0 LINE"
);
}
);
width = 240;
},
{
anchors = (
{
name = bottom;
position = "{120, 0}";
},
{
name = ogonek;
position = "{216, 10}";
},
{
name = top;
position = "{120, 459}";
}
);
background = {
paths = (
{
closed = 1;
nodes = (
"44 -12 LINE",
"44 -12 OFFCURVE",
"105 0 OFFCURVE",
"147 0 CURVE SMOOTH",
"184 0 OFFCURVE",
"236 -3 OFFCURVE",
"236 -3 CURVE",
"244 40 LINE",
"242 44 LINE",
"242 44 OFFCURVE",
"219 42 OFFCURVE",
"207 42 CURVE SMOOTH",
"182 42 OFFCURVE",
"172 59 OFFCURVE",
"172 98 CURVE SMOOTH",
"172 255 OFFCURVE",
"183 424 OFFCURVE",
"195 452 CURVE",
"190 464 LINE",
"190 464 OFFCURVE",
"113 445 OFFCURVE",
"46 435 CURVE",
"42 398 LINE",
"42 398 OFFCURVE",
"56 402 OFFCURVE",
"67 402 CURVE SMOOTH",
"92 402 OFFCURVE",
"104 385 OFFCURVE",
"104 348 CURVE SMOOTH",
"104 94 LINE SMOOTH",
"104 59 OFFCURVE",
"88 40 OFFCURVE",
"48 29 CURVE"
);
}
);
};
layerId = "083C0576-DCB5-487A-B9F4-85809F200F55";
paths = (
{
closed = 1;
nodes = (
"162 0 LINE",
"156 201 LINE",
"163 461 LINE",
"78 453 LINE",
"83 194 LINE",
"77 0 LINE"
);
}
);
width = 240;
}
);
leftKerningGroup = l;
rightKerningGroup = l;
unicode = 0131;
},
{
color = 10;
glyphname = idotaccent;
lastChange = "2016-10-28 13:24:24 +0000";
layers = (
{
components = (
{
name = idotless;
},
{
name = dotaccentcomb;
transform = "{1, 0, 0, 1, -2, 0}";
}
);
layerId = "EDFD1FE9-67C2-43D2-81E5-EF1682ABC3BD";
width = 240;
},
{
background = {
paths = (
{
closed = 1;
nodes = (
"166 602 OFFCURVE",
"192 628 OFFCURVE",
"192 661 CURVE SMOOTH",
"192 691 OFFCURVE",
"171 712 OFFCURVE",
"143 712 CURVE SMOOTH",
"110 712 OFFCURVE",
"84 686 OFFCURVE",
"84 653 CURVE SMOOTH",
"84 623 OFFCURVE",
"104 602 OFFCURVE",
"133 602 CURVE SMOOTH"
);
},
{
closed = 1;
nodes = (
"44 -12 LINE",
"44 -12 OFFCURVE",
"105 0 OFFCURVE",
"147 0 CURVE SMOOTH",
"184 0 OFFCURVE",
"236 -3 OFFCURVE",
"236 -3 CURVE",
"244 40 LINE",
"242 44 LINE",
"242 44 OFFCURVE",
"219 42 OFFCURVE",
"207 42 CURVE SMOOTH",
"182 42 OFFCURVE",
"172 59 OFFCURVE",
"172 98 CURVE SMOOTH",
"172 255 OFFCURVE",
"183 424 OFFCURVE",
"195 452 CURVE",
"190 464 LINE",
"190 464 OFFCURVE",
"113 445 OFFCURVE",
"46 435 CURVE",
"42 398 LINE",
"42 398 OFFCURVE",
"56 402 OFFCURVE",
"67 402 CURVE SMOOTH",
"92 402 OFFCURVE",
"104 385 OFFCURVE",
"104 348 CURVE SMOOTH",
"104 94 LINE SMOOTH",
"104 59 OFFCURVE",
"88 40 OFFCURVE",
"48 29 CURVE"
);
}
);
};
components = (
{
name = idotless;
},
{
name = dotaccentcomb;
transform = "{1, 0, 0, 1, -2, 0}";
}
);
layerId = "083C0576-DCB5-487A-B9F4-85809F200F55";
width = 240;
}
);
leftKerningGroup = l;
rightKerningGroup = l;
},
{
color = 0;
glyphname = iogonek;
lastChange = "2016-10-28 13:24:24 +0000";
layers = (
{
components = (
{
name = idotless;
},
{
name = dotaccentcomb;
transform = "{1, 0, 0, 1, -1, 0}";
}
);
layerId = "EDFD1FE9-67C2-43D2-81E5-EF1682ABC3BD";
paths = (
{
closed = 1;
nodes = (
"78 0 LINE",
"37 -62 OFFCURVE",
"17 -100 OFFCURVE",
"17 -132 CURVE SMOOTH",
"17 -168 OFFCURVE",
"42 -197 OFFCURVE",
"85 -197 CURVE SMOOTH",
"115 -197 OFFCURVE",
"141 -182 OFFCURVE",
"166 -149 CURVE",
"153 -113 LINE",
"148 -113 LINE",
"134 -136 OFFCURVE",
"115 -149 OFFCURVE",
"95 -149 CURVE SMOOTH",
"74 -149 OFFCURVE",
"64 -136 OFFCURVE",
"64 -120 CURVE SMOOTH",
"64 -99 OFFCURVE",
"82 -62 OFFCURVE",
"127 4 CURVE"
);
}
);
width = 240;
},
{
background = {
paths = (
{
closed = 1;
nodes = (
"97 2 LINE",
"55 -58 OFFCURVE",
"43 -87 OFFCURVE",
"43 -118 CURVE SMOOTH",
"43 -167 OFFCURVE",
"74 -197 OFFCURVE",
"121 -197 CURVE SMOOTH",
"150 -197 OFFCURVE",
"176 -178 OFFCURVE",
"200 -144 CURVE",
"189 -104 LINE",
"184 -104 LINE",
"169 -126 OFFCURVE",
"150 -140 OFFCURVE",
"132 -140 CURVE SMOOTH",
"110 -140 OFFCURVE",
"99 -129 OFFCURVE",
"99 -106 CURVE SMOOTH",
"99 -83 OFFCURVE",
"110 -57 OFFCURVE",
"150 2 CURVE"
);
}
);
};
components = (
{
name = idotless;
},
{
name = dotaccentcomb;
transform = "{1, 0, 0, 1, -1, 0}";
}
);
layerId = "083C0576-DCB5-487A-B9F4-85809F200F55";
paths = (
{
closed = 1;
nodes = (
"77 0 LINE",
"35 -59 OFFCURVE",
"23 -87 OFFCURVE",
"23 -118 CURVE SMOOTH",
"23 -167 OFFCURVE",
"54 -197 OFFCURVE",
"100 -197 CURVE SMOOTH",
"126 -197 OFFCURVE",
"149 -187 OFFCURVE",
"170 -168 CURVE",
"161 -118 LINE",
"154 -118 LINE",
"141 -131 OFFCURVE",
"127 -140 OFFCURVE",
"111 -140 CURVE SMOOTH",
"92 -140 OFFCURVE",
"79 -129 OFFCURVE",
"79 -105 CURVE SMOOTH",
"79 -83 OFFCURVE",
"90 -57 OFFCURVE",
"130 0 CURVE"
);
}
);
width = 240;
}
);
leftKerningGroup = l;
rightKerningGroup = l;
unicode = 012F;
},
{
color = 10;
glyphname = j;
lastChange = "2016-10-28 13:24:24 +0000";
layers = (
{
components = (
{
name = jdotless;
},
{
name = dotaccentcomb;
}
);
layerId = "EDFD1FE9-67C2-43D2-81E5-EF1682ABC3BD";
width = 252;
},
{
background = {
paths = (
{
closed = 1;
nodes = (
"168 704 OFFCURVE",
"106 644 OFFCURVE",
"106 535 CURVE SMOOTH",
"108 190 LINE",
"105 0 LINE",
"188 0 LINE",
"185 199 LINE",
"187 548 LINE SMOOTH",
"188 611 OFFCURVE",
"217 642 OFFCURVE",
"268 642 CURVE SMOOTH",
"291 642 OFFCURVE",
"313 638 OFFCURVE",
"342 624 CURVE",
"348 629 LINE",
"354 695 LINE",
"326 701 OFFCURVE",
"300 704 OFFCURVE",
"275 704 CURVE SMOOTH"
);
},
{
closed = 1;
nodes = (
"40 457 LINE",
"35 407 LINE",
"39 401 LINE",
"304 401 LINE",
"309 451 LINE",
"306 457 LINE"
);
}
);
};
components = (
{
name = jdotless;
},
{
name = dotaccentcomb;
transform = "{1, 0, 0, 1, 6, 0}";
}
);
layerId = "083C0576-DCB5-487A-B9F4-85809F200F55";
width = 269;
}
);
leftKerningGroup = j;
rightKerningGroup = j;
rightMetricsKey = i;
unicode = 006A;
},
{
color = 1;
glyphname = jdotless;
lastChange = "2016-10-28 13:24:24 +0000";
layers = (
{
anchors = (
{
name = top;
position = "{122, 459}";
}
);
layerId = "EDFD1FE9-67C2-43D2-81E5-EF1682ABC3BD";
paths = (
{
closed = 1;
nodes = (
"96 457 LINE",
"17 457 LINE",
"12 410 LINE",
"18 404 LINE",
"95 404 LINE",
"96 194 LINE",
"96 16 LINE",
"96 -64 OFFCURVE",
"76 -106 OFFCURVE",
"18 -147 CURVE",
"18 -156 LINE",
"48 -194 LINE",
"141 -141 OFFCURVE",
"176 -85 OFFCURVE",
"176 20 CURVE",
"174 201 LINE",
"177 459 LINE",
"174 461 LINE"
);
}
);
width = 252;
},
{
anchors = (
{
name = top;
position = "{128, 459}";
}
);
background = {
paths = (
{
closed = 1;
nodes = (
"102 453 LINE",
"107 194 LINE",
"101 0 LINE",
"186 0 LINE",
"180 201 LINE",
"187 461 LINE"
);
}
);
};
layerId = "083C0576-DCB5-487A-B9F4-85809F200F55";
paths = (
{
closed = 1;
nodes = (
"104 457 LINE",
"9 457 LINE",
"4 408 LINE",
"10 401 LINE",
"103 401 LINE",
"107 194 LINE",
"105 16 LINE",
"105 -64 OFFCURVE",
"81 -105 OFFCURVE",
"10 -146 CURVE",
"10 -156 LINE",
"42 -194 LINE",
"146 -141 OFFCURVE",
"185 -85 OFFCURVE",
"185 20 CURVE",
"180 201 LINE",
"187 459 LINE",
"184 461 LINE"
);
}
);
width = 269;
}
);
leftKerningGroup = j;
rightKerningGroup = j;
unicode = 0237;
},
{
color = 0;
glyphname = k;
lastChange = "2016-10-28 13:24:24 +0000";
layers = (
{
anchors = (
{
name = bottom;
position = "{254, 0}";
}
);
components = (
{
name = l;
}
);
layerId = "EDFD1FE9-67C2-43D2-81E5-EF1682ABC3BD";
paths = (
{
closed = 1;
nodes = (
"349 459 LINE",
"323 417 LINE",
"179 248 LINE",
"179 241 LINE",
"237 156 OFFCURVE",
"301 75 OFFCURVE",
"368 -5 CURVE",
"377 -9 LINE",
"403 -5 OFFCURVE",
"429 -2 OFFCURVE",
"453 5 CURVE",
"454 15 LINE",
"388 90 OFFCURVE",
"323 169 OFFCURVE",
"263 249 CURVE",
"441 459 LINE"
);
}
);
width = 462;
},
{
anchors = (
{
name = bottom;
position = "{253, 0}";
}
);
background = {
paths = (
{
closed = 1;
nodes = (
"29 -6 LINE",
"29 -6 OFFCURVE",
"86 0 OFFCURVE",
"128 0 CURVE SMOOTH",
"165 0 OFFCURVE",
"219 -3 OFFCURVE",
"219 -3 CURVE",
"228 40 LINE",
"226 44 LINE",
"226 44 OFFCURVE",
"203 42 OFFCURVE",
"191 42 CURVE SMOOTH",
"165 42 OFFCURVE",
"155 57 OFFCURVE",
"155 98 CURVE SMOOTH",
"155 398 OFFCURVE",
"169 707 OFFCURVE",
"183 729 CURVE",
"177 742 LINE",
"177 742 OFFCURVE",
"98 722 OFFCURVE",
"29 713 CURVE",
"27 694 LINE SMOOTH",
"26 688 OFFCURVE",
"25 682 OFFCURVE",
"25 676 CURVE SMOOTH",
"25 676 OFFCURVE",
"39 680 OFFCURVE",
"50 680 CURVE SMOOTH",
"75 680 OFFCURVE",
"87 663 OFFCURVE",
"87 626 CURVE SMOOTH",
"87 135 LINE SMOOTH",
"87 68 OFFCURVE",
"88 43 OFFCURVE",
"34 35 CURVE"
);
},
{
closed = 1;
nodes = (
"298 71 LINE SMOOTH",
"329 28 OFFCURVE",
"347 7 OFFCURVE",
"368 -4 CURVE SMOOTH",
"378 -9 OFFCURVE",
"390 -14 OFFCURVE",
"403 -14 CURVE SMOOTH",
"418 -14 OFFCURVE",
"477 2 OFFCURVE",
"477 2 CURVE",
"483 31 LINE",
"480 36 LINE",
"439 36 OFFCURVE",
"405 59 OFFCURVE",
"359 118 CURVE SMOOTH",
"254 253 LINE",
"320 317 OFFCURVE",
"395 401 OFFCURVE",
"467 422 CURVE",
"475 453 LINE",
"472 458 LINE",
"472 458 OFFCURVE",
"415 452 OFFCURVE",
"377 452 CURVE SMOOTH",
"341 452 OFFCURVE",
"276 454 OFFCURVE",
"276 454 CURVE",
"267 425 LINE",
"270 420 LINE",
"309 420 OFFCURVE",
"325 414 OFFCURVE",
"325 399 CURVE SMOOTH",
"325 389 OFFCURVE",
"319 381 OFFCURVE",
"301 364 CURVE SMOOTH",
"182 250 LINE",
"180 234 LINE"
);
}
);
};
components = (
{
name = l;
}
);
layerId = "083C0576-DCB5-487A-B9F4-85809F200F55";
paths = (
{
closed = 1;
nodes = (
"345 459 LINE",
"319 417 LINE",
"179 248 LINE",
"179 241 LINE",
"236 156 OFFCURVE",
"299 74 OFFCURVE",
"365 -5 CURVE",
"375 -9 LINE",
"401 -5 OFFCURVE",
"427 -2 OFFCURVE",
"452 5 CURVE",
"452 15 LINE",
"388 90 OFFCURVE",
"322 169 OFFCURVE",
"263 249 CURVE",
"440 459 LINE"
);
}
);
width = 460;
}
);
leftKerningGroup = h;
leftMetricsKey = l;
rightKerningGroup = x;
unicode = 006B;
},
{
color = 0;
glyphname = kgreenlandic;
lastChange = "2016-10-28 13:24:24 +0000";
layers = (
{
anchors = (
{
name = bottom;
position = "{229, 0}";
},
{
name = ogonek;
position = "{216, 10}";
},
{
name = top;
position = "{229, 459}";
}
);
layerId = "EDFD1FE9-67C2-43D2-81E5-EF1682ABC3BD";
paths = (
{
closed = 1;
nodes = (
"345 459 LINE",
"319 417 LINE",
"175 248 LINE",
"175 241 LINE",
"233 156 OFFCURVE",
"297 75 OFFCURVE",
"364 -5 CURVE",
"373 -9 LINE",
"399 -5 OFFCURVE",
"424 -2 OFFCURVE",
"449 5 CURVE",
"449 15 LINE",
"383 90 OFFCURVE",
"318 169 OFFCURVE",
"258 249 CURVE",
"436 459 LINE"
);
},
{
closed = 1;
nodes = (
"161 0 LINE",
"159 201 LINE",
"162 461 LINE",
"79 453 LINE",
"81 194 LINE",
"78 0 LINE"
);
}
);
width = 457;
},
{
anchors = (
{
name = bottom;
position = "{229, 0}";
},
{
name = ogonek;
position = "{216, 10}";
},
{
name = top;
position = "{229, 459}";
}
);
background = {
paths = (
{
closed = 1;
nodes = (
"44 -6 LINE",
"44 -6 OFFCURVE",
"101 0 OFFCURVE",
"143 0 CURVE SMOOTH",
"180 0 OFFCURVE",
"234 -3 OFFCURVE",
"234 -3 CURVE",
"243 40 LINE",
"241 44 LINE",
"241 44 OFFCURVE",
"218 42 OFFCURVE",
"206 42 CURVE SMOOTH",
"180 42 OFFCURVE",
"170 57 OFFCURVE",
"170 98 CURVE SMOOTH",
"170 310 OFFCURVE",
"178 429 OFFCURVE",
"182 451 CURVE",
"176 464 LINE",
"176 464 OFFCURVE",
"102 453 OFFCURVE",
"43 447 CURVE",
"39 412 LINE",
"45 407 LINE",
"92 407 OFFCURVE",
"102 392 OFFCURVE",
"102 358 CURVE SMOOTH",
"102 135 LINE SMOOTH",
"102 68 OFFCURVE",
"103 43 OFFCURVE",
"49 35 CURVE"
);
},
{
closed = 1;
nodes = (
"313 71 LINE SMOOTH",
"343 28 OFFCURVE",
"362 7 OFFCURVE",
"383 -4 CURVE SMOOTH",
"393 -9 OFFCURVE",
"405 -14 OFFCURVE",
"418 -14 CURVE SMOOTH",
"433 -14 OFFCURVE",
"492 2 OFFCURVE",
"492 2 CURVE",
"498 31 LINE",
"495 36 LINE",
"454 36 OFFCURVE",
"420 59 OFFCURVE",
"374 118 CURVE SMOOTH",
"269 253 LINE",
"335 317 OFFCURVE",
"410 401 OFFCURVE",
"482 422 CURVE",
"490 453 LINE",
"487 458 LINE",
"487 458 OFFCURVE",
"430 452 OFFCURVE",
"392 452 CURVE SMOOTH",
"356 452 OFFCURVE",
"294 454 OFFCURVE",
"294 454 CURVE",
"285 425 LINE",
"288 420 LINE",
"327 420 OFFCURVE",
"343 414 OFFCURVE",
"343 399 CURVE SMOOTH",
"343 389 OFFCURVE",
"337 381 OFFCURVE",
"319 364 CURVE SMOOTH",
"197 252 LINE",
"195 238 LINE"
);
}
);
};
layerId = "083C0576-DCB5-487A-B9F4-85809F200F55";
paths = (
{
closed = 1;
nodes = (
"345 459 LINE",
"319 417 LINE",
"175 248 LINE",
"175 241 LINE",
"233 156 OFFCURVE",
"297 75 OFFCURVE",
"364 -5 CURVE",
"373 -9 LINE",
"399 -5 OFFCURVE",
"424 -2 OFFCURVE",
"449 5 CURVE",
"449 15 LINE",
"383 90 OFFCURVE",
"318 169 OFFCURVE",
"258 249 CURVE",
"436 459 LINE"
);
},
{
closed = 1;
nodes = (
"161 0 LINE",
"159 201 LINE",
"162 461 LINE",
"79 453 LINE",
"81 194 LINE",
"78 0 LINE"
);
}
);
width = 457;
}
);
leftKerningGroup = h;
rightKerningGroup = x;
rightMetricsKey = k;
unicode = 0138;
},
{
color = 1;
glyphname = l;
lastChange = "2016-10-28 13:24:24 +0000";
layers = (
{
anchors = (
{
name = bottom;
position = "{124, 0}";
},
{
name = top;
position = "{124, 680}";
},
{
name = topright;
position = "{229, 459}";
}
);
layerId = "EDFD1FE9-67C2-43D2-81E5-EF1682ABC3BD";
paths = (
{
closed = 1;
nodes = (
"83 695 LINE",
"86 193 LINE",
"83 0 LINE",
"166 0 LINE",
"163 200 LINE",
"166 702 LINE"
);
}
);
width = 249;
},
{
anchors = (
{
name = bottom;
position = "{124, 0}";
},
{
name = top;
position = "{124, 680}";
},
{
name = topright;
position = "{229, 459}";
}
);
background = {
paths = (
{
closed = 1;
nodes = (
"83 453 LINE",
"88 194 LINE",
"82 0 LINE",
"167 0 LINE",
"161 201 LINE",
"168 461 LINE"
);
}
);
};
layerId = "083C0576-DCB5-487A-B9F4-85809F200F55";
paths = (
{
closed = 1;
nodes = (
"83 695 LINE",
"88 195 LINE",
"82 0 LINE",
"167 0 LINE",
"161 202 LINE",
"168 702 LINE"
);
}
);
width = 249;
}
);
leftKerningGroup = h;
rightKerningGroup = l;
unicode = 006C;
},
{
color = 0;
glyphname = lcaron;
lastChange = "2016-10-28 13:24:24 +0000";
layers = (
{
components = (
{
name = l;
},
{
name = caron.alt;
transform = "{1, 0, 0, 1, 75, -48}";
}
);
layerId = "EDFD1FE9-67C2-43D2-81E5-EF1682ABC3BD";
paths = (
{
closed = 0;
nodes = (
"205 148 LINE"
);
}
);
width = 290;
},
{
background = {
components = (
{
name = l;
}
);
paths = (
{
closed = 1;
nodes = (
"297 699 LINE",
"227 685 LINE",
"227 685 OFFCURVE",
"237 577 OFFCURVE",
"233 467 CURVE",
"244 465 LINE",
"269 479 LINE",
"290 581 OFFCURVE",
"304 691 OFFCURVE",
"304 691 CURVE"
);
}
);
};
components = (
{
name = l;
},
{
name = caron.alt;
transform = "{1, 0, 0, 1, 63, -43}";
}
);
layerId = "083C0576-DCB5-487A-B9F4-85809F200F55";
paths = (
{
closed = 0;
nodes = (
"200 131 LINE"
);
}
);
width = 259;
}
);
leftKerningGroup = h;
rightKerningGroup = l;
unicode = 013E;
},
{
color = 0;
glyphname = ldot;
lastChange = "2016-10-28 13:24:24 +0000";
layers = (
{
components = (
{
name = l;
},
{
name = periodcentered;
transform = "{1, 0, 0, 1, 156, 35}";
}
);
layerId = "EDFD1FE9-67C2-43D2-81E5-EF1682ABC3BD";
paths = (
{
closed = 0;
nodes = (
"176 -78 LINE"
);
}
);
width = 313;
},
{
background = {
components = (
{
name = l;
},
{
name = periodcentered;
transform = "{1, 0, 0, 1, 148, 51}";
}
);
};
components = (
{
name = l;
},
{
name = periodcentered;
transform = "{1, 0, 0, 1, 156, 35}";
}
);
layerId = "083C0576-DCB5-487A-B9F4-85809F200F55";
paths = (
{
closed = 0;
nodes = (
"176 -78 LINE"
);
}
);
width = 315;
}
);
leftKerningGroup = h;
rightKerningGroup = l;
unicode = 0140;
},
{
color = 0;
glyphname = lslash;
lastChange = "2016-10-28 13:24:24 +0000";
layers = (
{
components = (
{
name = l;
transform = "{1, 0, 0, 1, 7, 0}";
}
);
layerId = "EDFD1FE9-67C2-43D2-81E5-EF1682ABC3BD";
paths = (
{
closed = 1;
nodes = (
"143 411 LINE",
"136 416 LINE",
"-10 342 LINE",
"7 294 LINE",
"14 292 LINE",
"137 354 LINE",
"144 349 LINE",
"274 416 LINE",
"258 464 LINE",
"251 466 LINE"
);
}
);
width = 263;
},
{
background = {
paths = (
{
closed = 1;
nodes = (
"9 347 LINE",
"25 296 LINE",
"35 291 LINE",
"340 452 LINE",
"324 503 LINE",
"314 507 LINE"
);
}
);
};
components = (
{
name = l;
transform = "{1, 0, 0, 1, 7, 0}";
}
);
layerId = "083C0576-DCB5-487A-B9F4-85809F200F55";
paths = (
{
closed = 1;
nodes = (
"131 411 LINE",
"120 408 LINE",
"9 350 LINE",
"27 295 LINE",
"32 292 LINE",
"132 344 LINE",
"143 347 LINE",
"255 407 LINE",
"237 462 LINE",
"232 464 LINE"
);
}
);
width = 263;
}
);
leftKerningGroup = lslash;
rightKerningGroup = lslash;
unicode = 0142;
},
{
color = 1;
glyphname = m;
lastChange = "2016-10-28 13:24:24 +0000";
layers = (
{
anchors = (
{
name = bottom;
position = "{399, 0}";
},
{
name = top;
position = "{399, 459}";
}
);
layerId = "EDFD1FE9-67C2-43D2-81E5-EF1682ABC3BD";
paths = (
{
closed = 1;
nodes = (
"537 459 OFFCURVE",
"485 429 OFFCURVE",
"440 382 CURVE",
"422 382 LINE",
"431 327 LINE",
"473 372 OFFCURVE",
"519 397 OFFCURVE",
"560 397 CURVE SMOOTH",
"615 397 OFFCURVE",
"647 363 OFFCURVE",
"647 300 CURVE SMOOTH",
"642 0 LINE",
"725 0 LINE",
"724 200 LINE",
"725 330 LINE SMOOTH",
"726 416 OFFCURVE",
"676 465 OFFCURVE",
"587 465 CURVE SMOOTH"
);
},
{
closed = 1;
nodes = (
"79 453 LINE",
"81 194 LINE",
"78 0 LINE",
"161 0 LINE",
"158 201 LINE",
"158 461 LINE"
);
},
{
closed = 1;
nodes = (
"256 459 OFFCURVE",
"207 431 OFFCURVE",
"164 385 CURVE",
"149 385 LINE",
"149 324 LINE",
"192 371 OFFCURVE",
"236 397 OFFCURVE",
"277 397 CURVE SMOOTH",
"333 397 OFFCURVE",
"365 363 OFFCURVE",
"365 300 CURVE SMOOTH",
"360 0 LINE",
"443 0 LINE",
"441 200 LINE",
"442 330 LINE SMOOTH",
"443 416 OFFCURVE",
"394 465 OFFCURVE",
"305 465 CURVE SMOOTH"
);
}
);
width = 797;
},
{
anchors = (
{
name = bottom;
position = "{399, 0}";
},
{
name = top;
position = "{399, 459}";
}
);
layerId = "083C0576-DCB5-487A-B9F4-85809F200F55";
paths = (
{
closed = 1;
nodes = (
"531 453 OFFCURVE",
"483 428 OFFCURVE",
"440 390 CURVE",
"424 390 LINE",
"433 316 LINE",
"479 365 OFFCURVE",
"527 394 OFFCURVE",
"575 394 CURVE SMOOTH",
"626 394 OFFCURVE",
"651 361 OFFCURVE",
"650 310 CURVE SMOOTH",
"644 0 LINE",
"730 0 LINE",
"726 200 LINE",
"728 330 LINE SMOOTH",
"729 416 OFFCURVE",
"676 465 OFFCURVE",
"573 465 CURVE"
);
},
{
closed = 1;
nodes = (
"78 453 LINE",
"82 194 LINE",
"77 0 LINE",
"162 0 LINE",
"157 201 LINE",
"159 461 LINE"
);
},
{
closed = 1;
nodes = (
"250 454 OFFCURVE",
"206 430 OFFCURVE",
"165 395 CURVE",
"149 395 LINE",
"149 316 LINE",
"195 365 OFFCURVE",
"243 394 OFFCURVE",
"291 394 CURVE SMOOTH",
"342 394 OFFCURVE",
"367 361 OFFCURVE",
"366 310 CURVE SMOOTH",
"360 0 LINE",
"446 0 LINE",
"442 200 LINE",
"444 330 LINE SMOOTH",
"445 416 OFFCURVE",
"392 465 OFFCURVE",
"289 465 CURVE"
);
}
);
width = 800;
}
);
leftKerningGroup = n;
leftMetricsKey = idotless;
rightKerningGroup = n;
rightMetricsKey = n;
unicode = 006D;
},
{
color = 1;
glyphname = n;
lastChange = "2016-10-28 13:24:24 +0000";
layers = (
{
anchors = (
{
name = bottom;
position = "{260, 0}";
},
{
name = top;
position = "{273, 459}";
}
);
layerId = "EDFD1FE9-67C2-43D2-81E5-EF1682ABC3BD";
paths = (
{
closed = 1;
nodes = (
"256 459 OFFCURVE",
"207 431 OFFCURVE",
"164 385 CURVE",
"149 385 LINE",
"149 324 LINE",
"191 370 OFFCURVE",
"237 397 OFFCURVE",
"278 397 CURVE SMOOTH",
"334 397 OFFCURVE",
"366 362 OFFCURVE",
"366 300 CURVE SMOOTH",
"361 0 LINE",
"445 0 LINE",
"443 200 LINE",
"444 330 LINE SMOOTH",
"445 416 OFFCURVE",
"395 465 OFFCURVE",
"306 465 CURVE SMOOTH"
);
},
{
closed = 1;
nodes = (
"79 453 LINE",
"81 194 LINE",
"78 0 LINE",
"161 0 LINE",
"159 201 LINE",
"159 461 LINE"
);
}
);
width = 516;
},
{
anchors = (
{
name = bottom;
position = "{260, 0}";
},
{
name = top;
position = "{273, 459}";
}
);
background = {
paths = (
{
closed = 0;
nodes = (
"299 465 LINE"
);
}
);
};
layerId = "083C0576-DCB5-487A-B9F4-85809F200F55";
paths = (
{
closed = 1;
nodes = (
"250 454 OFFCURVE",
"206 430 OFFCURVE",
"165 395 CURVE",
"149 395 LINE",
"149 316 LINE",
"195 365 OFFCURVE",
"243 394 OFFCURVE",
"291 394 CURVE SMOOTH",
"342 394 OFFCURVE",
"367 361 OFFCURVE",
"366 310 CURVE SMOOTH",
"360 0 LINE",
"446 0 LINE",
"442 200 LINE",
"444 330 LINE",
"445 416 OFFCURVE",
"392 465 OFFCURVE",
"289 465 CURVE"
);
},
{
closed = 1;
nodes = (
"78 453 LINE",
"82 194 LINE",
"77 0 LINE",
"162 0 LINE",
"157 201 LINE",
"159 461 LINE"
);
}
);
width = 516;
}
);
leftKerningGroup = n;
leftMetricsKey = idotless;
rightKerningGroup = n;
unicode = 006E;
},
{
color = 1;
glyphname = eng;
lastChange = "2016-10-28 13:24:24 +0000";
layers = (
{
layerId = "EDFD1FE9-67C2-43D2-81E5-EF1682ABC3BD";
paths = (
{
closed = 1;
nodes = (
"256 459 OFFCURVE",
"207 431 OFFCURVE",
"164 385 CURVE",
"149 385 LINE",
"149 324 LINE",
"191 370 OFFCURVE",
"237 397 OFFCURVE",
"278 397 CURVE SMOOTH",
"334 397 OFFCURVE",
"366 362 OFFCURVE",
"366 300 CURVE SMOOTH",
"366 16 LINE SMOOTH",
"366 -64 OFFCURVE",
"346 -105 OFFCURVE",
"290 -146 CURVE",
"290 -156 LINE",
"321 -194 LINE",
"411 -141 OFFCURVE",
"445 -85 OFFCURVE",
"445 20 CURVE SMOOTH",
"443 201 LINE",
"444 330 LINE SMOOTH",
"445 416 OFFCURVE",
"395 465 OFFCURVE",
"306 465 CURVE SMOOTH"
);
},
{
closed = 1;
nodes = (
"79 453 LINE",
"81 194 LINE",
"78 0 LINE",
"161 0 LINE",
"159 201 LINE",
"159 461 LINE"
);
}
);
width = 519;
},
{
background = {
paths = (
{
closed = 1;
nodes = (
"250 454 OFFCURVE",
"206 430 OFFCURVE",
"165 395 CURVE",
"149 395 LINE",
"149 316 LINE",
"195 365 OFFCURVE",
"243 394 OFFCURVE",
"291 394 CURVE SMOOTH",
"342 394 OFFCURVE",
"367 361 OFFCURVE",
"366 310 CURVE SMOOTH",
"360 0 LINE",
"446 0 LINE",
"442 200 LINE",
"444 330 LINE",
"445 416 OFFCURVE",
"392 465 OFFCURVE",
"289 465 CURVE"
);
},
{
closed = 1;
nodes = (
"78 453 LINE",
"82 194 LINE",
"77 0 LINE",
"162 0 LINE",
"157 201 LINE",
"159 461 LINE"
);
}
);
};
layerId = "083C0576-DCB5-487A-B9F4-85809F200F55";
paths = (
{
closed = 1;
nodes = (
"250 454 OFFCURVE",
"206 430 OFFCURVE",
"165 395 CURVE",
"149 395 LINE",
"149 316 LINE",
"195 365 OFFCURVE",
"243 394 OFFCURVE",
"291 394 CURVE SMOOTH",
"342 394 OFFCURVE",
"366 361 OFFCURVE",
"366 310 CURVE SMOOTH",
"367 16 LINE SMOOTH",
"367 -64 OFFCURVE",
"343 -105 OFFCURVE",
"272 -146 CURVE",
"272 -156 LINE",
"304 -194 LINE",
"408 -141 OFFCURVE",
"447 -85 OFFCURVE",
"447 20 CURVE",
"442 200 LINE",
"444 330 LINE SMOOTH",
"445 416 OFFCURVE",
"392 465 OFFCURVE",
"289 465 CURVE"
);
},
{
closed = 1;
nodes = (
"78 453 LINE",
"82 194 LINE",
"77 0 LINE",
"162 0 LINE",
"157 201 LINE",
"159 461 LINE"
);
}
);
width = 529;
}
);
leftKerningGroup = n;
leftMetricsKey = n;
rightKerningGroup = j;
rightMetricsKey = j;
unicode = 014B;
},
{
color = 1;
glyphname = o;
lastChange = "2016-10-28 13:24:24 +0000";
layers = (
{
anchors = (
{
name = top;
position = "{246, 459}";
}
);
layerId = "EDFD1FE9-67C2-43D2-81E5-EF1682ABC3BD";
paths = (
{
closed = 1;
nodes = (
"117 467 OFFCURVE",
"41 378 OFFCURVE",
"41 222 CURVE SMOOTH",
"41 76 OFFCURVE",
"113 -8 OFFCURVE",
"239 -8 CURVE SMOOTH",
"373 -8 OFFCURVE",
"449 81 OFFCURVE",
"449 236 CURVE SMOOTH",
"449 383 OFFCURVE",
"377 467 OFFCURVE",
"250 467 CURVE SMOOTH"
);
},
{
closed = 1;
nodes = (
"326 407 OFFCURVE",
"370 347 OFFCURVE",
"370 223 CURVE SMOOTH",
"370 109 OFFCURVE",
"326 51 OFFCURVE",
"244 51 CURVE SMOOTH",
"163 51 OFFCURVE",
"119 110 OFFCURVE",
"119 235 CURVE SMOOTH",
"119 349 OFFCURVE",
"163 407 OFFCURVE",
"245 407 CURVE SMOOTH"
);
}
);
width = 491;
},
{
anchors = (
{
name = top;
position = "{246, 459}";
}
);
background = {
paths = (
{
closed = 1;
nodes = (
"361 -12 OFFCURVE",
"462 99 OFFCURVE",
"462 242 CURVE SMOOTH",
"462 373 OFFCURVE",
"382 464 OFFCURVE",
"268 464 CURVE SMOOTH",
"137 464 OFFCURVE",
"36 353 OFFCURVE",
"36 210 CURVE SMOOTH",
"36 79 OFFCURVE",
"115 -12 OFFCURVE",
"230 -12 CURVE SMOOTH"
);
},
{
closed = 1;
nodes = (
"174 37 OFFCURVE",
"116 119 OFFCURVE",
"116 239 CURVE SMOOTH",
"116 344 OFFCURVE",
"163 410 OFFCURVE",
"238 410 CURVE SMOOTH",
"322 410 OFFCURVE",
"380 326 OFFCURVE",
"380 206 CURVE SMOOTH",
"380 102 OFFCURVE",
"333 37 OFFCURVE",
"258 37 CURVE SMOOTH"
);
}
);
};
layerId = "083C0576-DCB5-487A-B9F4-85809F200F55";
paths = (
{
closed = 1;
nodes = (
"117 467 OFFCURVE",
"41 378 OFFCURVE",
"41 223 CURVE SMOOTH",
"41 76 OFFCURVE",
"113 -8 OFFCURVE",
"239 -8 CURVE SMOOTH",
"373 -8 OFFCURVE",
"449 81 OFFCURVE",
"449 236 CURVE SMOOTH",
"449 383 OFFCURVE",
"377 467 OFFCURVE",
"251 467 CURVE SMOOTH"
);
},
{
closed = 1;
nodes = (
"326 407 OFFCURVE",
"369 343 OFFCURVE",
"369 216 CURVE SMOOTH",
"369 106 OFFCURVE",
"326 52 OFFCURVE",
"244 52 CURVE SMOOTH",
"164 52 OFFCURVE",
"121 114 OFFCURVE",
"121 243 CURVE SMOOTH",
"121 350 OFFCURVE",
"164 407 OFFCURVE",
"246 407 CURVE SMOOTH"
);
}
);
width = 491;
}
);
leftKerningGroup = o;
rightKerningGroup = o;
unicode = 006F;
},
{
color = 1;
glyphname = ohorn;
lastChange = "2016-10-28 13:24:24 +0000";
layers = (
{
anchors = (
{
name = top;
position = "{245, 459}";
}
);
layerId = "EDFD1FE9-67C2-43D2-81E5-EF1682ABC3BD";
paths = (
{
closed = 1;
nodes = (
"450 585 OFFCURVE",
"436 578 OFFCURVE",
"421 566 CURVE",
"418 557 LINE",
"439 537 OFFCURVE",
"450 515 OFFCURVE",
"450 492 CURVE SMOOTH",
"450 459 OFFCURVE",
"426 436 OFFCURVE",
"388 436 CURVE SMOOTH",
"345 436 OFFCURVE",
"318 467 OFFCURVE",
"250 467 CURVE SMOOTH",
"117 467 OFFCURVE",
"41 378 OFFCURVE",
"41 224 CURVE SMOOTH",
"41 76 OFFCURVE",
"112 -8 OFFCURVE",
"240 -8 CURVE SMOOTH",
"373 -8 OFFCURVE",
"449 81 OFFCURVE",
"449 235 CURVE",
"449 305 OFFCURVE",
"432 359 OFFCURVE",
"399 399 CURVE",
"465 395 OFFCURVE",
"518 441 OFFCURVE",
"518 504 CURVE SMOOTH",
"518 551 OFFCURVE",
"487 585 OFFCURVE",
"463 585 CURVE SMOOTH"
);
},
{
closed = 1;
nodes = (
"327 407 OFFCURVE",
"370 347 OFFCURVE",
"370 223 CURVE SMOOTH",
"370 109 OFFCURVE",
"325 51 OFFCURVE",
"245 51 CURVE SMOOTH",
"162 51 OFFCURVE",
"119 110 OFFCURVE",
"119 235 CURVE SMOOTH",
"119 349 OFFCURVE",
"164 407 OFFCURVE",
"244 407 CURVE SMOOTH"
);
}
);
width = 492;
},
{
anchors = (
{
name = top;
position = "{245, 459}";
}
);
background = {
paths = (
{
closed = 1;
nodes = (
"450 585 OFFCURVE",
"436 578 OFFCURVE",
"421 566 CURVE",
"418 557 LINE",
"439 537 OFFCURVE",
"451 515 OFFCURVE",
"451 492 CURVE SMOOTH",
"451 459 OFFCURVE",
"427 436 OFFCURVE",
"388 436 CURVE SMOOTH",
"345 436 OFFCURVE",
"318 467 OFFCURVE",
"251 467 CURVE SMOOTH",
"117 467 OFFCURVE",
"41 378 OFFCURVE",
"41 224 CURVE SMOOTH",
"41 76 OFFCURVE",
"112 -8 OFFCURVE",
"241 -8 CURVE SMOOTH",
"373 -8 OFFCURVE",
"449 81 OFFCURVE",
"449 235 CURVE",
"449 305 OFFCURVE",
"433 359 OFFCURVE",
"399 399 CURVE",
"465 395 OFFCURVE",
"518 441 OFFCURVE",
"518 504 CURVE SMOOTH",
"518 551 OFFCURVE",
"487 585 OFFCURVE",
"463 585 CURVE SMOOTH"
);
},
{
closed = 1;
nodes = (
"327 407 OFFCURVE",
"370 347 OFFCURVE",
"370 229 CURVE SMOOTH",
"370 111 OFFCURVE",
"325 51 OFFCURVE",
"244 51 CURVE SMOOTH",
"163 51 OFFCURVE",
"120 110 OFFCURVE",
"120 230 CURVE SMOOTH",
"120 347 OFFCURVE",
"164 407 OFFCURVE",
"245 407 CURVE SMOOTH"
);
}
);
};
layerId = "083C0576-DCB5-487A-B9F4-85809F200F55";
paths = (
{
closed = 1;
nodes = (
"450 585 OFFCURVE",
"436 578 OFFCURVE",
"421 566 CURVE",
"418 557 LINE",
"439 537 OFFCURVE",
"451 515 OFFCURVE",
"451 492 CURVE SMOOTH",
"451 459 OFFCURVE",
"427 440 OFFCURVE",
"388 440 CURVE SMOOTH",
"345 440 OFFCURVE",
"318 467 OFFCURVE",
"251 467 CURVE SMOOTH",
"117 467 OFFCURVE",
"41 378 OFFCURVE",
"41 224 CURVE SMOOTH",
"41 76 OFFCURVE",
"112 -8 OFFCURVE",
"241 -8 CURVE SMOOTH",
"373 -8 OFFCURVE",
"449 81 OFFCURVE",
"449 235 CURVE",
"449 302 OFFCURVE",
"435 354 OFFCURVE",
"404 392 CURVE",
"467 392 OFFCURVE",
"518 437 OFFCURVE",
"518 504 CURVE SMOOTH",
"518 551 OFFCURVE",
"487 585 OFFCURVE",
"463 585 CURVE SMOOTH"
);
},
{
closed = 1;
nodes = (
"327 407 OFFCURVE",
"369 347 OFFCURVE",
"369 227 CURVE SMOOTH",
"369 110 OFFCURVE",
"326 52 OFFCURVE",
"244 52 CURVE SMOOTH",
"163 52 OFFCURVE",
"121 110 OFFCURVE",
"121 232 CURVE SMOOTH",
"121 347 OFFCURVE",
"164 407 OFFCURVE",
"246 407 CURVE SMOOTH"
);
}
);
width = 492;
}
);
leftKerningGroup = o;
leftMetricsKey = o;
rightKerningGroup = o;
unicode = 01A1;
},
{
color = 0;
glyphname = ohorngrave;
lastChange = "2016-10-28 13:24:24 +0000";
layers = (
{
components = (
{
name = ohorn;
}
);
layerId = "EDFD1FE9-67C2-43D2-81E5-EF1682ABC3BD";
paths = (
{
closed = 1;
nodes = (
"143 699 LINE",
"111 654 LINE",
"113 645 LINE",
"173 599 OFFCURVE",
"228 559 OFFCURVE",
"286 519 CURVE",
"295 520 LINE",
"318 554 LINE",
"262 600 OFFCURVE",
"209 645 OFFCURVE",
"152 700 CURVE"
);
}
);
width = 492;
},
{
background = {
components = (
{
name = ohorn;
},
{
name = gravecomb;
transform = "{1, 0, 0, 1, 54, 0}";
}
);
};
components = (
{
name = ohorn;
}
);
layerId = "083C0576-DCB5-487A-B9F4-85809F200F55";
paths = (
{
closed = 1;
nodes = (
"142 699 LINE",
"111 654 LINE",
"113 645 LINE",
"173 599 OFFCURVE",
"227 559 OFFCURVE",
"285 519 CURVE",
"295 520 LINE",
"318 554 LINE",
"261 600 OFFCURVE",
"209 645 OFFCURVE",
"152 700 CURVE"
);
}
);
width = 492;
}
);
leftKerningGroup = o;
rightKerningGroup = ohorngrave;
unicode = 1EDD;
},
{
color = 11;
glyphname = oslash;
lastChange = "2016-10-28 13:24:24 +0000";
layers = (
{
anchors = (
{
name = top;
position = "{245, 459}";
}
);
components = (
{
name = o;
}
);
layerId = "EDFD1FE9-67C2-43D2-81E5-EF1682ABC3BD";
paths = (
{
closed = 1;
nodes = (
"381 553 LINE",
"57 -87 LINE",
"60 -95 LINE",
"102 -116 LINE",
"425 524 LINE",
"421 533 LINE"
);
}
);
width = 491;
},
{
anchors = (
{
name = top;
position = "{245, 459}";
}
);
background = {
components = (
{
name = o;
}
);
paths = (
{
closed = 1;
nodes = (
"420 520 LINE",
"417 532 LINE",
"388 539 LINE",
"324 417 LINE",
"357 403 LINE"
);
},
{
closed = 1;
nodes = (
"357 403 LINE",
"324 417 LINE",
"144 70 LINE",
"176 56 LINE"
);
},
{
closed = 1;
nodes = (
"65 -82 LINE",
"67 -92 LINE",
"94 -98 LINE",
"176 56 LINE",
"144 70 LINE"
);
}
);
};
components = (
{
name = o;
}
);
layerId = "083C0576-DCB5-487A-B9F4-85809F200F55";
paths = (
{
closed = 1;
nodes = (
"377 553 LINE",
"53 -87 LINE",
"56 -95 LINE",
"103 -117 LINE",
"426 523 LINE",
"421 532 LINE"
);
}
);
width = 491;
}
);
leftKerningGroup = o;
rightKerningGroup = o;
unicode = 00F8;
},
{
color = 10;
glyphname = oslashacute;
lastChange = "2016-10-28 13:24:24 +0000";
layers = (
{
components = (
{
name = oslash;
},
{
name = acutecomb;
transform = "{1, 0, 0, 1, 77, 0}";
}
);
layerId = "EDFD1FE9-67C2-43D2-81E5-EF1682ABC3BD";
width = 491;
},
{
background = {
components = (
{
name = o;
},
{
name = acutecomb;
transform = "{1, 0, 0, 1, 53, 0}";
}
);
paths = (
{
closed = 1;
nodes = (
"420 520 LINE",
"417 532 LINE",
"388 539 LINE",
"324 417 LINE",
"357 403 LINE"
);
},
{
closed = 1;
nodes = (
"357 403 LINE",
"324 417 LINE",
"144 70 LINE",
"176 56 LINE"
);
},
{
closed = 1;
nodes = (
"65 -82 LINE",
"67 -92 LINE",
"94 -98 LINE",
"176 56 LINE",
"144 70 LINE"
);
}
);
};
components = (
{
name = oslash;
},
{
name = acutecomb;
transform = "{1, 0, 0, 1, 77, 0}";
}
);
layerId = "083C0576-DCB5-487A-B9F4-85809F200F55";
width = 491;
}
);
leftKerningGroup = o;
rightKerningGroup = o;
unicode = 01FF;
},
{
color = 1;
glyphname = oe;
lastChange = "2016-10-28 13:24:24 +0000";
layers = (
{
anchors = (
{
name = top;
position = "{471, 459}";
}
);
layerId = "EDFD1FE9-67C2-43D2-81E5-EF1682ABC3BD";
paths = (
{
closed = 1;
nodes = (
"113 466 OFFCURVE",
"36 378 OFFCURVE",
"36 224 CURVE SMOOTH",
"36 76 OFFCURVE",
"108 -8 OFFCURVE",
"233 -8 CURVE SMOOTH",
"358 -8 OFFCURVE",
"428 81 OFFCURVE",
"428 235 CURVE SMOOTH",
"428 384 OFFCURVE",
"361 466 OFFCURVE",
"243 466 CURVE SMOOTH"
);
},
{
closed = 1;
nodes = (
"322 407 OFFCURVE",
"365 347 OFFCURVE",
"365 223 CURVE SMOOTH",
"365 109 OFFCURVE",
"321 51 OFFCURVE",
"240 51 CURVE SMOOTH",
"158 51 OFFCURVE",
"115 110 OFFCURVE",
"115 235 CURVE SMOOTH",
"115 349 OFFCURVE",
"159 407 OFFCURVE",
"240 407 CURVE SMOOTH"
);
},
{
closed = 1;
nodes = (
"448 466 OFFCURVE",
"372 375 OFFCURVE",
"372 226 CURVE SMOOTH",
"372 82 OFFCURVE",
"445 -8 OFFCURVE",
"570 -8 CURVE SMOOTH",
"619 -8 OFFCURVE",
"665 6 OFFCURVE",
"702 28 CURVE",
"715 89 LINE",
"706 94 LINE",
"667 68 OFFCURVE",
"621 55 OFFCURVE",
"579 55 CURVE SMOOTH",
"484 55 OFFCURVE",
"435 120 OFFCURVE",
"435 229 CURVE SMOOTH",
"435 341 OFFCURVE",
"486 409 OFFCURVE",
"566 409 CURVE SMOOTH",
"628 409 OFFCURVE",
"664 368 OFFCURVE",
"664 300 CURVE",
"663 285 LINE",
"421 276 LINE",
"421 231 LINE",
"722 239 LINE",
"733 252 LINE",
"735 263 OFFCURVE",
"736 280 OFFCURVE",
"736 293 CURVE SMOOTH",
"736 400 OFFCURVE",
"675 466 OFFCURVE",
"567 466 CURVE SMOOTH"
);
}
);
width = 774;
},
{
anchors = (
{
name = top;
position = "{471, 459}";
}
);
background = {
paths = (
{
closed = 1;
nodes = (
"113 466 OFFCURVE",
"36 378 OFFCURVE",
"36 224 CURVE SMOOTH",
"36 76 OFFCURVE",
"108 -8 OFFCURVE",
"232 -8 CURVE SMOOTH",
"362 -8 OFFCURVE",
"435 81 OFFCURVE",
"435 235 CURVE SMOOTH",
"435 384 OFFCURVE",
"366 466 OFFCURVE",
"242 466 CURVE SMOOTH"
);
},
{
closed = 1;
nodes = (
"322 407 OFFCURVE",
"365 347 OFFCURVE",
"365 229 CURVE SMOOTH",
"365 110 OFFCURVE",
"321 52 OFFCURVE",
"238 52 CURVE SMOOTH",
"158 52 OFFCURVE",
"114 110 OFFCURVE",
"114 230 CURVE SMOOTH",
"114 348 OFFCURVE",
"158 407 OFFCURVE",
"241 407 CURVE SMOOTH"
);
},
{
closed = 1;
nodes = (
"445 466 OFFCURVE",
"366 375 OFFCURVE",
"366 226 CURVE SMOOTH",
"366 82 OFFCURVE",
"439 -8 OFFCURVE",
"566 -8 CURVE SMOOTH",
"616 -8 OFFCURVE",
"669 6 OFFCURVE",
"710 28 CURVE",
"715 100 LINE",
"706 105 LINE",
"665 75 OFFCURVE",
"616 60 OFFCURVE",
"573 60 CURVE SMOOTH",
"482 60 OFFCURVE",
"436 124 OFFCURVE",
"436 231 CURVE SMOOTH",
"436 342 OFFCURVE",
"483 406 OFFCURVE",
"561 406 CURVE SMOOTH",
"617 406 OFFCURVE",
"656 374 OFFCURVE",
"656 304 CURVE",
"656 297 OFFCURVE",
"656 294 OFFCURVE",
"655 285 CURVE",
"422 283 LINE",
"422 226 LINE",
"722 226 LINE",
"730 238 LINE",
"732 250 OFFCURVE",
"733 274 OFFCURVE",
"733 286 CURVE SMOOTH",
"733 398 OFFCURVE",
"672 466 OFFCURVE",
"568 466 CURVE SMOOTH"
);
}
);
};
layerId = "083C0576-DCB5-487A-B9F4-85809F200F55";
paths = (
{
closed = 1;
nodes = (
"113 466 OFFCURVE",
"36 378 OFFCURVE",
"36 224 CURVE SMOOTH",
"36 76 OFFCURVE",
"108 -8 OFFCURVE",
"232 -8 CURVE SMOOTH",
"362 -8 OFFCURVE",
"434 81 OFFCURVE",
"434 235 CURVE SMOOTH",
"434 384 OFFCURVE",
"366 466 OFFCURVE",
"242 466 CURVE SMOOTH"
);
},
{
closed = 1;
nodes = (
"326 407 OFFCURVE",
"369 343 OFFCURVE",
"369 216 CURVE SMOOTH",
"369 106 OFFCURVE",
"326 52 OFFCURVE",
"244 52 CURVE SMOOTH",
"164 52 OFFCURVE",
"121 114 OFFCURVE",
"121 243 CURVE SMOOTH",
"121 350 OFFCURVE",
"164 407 OFFCURVE",
"246 407 CURVE SMOOTH"
);
},
{
closed = 1;
nodes = (
"450 466 OFFCURVE",
"370 375 OFFCURVE",
"370 226 CURVE SMOOTH",
"370 82 OFFCURVE",
"442 -8 OFFCURVE",
"571 -8 CURVE SMOOTH",
"618 -8 OFFCURVE",
"668 6 OFFCURVE",
"711 28 CURVE",
"720 100 LINE",
"711 105 LINE",
"668 76 OFFCURVE",
"618 60 OFFCURVE",
"576 60 CURVE SMOOTH",
"481 60 OFFCURVE",
"436 124 OFFCURVE",
"436 231 CURVE SMOOTH",
"436 342 OFFCURVE",
"487 406 OFFCURVE",
"571 406 CURVE SMOOTH",
"624 406 OFFCURVE",
"661 375 OFFCURVE",
"661 305 CURVE",
"659 293 LINE",
"427 287 LINE",
"427 231 LINE",
"718 231 LINE",
"735 245 LINE",
"737 257 OFFCURVE",
"738 281 OFFCURVE",
"738 293 CURVE SMOOTH",
"738 401 OFFCURVE",
"679 466 OFFCURVE",
"578 466 CURVE SMOOTH"
);
}
);
width = 774;
}
);
leftKerningGroup = o;
rightKerningGroup = e;
unicode = 0153;
},
{
color = 1;
glyphname = p;
lastChange = "2016-10-28 13:24:24 +0000";
layers = (
{
anchors = (
{
name = bottom;
position = "{254, 0}";
},
{
name = top;
position = "{254, 459}";
}
);
layerId = "EDFD1FE9-67C2-43D2-81E5-EF1682ABC3BD";
paths = (
{
closed = 1;
nodes = (
"244 459 OFFCURVE",
"198 433 OFFCURVE",
"163 393 CURVE",
"139 393 LINE",
"146 326 LINE",
"180 372 OFFCURVE",
"223 397 OFFCURVE",
"269 397 CURVE SMOOTH",
"346 397 OFFCURVE",
"388 339 OFFCURVE",
"388 230 CURVE SMOOTH",
"388 112 OFFCURVE",
"336 49 OFFCURVE",
"240 49 CURVE SMOOTH",
"199 49 OFFCURVE",
"143 67 OFFCURVE",
"96 94 CURVE",
"91 22 LINE",
"141 1 OFFCURVE",
"192 -8 OFFCURVE",
"244 -8 CURVE SMOOTH",
"386 -8 OFFCURVE",
"467 84 OFFCURVE",
"467 242 CURVE SMOOTH",
"467 383 OFFCURVE",
"402 465 OFFCURVE",
"292 465 CURVE SMOOTH"
);
},
{
closed = 1;
nodes = (
"79 453 LINE",
"81 194 LINE",
"78 -185 LINE",
"161 -185 LINE",
"158 201 LINE",
"158 461 LINE"
);
}
);
width = 509;
},
{
anchors = (
{
name = bottom;
position = "{254, 0}";
},
{
name = top;
position = "{254, 459}";
}
);
background = {
paths = (
{
closed = 1;
nodes = (
"243 459 OFFCURVE",
"197 433 OFFCURVE",
"162 393 CURVE",
"139 393 LINE",
"145 326 LINE",
"180 372 OFFCURVE",
"223 397 OFFCURVE",
"269 397 CURVE SMOOTH",
"347 397 OFFCURVE",
"388 338 OFFCURVE",
"388 232 CURVE SMOOTH",
"388 110 OFFCURVE",
"333 49 OFFCURVE",
"239 49 CURVE SMOOTH",
"202 49 OFFCURVE",
"146 65 OFFCURVE",
"95 94 CURVE",
"91 22 LINE",
"143 1 OFFCURVE",
"194 -8 OFFCURVE",
"244 -8 CURVE SMOOTH",
"384 -8 OFFCURVE",
"467 81 OFFCURVE",
"467 242 CURVE SMOOTH",
"467 382 OFFCURVE",
"403 465 OFFCURVE",
"292 465 CURVE SMOOTH"
);
},
{
closed = 1;
nodes = (
"78 453 LINE",
"81 194 LINE",
"78 -185 LINE",
"160 -185 LINE",
"158 201 LINE",
"158 461 LINE"
);
},
{
closed = 1;
nodes = (
"158 17 LINE",
"158 393 LINE"
);
}
);
};
layerId = "083C0576-DCB5-487A-B9F4-85809F200F55";
paths = (
{
closed = 1;
nodes = (
"242 450 OFFCURVE",
"211 433 OFFCURVE",
"165 396 CURVE",
"149 396 LINE",
"149 316 LINE",
"198 370 OFFCURVE",
"238 394 OFFCURVE",
"281 394 CURVE SMOOTH",
"347 394 OFFCURVE",
"385 337 OFFCURVE",
"387 234 CURVE SMOOTH",
"389 119 OFFCURVE",
"341 53 OFFCURVE",
"254 53 CURVE SMOOTH",
"204 53 OFFCURVE",
"153 75 OFFCURVE",
"95 121 CURVE",
"91 18 LINE",
"141 2 OFFCURVE",
"197 -8 OFFCURVE",
"243 -8 CURVE SMOOTH",
"386 -8 OFFCURVE",
"467 83 OFFCURVE",
"467 243 CURVE SMOOTH",
"467 385 OFFCURVE",
"404 464 OFFCURVE",
"289 464 CURVE"
);
},
{
closed = 1;
nodes = (
"77 453 LINE",
"83 194 LINE",
"77 -185 LINE",
"161 -185 LINE",
"156 201 LINE",
"159 461 LINE"
);
}
);
width = 509;
}
);
leftKerningGroup = p;
leftMetricsKey = idotless;
rightKerningGroup = o;
rightMetricsKey = o;
unicode = 0070;
},
{
color = 1;
glyphname = thorn;
lastChange = "2016-10-28 13:24:24 +0000";
layers = (
{
layerId = "EDFD1FE9-67C2-43D2-81E5-EF1682ABC3BD";
paths = (
{
closed = 1;
nodes = (
"248 458 OFFCURVE",
"202 433 OFFCURVE",
"167 392 CURVE",
"145 392 LINE",
"150 325 LINE",
"185 371 OFFCURVE",
"228 396 OFFCURVE",
"274 396 CURVE SMOOTH",
"351 396 OFFCURVE",
"393 338 OFFCURVE",
"393 232 CURVE SMOOTH",
"393 109 OFFCURVE",
"338 48 OFFCURVE",
"244 48 CURVE SMOOTH",
"208 48 OFFCURVE",
"154 63 OFFCURVE",
"100 94 CURVE",
"98 19 LINE",
"146 2 OFFCURVE",
"200 -8 OFFCURVE",
"249 -8 CURVE SMOOTH",
"388 -8 OFFCURVE",
"472 81 OFFCURVE",
"472 241 CURVE SMOOTH",
"472 382 OFFCURVE",
"407 464 OFFCURVE",
"296 464 CURVE SMOOTH"
);
},
{
closed = 1;
nodes = (
"83 695 LINE",
"85 194 LINE",
"83 -185 LINE",
"164 -185 LINE",
"162 203 LINE",
"165 702 LINE"
);
}
);
width = 513;
},
{
background = {
paths = (
{
closed = 1;
nodes = (
"257 454 OFFCURVE",
"212 431 OFFCURVE",
"171 396 CURVE",
"155 396 LINE",
"155 316 LINE",
"208 371 OFFCURVE",
"248 394 OFFCURVE",
"290 394 CURVE SMOOTH",
"357 394 OFFCURVE",
"393 335 OFFCURVE",
"393 234 CURVE SMOOTH",
"393 111 OFFCURVE",
"338 53 OFFCURVE",
"257 53 CURVE SMOOTH",
"207 53 OFFCURVE",
"156 75 OFFCURVE",
"101 121 CURVE",
"97 18 LINE",
"145 2 OFFCURVE",
"201 -8 OFFCURVE",
"249 -8 CURVE SMOOTH",
"391 -8 OFFCURVE",
"473 82 OFFCURVE",
"473 243 CURVE SMOOTH",
"473 381 OFFCURVE",
"413 464 OFFCURVE",
"305 464 CURVE"
);
},
{
closed = 1;
nodes = (
"82 695 LINE",
"87 194 LINE",
"82 -185 LINE",
"166 -185 LINE",
"162 203 LINE",
"167 702 LINE"
);
}
);
};
layerId = "083C0576-DCB5-487A-B9F4-85809F200F55";
paths = (
{
closed = 1;
nodes = (
"246 449 OFFCURVE",
"215 432 OFFCURVE",
"170 396 CURVE",
"154 396 LINE",
"154 316 LINE",
"204 371 OFFCURVE",
"244 394 OFFCURVE",
"286 394 CURVE SMOOTH",
"353 394 OFFCURVE",
"390 335 OFFCURVE",
"392 234 CURVE SMOOTH",
"394 111 OFFCURVE",
"340 53 OFFCURVE",
"259 53 CURVE SMOOTH",
"209 53 OFFCURVE",
"157 81 OFFCURVE",
"100 141 CURVE",
"96 48 LINE",
"144 14 OFFCURVE",
"198 -8 OFFCURVE",
"252 -8 CURVE SMOOTH",
"389 -8 OFFCURVE",
"472 82 OFFCURVE",
"472 244 CURVE SMOOTH",
"472 381 OFFCURVE",
"412 464 OFFCURVE",
"294 464 CURVE"
);
},
{
closed = 1;
nodes = (
"82 695 LINE",
"88 194 LINE",
"82 -185 LINE",
"166 -185 LINE",
"161 201 LINE",
"167 702 LINE"
);
}
);
width = 513;
}
);
leftKerningGroup = h;
leftMetricsKey = l;
rightKerningGroup = o;
rightMetricsKey = b;
unicode = 00FE;
},
{
color = 1;
glyphname = q;
lastChange = "2016-10-28 13:24:24 +0000";
layers = (
{
layerId = "EDFD1FE9-67C2-43D2-81E5-EF1682ABC3BD";
paths = (
{
closed = 1;
nodes = (
"339 456 OFFCURVE",
"302 466 OFFCURVE",
"259 466 CURVE SMOOTH",
"128 466 OFFCURVE",
"41 380 OFFCURVE",
"41 222 CURVE SMOOTH",
"41 79 OFFCURVE",
"112 -6 OFFCURVE",
"225 -6 CURVE SMOOTH",
"272 -2 OFFCURVE",
"310 22 OFFCURVE",
"345 61 CURVE",
"349 61 LINE",
"349 34 LINE",
"346 -185 LINE",
"429 -185 LINE",
"426 189 LINE",
"430 460 LINE",
"421 465 LINE",
"374 446 LINE"
);
},
{
closed = 1;
nodes = (
"289 406 OFFCURVE",
"316 401 OFFCURVE",
"348 392 CURVE",
"349 179 LINE",
"349 121 LINE",
"319 81 OFFCURVE",
"282 58 OFFCURVE",
"239 58 CURVE SMOOTH",
"166 58 OFFCURVE",
"119 119 OFFCURVE",
"119 233 CURVE SMOOTH",
"119 348 OFFCURVE",
"169 406 OFFCURVE",
"262 406 CURVE SMOOTH"
);
}
);
width = 507;
},
{
background = {
paths = (
{
closed = 1;
nodes = (
"346 453 LINE",
"351 194 LINE",
"345 0 LINE",
"430 0 LINE",
"424 201 LINE",
"431 461 LINE"
);
}
);
};
layerId = "083C0576-DCB5-487A-B9F4-85809F200F55";
paths = (
{
closed = 1;
nodes = (
"342 460 OFFCURVE",
"301 467 OFFCURVE",
"261 467 CURVE SMOOTH",
"123 467 OFFCURVE",
"39 383 OFFCURVE",
"39 226 CURVE SMOOTH",
"39 82 OFFCURVE",
"109 -5 OFFCURVE",
"242 -5 CURVE",
"283 12 OFFCURVE",
"307 26 OFFCURVE",
"341 53 CURVE",
"350 53 LINE",
"350 34 LINE",
"346 -185 LINE",
"430 -185 LINE",
"424 201 LINE",
"431 460 LINE",
"423 465 LINE",
"381 449 LINE"
);
},
{
closed = 1;
nodes = (
"283 406 OFFCURVE",
"313 397 OFFCURVE",
"348 378 CURVE",
"351 193 LINE",
"350 125 LINE",
"306 80 OFFCURVE",
"272 67 OFFCURVE",
"238 67 CURVE SMOOTH",
"165 67 OFFCURVE",
"121 128 OFFCURVE",
"119 233 CURVE SMOOTH",
"117 351 OFFCURVE",
"171 406 OFFCURVE",
"251 406 CURVE SMOOTH"
);
}
);
width = 507;
}
);
leftKerningGroup = o;
leftMetricsKey = o;
rightMetricsKey = idotless;
unicode = 0071;
},
{
color = 0;
glyphname = r;
lastChange = "2016-10-28 13:24:24 +0000";
layers = (
{
anchors = (
{
name = bottom;
position = "{120, 0}";
},
{
name = top;
position = "{195, 459}";
}
);
layerId = "EDFD1FE9-67C2-43D2-81E5-EF1682ABC3BD";
paths = (
{
closed = 1;
nodes = (
"79 453 LINE",
"81 194 LINE",
"78 0 LINE",
"161 0 LINE",
"159 201 LINE",
"159 461 LINE"
);
},
{
closed = 1;
nodes = (
"241 460 OFFCURVE",
"200 426 OFFCURVE",
"164 358 CURVE",
"150 358 LINE",
"150 276 LINE",
"192 350 OFFCURVE",
"235 384 OFFCURVE",
"278 384 CURVE SMOOTH",
"288 384 OFFCURVE",
"298 382 OFFCURVE",
"308 379 CURVE",
"318 382 LINE",
"318 458 LINE",
"310 459 OFFCURVE",
"301 460 OFFCURVE",
"293 460 CURVE SMOOTH"
);
}
);
width = 325;
},
{
anchors = (
{
name = bottom;
position = "{120, 0}";
},
{
name = top;
position = "{195, 459}";
}
);
background = {
paths = (
{
closed = 1;
nodes = (
"78 453 LINE",
"83 194 LINE",
"77 0 LINE",
"162 0 LINE",
"156 201 LINE",
"159 461 LINE"
);
},
{
closed = 1;
nodes = (
"254 460 OFFCURVE",
"205 440 OFFCURVE",
"164 368 CURVE",
"150 368 LINE",
"150 252 LINE",
"188 342 OFFCURVE",
"225 377 OFFCURVE",
"271 377 CURVE SMOOTH",
"279 377 OFFCURVE",
"294 376 OFFCURVE",
"308 372 CURVE",
"318 375 LINE",
"318 458 LINE",
"311 459 OFFCURVE",
"301 460 OFFCURVE",
"292 460 CURVE SMOOTH"
);
}
);
};
layerId = "083C0576-DCB5-487A-B9F4-85809F200F55";
paths = (
{
closed = 1;
nodes = (
"78 453 LINE",
"83 194 LINE",
"77 0 LINE",
"162 0 LINE",
"156 201 LINE",
"159 461 LINE"
);
},
{
closed = 1;
nodes = (
"254 460 OFFCURVE",
"205 440 OFFCURVE",
"164 368 CURVE",
"150 368 LINE",
"150 252 LINE",
"188 342 OFFCURVE",
"225 377 OFFCURVE",
"271 377 CURVE SMOOTH",
"279 377 OFFCURVE",
"294 376 OFFCURVE",
"308 372 CURVE",
"318 375 LINE",
"318 458 LINE",
"311 459 OFFCURVE",
"301 460 OFFCURVE",
"292 460 CURVE SMOOTH"
);
}
);
width = 325;
}
);
leftKerningGroup = n;
leftMetricsKey = idotless;
rightKerningGroup = r;
unicode = 0072;
},
{
color = 1;
glyphname = s;
lastChange = "2016-10-28 13:24:24 +0000";
layers = (
{
anchors = (
{
name = bottom;
position = "{175, 0}";
},
{
name = top;
position = "{185, 459}";
}
);
layerId = "EDFD1FE9-67C2-43D2-81E5-EF1682ABC3BD";
paths = (
{
closed = 1;
nodes = (
"107 465 OFFCURVE",
"46 409 OFFCURVE",
"46 333 CURVE SMOOTH",
"46 193 OFFCURVE",
"262 211 OFFCURVE",
"262 119 CURVE SMOOTH",
"262 82 OFFCURVE",
"230 48 OFFCURVE",
"173 48 CURVE SMOOTH",
"136 48 OFFCURVE",
"89 64 OFFCURVE",
"50 93 CURVE",
"41 87 LINE",
"31 24 LINE",
"74 3 OFFCURVE",
"123 -8 OFFCURVE",
"165 -8 CURVE SMOOTH",
"275 -8 OFFCURVE",
"333 59 OFFCURVE",
"333 130 CURVE SMOOTH",
"333 268 OFFCURVE",
"117 250 OFFCURVE",
"117 343 CURVE SMOOTH",
"117 379 OFFCURVE",
"147 409 OFFCURVE",
"198 409 CURVE SMOOTH",
"223 409 OFFCURVE",
"260 399 OFFCURVE",
"297 379 CURVE",
"308 382 LINE",
"321 443 LINE",
"282 458 OFFCURVE",
"243 465 OFFCURVE",
"207 465 CURVE SMOOTH"
);
}
);
width = 373;
},
{
anchors = (
{
name = bottom;
position = "{175, 0}";
},
{
name = top;
position = "{185, 459}";
}
);
background = {
paths = (
{
closed = 1;
nodes = (
"106 466 OFFCURVE",
"46 410 OFFCURVE",
"46 330 CURVE SMOOTH",
"46 192 OFFCURVE",
"253 207 OFFCURVE",
"253 118 CURVE SMOOTH",
"253 85 OFFCURVE",
"225 52 OFFCURVE",
"172 52 CURVE SMOOTH",
"138 52 OFFCURVE",
"89 70 OFFCURVE",
"51 104 CURVE",
"41 98 LINE",
"31 24 LINE",
"74 3 OFFCURVE",
"123 -8 OFFCURVE",
"164 -8 CURVE SMOOTH",
"275 -8 OFFCURVE",
"331 60 OFFCURVE",
"331 133 CURVE SMOOTH",
"331 270 OFFCURVE",
"124 256 OFFCURVE",
"124 340 CURVE SMOOTH",
"124 377 OFFCURVE",
"151 405 OFFCURVE",
"197 405 CURVE SMOOTH",
"223 405 OFFCURVE",
"260 394 OFFCURVE",
"294 371 CURVE",
"306 374 LINE",
"318 444 LINE",
"282 459 OFFCURVE",
"243 466 OFFCURVE",
"205 466 CURVE SMOOTH"
);
}
);
};
layerId = "083C0576-DCB5-487A-B9F4-85809F200F55";
paths = (
{
closed = 1;
nodes = (
"105 466 OFFCURVE",
"46 409 OFFCURVE",
"46 332 CURVE SMOOTH",
"46 189 OFFCURVE",
"253 208 OFFCURVE",
"253 118 CURVE SMOOTH",
"253 85 OFFCURVE",
"224 52 OFFCURVE",
"174 52 CURVE SMOOTH",
"137 52 OFFCURVE",
"89 70 OFFCURVE",
"51 104 CURVE",
"41 98 LINE",
"31 24 LINE",
"74 3 OFFCURVE",
"122 -8 OFFCURVE",
"166 -8 CURVE SMOOTH",
"274 -8 OFFCURVE",
"331 60 OFFCURVE",
"331 133 CURVE SMOOTH",
"331 272 OFFCURVE",
"124 253 OFFCURVE",
"124 343 CURVE SMOOTH",
"124 375 OFFCURVE",
"151 405 OFFCURVE",
"196 405 CURVE SMOOTH",
"228 405 OFFCURVE",
"260 394 OFFCURVE",
"294 371 CURVE",
"306 374 LINE",
"318 444 LINE",
"282 459 OFFCURVE",
"242 466 OFFCURVE",
"206 466 CURVE SMOOTH"
);
}
);
width = 371;
}
);
leftKerningGroup = s;
rightKerningGroup = s;
unicode = 0073;
},
{
color = 0;
glyphname = saltillo;
lastChange = "2016-10-28 13:24:24 +0000";
layers = (
{
components = (
{
name = quotesingle;
transform = "{1, 0, 0, 1.4761, -21, -402}";
}
);
layerId = "EDFD1FE9-67C2-43D2-81E5-EF1682ABC3BD";
paths = (
{
closed = 0;
nodes = (
"66 137 LINE"
);
}
);
width = 131;
},
{
background = {
paths = (
{
closed = 1;
nodes = (
"34 609 LINE",
"56 596 OFFCURVE",
"74 574 OFFCURVE",
"74 547 CURVE SMOOTH",
"74 513 OFFCURVE",
"42 473 OFFCURVE",
"2 448 CURVE",
"2 438 LINE",
"20 423 LINE",
"75 452 OFFCURVE",
"148 506 OFFCURVE",
"148 578 CURVE SMOOTH",
"148 622 OFFCURVE",
"124 649 OFFCURVE",
"94 649 CURVE SMOOTH",
"72 649 OFFCURVE",
"49 633 OFFCURVE",
"36 623 CURVE"
);
}
);
};
components = (
{
name = quotesingle;
transform = "{1, 0, 0, 1.337, -26, -327}";
}
);
layerId = "083C0576-DCB5-487A-B9F4-85809F200F55";
paths = (
{
closed = 0;
nodes = (
"64 123 LINE"
);
}
);
width = 121;
}
);
unicode = A78C;
},
{
color = 1;
glyphname = germandbls;
lastChange = "2016-10-28 13:24:24 +0000";
layers = (
{
layerId = "EDFD1FE9-67C2-43D2-81E5-EF1682ABC3BD";
paths = (
{
closed = 1;
nodes = (
"185 704 OFFCURVE",
"105 632 OFFCURVE",
"105 503 CURVE SMOOTH",
"107 190 LINE",
"103.994 0 LINE",
"187 0 LINE",
"184 199 LINE",
"186 512 LINE SMOOTH",
"186 599 OFFCURVE",
"232 642 OFFCURVE",
"305 642 CURVE SMOOTH",
"364 642 OFFCURVE",
"400 615 OFFCURVE",
"400 562 CURVE SMOOTH",
"400 470 OFFCURVE",
"287 462 OFFCURVE",
"287 356 CURVE SMOOTH",
"287 214 OFFCURVE",
"486 209 OFFCURVE",
"486 118 CURVE SMOOTH",
"486 82 OFFCURVE",
"455 48 OFFCURVE",
"399 48 CURVE SMOOTH",
"363 48 OFFCURVE",
"318 64 OFFCURVE",
"282 93 CURVE",
"273 87 LINE",
"263 24 LINE",
"304 3 OFFCURVE",
"351 -8 OFFCURVE",
"393 -8 CURVE SMOOTH",
"500 -8 OFFCURVE",
"558 58 OFFCURVE",
"558 132 CURVE SMOOTH",
"558 268 OFFCURVE",
"358 265 OFFCURVE",
"358 370 CURVE SMOOTH",
"358 449 OFFCURVE",
"471 465 OFFCURVE",
"471 575 CURVE SMOOTH",
"471 651 OFFCURVE",
"415 704 OFFCURVE",
"308 704 CURVE SMOOTH"
);
},
{
closed = 1;
nodes = (
"40 457 LINE",
"35 410 LINE",
"39 404 LINE",
"148 404 LINE",
"153 451 LINE",
"149 457 LINE"
);
}
);
width = 568;
},
{
background = {
paths = (
{
closed = 1;
nodes = (
"167 704 OFFCURVE",
"105 644 OFFCURVE",
"106 535 CURVE SMOOTH",
"109 195 LINE",
"103 0 LINE",
"188 0 LINE",
"182 202 LINE",
"187 548 LINE SMOOTH",
"188 611 OFFCURVE",
"216 642 OFFCURVE",
"267 642 CURVE SMOOTH",
"290 642 OFFCURVE",
"312 638 OFFCURVE",
"341 624 CURVE",
"347 629 LINE",
"353 695 LINE",
"325 701 OFFCURVE",
"299 704 OFFCURVE",
"274 704 CURVE SMOOTH"
);
},
{
closed = 1;
nodes = (
"39 457 LINE",
"34 407 LINE",
"38 401 LINE",
"303 401 LINE",
"308 451 LINE",
"305 457 LINE"
);
}
);
};
layerId = "083C0576-DCB5-487A-B9F4-85809F200F55";
paths = (
{
closed = 1;
nodes = (
"185 704 OFFCURVE",
"106 632 OFFCURVE",
"106 503 CURVE",
"109 190 LINE",
"103 0 LINE",
"188 0 LINE",
"182 199 LINE",
"186 512 LINE",
"187 599 OFFCURVE",
"232 642 OFFCURVE",
"305 642 CURVE SMOOTH",
"363 642 OFFCURVE",
"400 615 OFFCURVE",
"400 563 CURVE SMOOTH",
"400 469 OFFCURVE",
"282 464 OFFCURVE",
"282 356 CURVE SMOOTH",
"282 215 OFFCURVE",
"482 209 OFFCURVE",
"482 118 CURVE SMOOTH",
"482 82 OFFCURVE",
"451 52 OFFCURVE",
"400 52 CURVE SMOOTH",
"361 52 OFFCURVE",
"317 70 OFFCURVE",
"280 104 CURVE",
"271 98 LINE",
"260 24 LINE",
"302 3 OFFCURVE",
"350 -8 OFFCURVE",
"393 -8 CURVE SMOOTH",
"500 -8 OFFCURVE",
"560 58 OFFCURVE",
"560 132 CURVE SMOOTH",
"560 268 OFFCURVE",
"360 265 OFFCURVE",
"360 370 CURVE SMOOTH",
"360 448 OFFCURVE",
"471 466 OFFCURVE",
"471 574 CURVE SMOOTH",
"471 651 OFFCURVE",
"415 704 OFFCURVE",
"309 704 CURVE SMOOTH"
);
},
{
closed = 1;
nodes = (
"39 457 LINE",
"34 407 LINE",
"38 401 LINE",
"148 401 LINE",
"153 451 LINE",
"149 457 LINE"
);
}
);
width = 568;
}
);
leftKerningGroup = f;
leftMetricsKey = f;
rightKerningGroup = s;
unicode = 00DF;
},
{
color = 1;
glyphname = t;
lastChange = "2016-10-28 13:24:24 +0000";
layers = (
{
layerId = "EDFD1FE9-67C2-43D2-81E5-EF1682ABC3BD";
width = 321;
},
{
anchors = (
{
name = bottom;
position = "{189, 0}";
},
{
name = center;
position = "{161, 230}";
}
);
background = {
paths = (
{
closed = 1;
nodes = (
"88 525 LINE",
"91 193 LINE",
"89 127 LINE SMOOTH",
"87 48 OFFCURVE",
"118 10 OFFCURVE",
"197 -6 CURVE",
"231 -3 OFFCURVE",
"259 5 OFFCURVE",
"295 20 CURVE",
"305 77 LINE",
"296 83 LINE",
"268 69 OFFCURVE",
"245 64 OFFCURVE",
"225 64 CURVE SMOOTH",
"182 64 OFFCURVE",
"163 82 OFFCURVE",
"164 135 CURVE SMOOTH",
"170 548 LINE",
"162 555 LINE"
);
},
{
closed = 1;
nodes = (
"29 457 LINE",
"24 407 LINE",
"28 401 LINE",
"303 401 LINE",
"308 451 LINE",
"304 457 LINE"
);
}
);
};
layerId = "083C0576-DCB5-487A-B9F4-85809F200F55";
paths = (
{
closed = 1;
nodes = (
"90 528 LINE",
"92 194 LINE",
"88 127 LINE",
"88 48 OFFCURVE",
"119 10 OFFCURVE",
"197 -6 CURVE",
"232 -3 OFFCURVE",
"261 6 OFFCURVE",
"299 23 CURVE",
"307 79 LINE",
"298 85 LINE",
"269 70 OFFCURVE",
"247 65 OFFCURVE",
"226 65 CURVE SMOOTH",
"183 65 OFFCURVE",
"163 82 OFFCURVE",
"164 135 CURVE SMOOTH",
"172 553 LINE",
"164 560 LINE"
);
},
{
closed = 1;
nodes = (
"29 457 LINE",
"24 407 LINE",
"28 401 LINE",
"303 401 LINE",
"308 451 LINE",
"304 457 LINE"
);
}
);
width = 321;
}
);
leftKerningGroup = u;
rightKerningGroup = t;
unicode = 0074;
},
{
color = 0;
glyphname = tbar;
lastChange = "2016-10-28 13:24:24 +0000";
layers = (
{
components = (
{
name = t;
transform = "{1, 0, 0, 1, 2, 0}";
}
);
layerId = "EDFD1FE9-67C2-43D2-81E5-EF1682ABC3BD";
paths = (
{
closed = 1;
nodes = (
"31 291 LINE",
"27 249 LINE",
"34 242 LINE",
"291 242 LINE",
"294 285 LINE",
"288 291 LINE"
);
}
);
width = 325;
},
{
background = {
components = (
{
name = t;
}
);
paths = (
{
closed = 1;
nodes = (
"110 285 OFFCURVE",
"28 286 OFFCURVE",
"28 286 CURVE",
"21 247 LINE",
"30 238 LINE",
"30 238 OFFCURVE",
"93 239 OFFCURVE",
"143 239 CURVE SMOOTH",
"282 240 LINE",
"286 277 LINE",
"273 290 LINE",
"273 290 OFFCURVE",
"208 285 OFFCURVE",
"165 285 CURVE SMOOTH"
);
}
);
};
components = (
{
name = t;
transform = "{1, 0, 0, 1, 2, 0}";
}
);
layerId = "083C0576-DCB5-487A-B9F4-85809F200F55";
paths = (
{
closed = 1;
nodes = (
"30 291 LINE",
"26 244 LINE",
"32 238 LINE",
"295 238 LINE",
"299 285 LINE",
"292 291 LINE"
);
}
);
width = 325;
}
);
leftKerningGroup = t;
rightKerningGroup = t;
unicode = 0167;
},
{
color = 10;
glyphname = tcaron;
lastChange = "2016-10-28 13:24:24 +0000";
layers = (
{
components = (
{
name = t;
},
{
name = caron.alt;
transform = "{1, 0, 0, 1, 8, -9}";
}
);
layerId = "EDFD1FE9-67C2-43D2-81E5-EF1682ABC3BD";
width = 321;
},
{
background = {
components = (
{
name = t;
}
);
paths = (
{
closed = 1;
nodes = (
"297 733 LINE",
"227 719 LINE",
"227 719 OFFCURVE",
"237 611 OFFCURVE",
"233 501 CURVE",
"244 499 LINE",
"269 513 LINE",
"290 615 OFFCURVE",
"304 725 OFFCURVE",
"304 725 CURVE"
);
}
);
};
components = (
{
name = t;
},
{
name = caron.alt;
transform = "{1, 0, 0, 1, 67, -9}";
}
);
layerId = "083C0576-DCB5-487A-B9F4-85809F200F55";
width = 321;
}
);
leftKerningGroup = t;
rightKerningGroup = t;
unicode = 0165;
},
{
color = 1;
glyphname = u;
lastChange = "2016-10-28 13:24:24 +0000";
layers = (
{
anchors = (
{
name = ogonek;
position = "{465, 10}";
},
{
name = top;
position = "{257, 459}";
}
);
layerId = "EDFD1FE9-67C2-43D2-81E5-EF1682ABC3BD";
paths = (
{
closed = 1;
nodes = (
"349 453 LINE",
"349 128 LINE",
"309 85 OFFCURVE",
"270 64 OFFCURVE",
"230 64 CURVE SMOOTH",
"179 64 OFFCURVE",
"151 96 OFFCURVE",
"151 158 CURVE SMOOTH",
"151 461 LINE",
"71 453 LINE",
"73 225 LINE",
"72 130 LINE SMOOTH",
"72 44 OFFCURVE",
"119 -5 OFFCURVE",
"204 -5 CURVE SMOOTH",
"256 0 OFFCURVE",
"303 29 OFFCURVE",
"347 77 CURVE",
"354 77 LINE",
"361 20 OFFCURVE",
"385 -4 OFFCURVE",
"422 -6 CURVE SMOOTH",
"448 -4 OFFCURVE",
"467 2 OFFCURVE",
"484 14 CURVE",
"493 62 LINE",
"485 67 LINE",
"474 60 OFFCURVE",
"462 57 OFFCURVE",
"452 57 CURVE SMOOTH",
"433 57 OFFCURVE",
"424 71 OFFCURVE",
"424 104 CURVE SMOOTH",
"428 461 LINE"
);
}
);
width = 515;
},
{
anchors = (
{
name = ogonek;
position = "{462, 10}";
},
{
name = top;
position = "{256, 459}";
}
);
background = {
paths = (
{
closed = 1;
nodes = (
"440 459 LINE",
"355 459 LINE",
"359 258 LINE",
"359 133 LINE",
"315 90 OFFCURVE",
"271 65 OFFCURVE",
"226 65 CURVE SMOOTH",
"175 65 OFFCURVE",
"150 98 OFFCURVE",
"151 149 CURVE SMOOTH",
"157 459 LINE",
"71 459 LINE",
"74 259 LINE",
"73 129 LINE SMOOTH",
"72 43 OFFCURVE",
"125 -6 OFFCURVE",
"228 -6 CURVE",
"267 5 OFFCURVE",
"311 29 OFFCURVE",
"352 64 CURVE",
"358 64 LINE",
"358 -2 LINE",
"439 6 LINE",
"436 265 LINE"
);
}
);
};
layerId = "083C0576-DCB5-487A-B9F4-85809F200F55";
paths = (
{
closed = 1;
nodes = (
"346 453 LINE",
"346 123 LINE",
"307 86 OFFCURVE",
"265 65 OFFCURVE",
"225 65 CURVE SMOOTH",
"175 65 OFFCURVE",
"150 98 OFFCURVE",
"151 149 CURVE SMOOTH",
"157 461 LINE",
"71 453 LINE",
"75 259 LINE",
"73 129 LINE SMOOTH",
"72 43 OFFCURVE",
"125 -6 OFFCURVE",
"227 -6 CURVE",
"266 5 OFFCURVE",
"307 27 OFFCURVE",
"347 62 CURVE",
"355 62 LINE",
"361 24 OFFCURVE",
"384 -2 OFFCURVE",
"426 -6 CURVE",
"446 -4 OFFCURVE",
"467 4 OFFCURVE",
"484 14 CURVE",
"492 62 LINE",
"484 69 LINE",
"468 65 OFFCURVE",
"459 64 OFFCURVE",
"450 64 CURVE SMOOTH",
"429 64 OFFCURVE",
"421 73 OFFCURVE",
"421 100 CURVE",
"427 461 LINE"
);
}
);
width = 512;
}
);
leftKerningGroup = u;
leftMetricsKey = "|n";
rightKerningGroup = u;
rightMetricsKey = d;
unicode = 0075;
},
{
color = 1;
glyphname = uhorn;
lastChange = "2016-10-28 13:24:24 +0000";
layers = (
{
anchors = (
{
name = top;
position = "{245, 459}";
}
);
layerId = "EDFD1FE9-67C2-43D2-81E5-EF1682ABC3BD";
paths = (
{
closed = 1;
nodes = (
"457 608 OFFCURVE",
"443 601 OFFCURVE",
"428 589 CURVE",
"425 581 LINE",
"447 559 OFFCURVE",
"457 536 OFFCURVE",
"457 516 CURVE SMOOTH",
"457 485 OFFCURVE",
"434 466 OFFCURVE",
"383 458 CURVE SMOOTH",
"350 453 LINE",
"350 128 LINE",
"309 84 OFFCURVE",
"270 64 OFFCURVE",
"231 64 CURVE SMOOTH",
"179 64 OFFCURVE",
"151 96 OFFCURVE",
"151 158 CURVE SMOOTH",
"151 461 LINE",
"71 453 LINE",
"73 218 LINE",
"72 130 LINE SMOOTH",
"72 43 OFFCURVE",
"120 -5 OFFCURVE",
"204 -5 CURVE SMOOTH",
"254 0 OFFCURVE",
"301 25 OFFCURVE",
"347 75 CURVE",
"352 75 LINE",
"361 17 OFFCURVE",
"384 -5 OFFCURVE",
"425 -5 CURVE SMOOTH",
"448 -5 OFFCURVE",
"469 2 OFFCURVE",
"486 14 CURVE",
"496 62 LINE",
"487 68 LINE",
"477 61 OFFCURVE",
"465 57 OFFCURVE",
"455 57 CURVE SMOOTH",
"435 57 OFFCURVE",
"426 72 OFFCURVE",
"426 105 CURVE SMOOTH",
"429 425 LINE",
"489 442 OFFCURVE",
"525 479 OFFCURVE",
"525 529 CURVE SMOOTH",
"525 574 OFFCURVE",
"494 608 OFFCURVE",
"470 608 CURVE SMOOTH"
);
}
);
width = 524;
},
{
anchors = (
{
name = top;
position = "{241, 459}";
}
);
background = {
paths = (
{
closed = 1;
nodes = (
"350 128 LINE",
"309 84 OFFCURVE",
"270 64 OFFCURVE",
"230 64 CURVE SMOOTH",
"179 64 OFFCURVE",
"151 96 OFFCURVE",
"151 158 CURVE SMOOTH",
"151 461 LINE",
"71 453 LINE",
"73 218 LINE",
"72 130 LINE SMOOTH",
"72 43 OFFCURVE",
"120 -5 OFFCURVE",
"203 -5 CURVE SMOOTH",
"253 0 OFFCURVE",
"301 25 OFFCURVE",
"347 75 CURVE",
"352 75 LINE",
"360 17 OFFCURVE",
"384 -5 OFFCURVE",
"425 -5 CURVE SMOOTH",
"448 -5 OFFCURVE",
"468 2 OFFCURVE",
"486 14 CURVE",
"495 62 LINE",
"487 68 LINE",
"477 61 OFFCURVE",
"464 57 OFFCURVE",
"455 57 CURVE SMOOTH",
"435 57 OFFCURVE",
"426 72 OFFCURVE",
"426 105 CURVE SMOOTH",
"429 425 LINE",
"489 442 OFFCURVE",
"524 479 OFFCURVE",
"524 529 CURVE SMOOTH",
"524 574 OFFCURVE",
"494 608 OFFCURVE",
"470 608 CURVE SMOOTH",
"457 608 OFFCURVE",
"442 601 OFFCURVE",
"427 589 CURVE",
"425 581 LINE",
"447 559 OFFCURVE",
"457 536 OFFCURVE",
"457 516 CURVE SMOOTH",
"457 485 OFFCURVE",
"434 466 OFFCURVE",
"382 458 CURVE SMOOTH",
"350 453 LINE"
);
}
);
};
layerId = "083C0576-DCB5-487A-B9F4-85809F200F55";
paths = (
{
closed = 1;
nodes = (
"453 608 OFFCURVE",
"438 601 OFFCURVE",
"423 589 CURVE",
"421 581 LINE",
"443 559 OFFCURVE",
"453 536 OFFCURVE",
"453 516 CURVE SMOOTH",
"453 485 OFFCURVE",
"430 466 OFFCURVE",
"378 458 CURVE SMOOTH",
"346 453 LINE",
"346 123 LINE",
"307 86 OFFCURVE",
"265 65 OFFCURVE",
"225 65 CURVE SMOOTH",
"175 65 OFFCURVE",
"150 98 OFFCURVE",
"151 149 CURVE SMOOTH",
"157 461 LINE",
"71 453 LINE",
"75 259 LINE",
"73 129 LINE SMOOTH",
"72 43 OFFCURVE",
"125 -6 OFFCURVE",
"227 -6 CURVE",
"266 5 OFFCURVE",
"307 27 OFFCURVE",
"347 62 CURVE",
"355 62 LINE",
"361 24 OFFCURVE",
"384 -2 OFFCURVE",
"426 -6 CURVE",
"446 -4 OFFCURVE",
"467 4 OFFCURVE",
"484 14 CURVE",
"492 62 LINE",
"484 69 LINE",
"468 65 OFFCURVE",
"459 64 OFFCURVE",
"450 64 CURVE SMOOTH",
"429 64 OFFCURVE",
"421 73 OFFCURVE",
"421 100 CURVE SMOOTH",
"426 425 LINE",
"486 443 OFFCURVE",
"520 479 OFFCURVE",
"520 529 CURVE SMOOTH",
"520 574 OFFCURVE",
"490 608 OFFCURVE",
"466 608 CURVE SMOOTH"
);
}
);
width = 520;
}
);
leftKerningGroup = u;
leftMetricsKey = u;
rightKerningGroup = u;
unicode = 01B0;
},
